<svg width="261" height="167" viewBox="0 0 261 167" fill="none" xmlns="http://www.w3.org/2000/svg">
<path d="M234.421 153.47H217.164V153.6H234.421V153.47Z" fill="#EBEBEB"/>
<path d="M172.583 154.887H168.055V155.017H172.583V154.887Z" fill="#EBEBEB"/>
<path d="M216.642 148.635H206.643V148.765H216.642V148.635Z" fill="#EBEBEB"/>
<path d="M49.8381 149.51H27.334V149.64H49.8381V149.51Z" fill="#EBEBEB"/>
<path d="M57.7787 149.51H54.4805V149.64H57.7787V149.51Z" fill="#EBEBEB"/>
<path d="M117.314 151.708H68.502V151.838H117.314V151.708Z" fill="#EBEBEB"/>
<path d="M260.525 145.086H0V145.216H260.525V145.086Z" fill="#EBEBEB"/>
<path d="M89.046 133.102H101.119L94.7723 81.4144C94.6198 80.3338 94.0889 79.3423 93.2742 78.6163C92.4594 77.8903 91.4136 77.4767 90.3226 77.4492H37.6445L45.3665 133.102H89.046Z" fill="#F5F5F5"/>
<path d="M50.7555 133.102H38.6828L32.3365 81.4135C32.2585 80.9166 32.2906 80.4086 32.4305 79.9255C32.5705 79.4424 32.8149 78.9959 33.1464 78.6177C33.4779 78.2395 33.8885 77.9387 34.3491 77.7366C34.8097 77.5345 35.309 77.4361 35.8119 77.4483H39.9803C41.0706 77.476 42.1158 77.8897 42.9297 78.6158C43.7436 79.3419 44.2734 80.3333 44.4248 81.4135L50.7555 133.102Z" fill="#F0F0F0"/>
<path d="M55.2319 133.039L53.0435 108.029C52.9961 107.485 52.7632 106.973 52.3838 106.581C52.0043 106.188 51.5014 105.937 50.9593 105.871L50.0579 105.757C49.3338 105.665 48.663 105.327 48.1569 104.801C47.6508 104.275 47.3398 103.592 47.2755 102.865L46.8951 98.3162C46.8585 97.878 46.9128 97.437 47.0545 97.0208C47.1963 96.6045 47.4225 96.222 47.7189 95.8972C48.0153 95.5725 48.3756 95.3124 48.7772 95.1333C49.1787 94.9542 49.613 94.8599 50.0527 94.8564H29.8777C29.4343 94.8562 28.9958 94.9482 28.59 95.1266C28.1841 95.3051 27.8199 95.5661 27.5204 95.893C27.221 96.2199 26.9929 96.6056 26.8506 97.0254C26.7083 97.4453 26.655 97.8902 26.6941 98.3319L27.0901 102.891C27.1525 103.619 27.4629 104.303 27.9693 104.829C28.4758 105.356 29.1476 105.692 29.8725 105.783L30.7687 105.897C31.3104 105.964 31.8128 106.215 32.192 106.608C32.5713 107 32.8045 107.511 32.8529 108.055L35.0413 133.065C35.1231 133.941 35.5292 134.754 36.1798 135.346C36.8305 135.938 37.6788 136.265 38.5583 136.264H58.7229C57.8441 136.257 56.9995 135.923 56.3539 135.326C55.7084 134.73 55.3084 133.914 55.2319 133.039V133.039Z" fill="#E6E6E6"/>
<path d="M110.729 101.781C110.899 99.8891 111.77 98.1289 113.172 96.8473C114.575 95.5656 116.406 94.8554 118.305 94.8564H100.736C98.8344 94.857 97.0024 95.57 95.6009 96.8548C94.1995 98.1395 93.3303 99.9028 93.1648 101.797L91.4297 121.597H108.999L110.729 101.781Z" fill="#E6E6E6"/>
<path d="M126.095 94.8565H118.28C116.377 94.8558 114.544 95.5682 113.142 96.8531C111.739 98.138 110.869 99.902 110.704 101.797L108.974 121.597H67.1647L65.4296 101.797C65.2638 99.8993 64.3916 98.1331 62.9858 96.8478C61.5799 95.5625 59.7427 94.8519 57.8379 94.8565H50.0222C49.5851 94.8643 49.1543 94.9616 48.7564 95.1426C48.3585 95.3236 48.002 95.5843 47.709 95.9086C47.4159 96.2329 47.1925 96.614 47.0527 97.0281C46.9128 97.4422 46.8594 97.8807 46.8959 98.3163L47.2919 102.875C47.3562 103.603 47.6672 104.286 48.1733 104.812C48.6794 105.338 49.3502 105.675 50.0743 105.767L50.9757 105.882C51.5178 105.948 52.0207 106.198 52.4001 106.591C52.7796 106.984 53.0125 107.495 53.0599 108.039L55.2483 133.049C55.3252 133.929 55.7289 134.749 56.3799 135.346C57.031 135.943 57.882 136.274 58.7654 136.275H117.435C118.319 136.274 119.17 135.943 119.821 135.346C120.472 134.749 120.876 133.929 120.953 133.049L123.141 108.039C123.189 107.495 123.423 106.985 123.802 106.592C124.181 106.2 124.683 105.949 125.225 105.882L126.121 105.767C126.846 105.677 127.518 105.34 128.025 104.814C128.531 104.288 128.841 103.603 128.904 102.875L129.3 98.3163C129.337 97.8742 129.281 97.4292 129.137 97.0098C128.992 96.5903 128.762 96.2056 128.46 95.8801C128.159 95.5546 127.793 95.2955 127.386 95.1192C126.978 94.943 126.539 94.8535 126.095 94.8565Z" fill="#F0F0F0"/>
<path d="M73.4321 46.2587C86.2061 46.2587 96.5615 35.9034 96.5615 23.1294C96.5615 10.3554 86.2061 0 73.4321 0C60.6581 0 50.3027 10.3554 50.3027 23.1294C50.3027 35.9034 60.6581 46.2587 73.4321 46.2587Z" fill="#F5F5F5"/>
<path d="M73.4306 42.7412C84.2622 42.7412 93.0429 33.9604 93.0429 23.1289C93.0429 12.2973 84.2622 3.5166 73.4306 3.5166C62.5991 3.5166 53.8184 12.2973 53.8184 23.1289C53.8184 33.9604 62.5991 42.7412 73.4306 42.7412Z" fill="#FAFAFA"/>
<path d="M73.432 3.51727C73.1246 3.51727 72.8172 3.51727 72.5098 3.51727C77.5494 3.74979 82.3056 5.91544 85.7898 9.56409C89.274 13.2127 91.2181 18.0637 91.2181 23.1087C91.2181 28.1537 89.274 33.0047 85.7898 36.6533C82.3056 40.302 77.5494 42.4676 72.5098 42.7002C72.8172 42.7002 73.1246 42.7002 73.432 42.7002C78.6335 42.7002 83.622 40.6339 87.3 36.9559C90.978 33.2778 93.0443 28.2894 93.0443 23.0879C93.0443 17.8864 90.978 12.8979 87.3 9.21989C83.622 5.54187 78.6335 3.47559 73.432 3.47559V3.51727Z" fill="#E6E6E6"/>
<path d="M73.4365 42.7206C73.9315 42.6946 74.4213 42.6477 74.9111 42.5904V24.6038H92.0692C92.1057 24.114 92.1265 23.6242 92.1265 23.1292C92.1265 22.6342 92.1265 22.1444 92.0692 21.6546H74.9059V3.67323C74.4161 3.61071 73.9263 3.56381 73.4313 3.54297H71.9567V21.6598H53.8398V24.609H71.9567V42.7259L73.4365 42.7206Z" fill="#F0F0F0"/>
<path d="M71.957 3.53809H70.4824V21.655H71.957V3.53809Z" fill="#E6E6E6"/>
<path d="M71.957 24.6035H70.4824V42.7204H71.957V24.6035Z" fill="#E6E6E6"/>
<path d="M187.092 46.2587C199.866 46.2587 210.222 35.9034 210.222 23.1294C210.222 10.3554 199.866 0 187.092 0C174.318 0 163.963 10.3554 163.963 23.1294C163.963 35.9034 174.318 46.2587 187.092 46.2587Z" fill="#F5F5F5"/>
<path d="M187.093 42.7412C197.924 42.7412 206.705 33.9604 206.705 23.1289C206.705 12.2973 197.924 3.5166 187.093 3.5166C176.261 3.5166 167.48 12.2973 167.48 23.1289C167.48 33.9604 176.261 42.7412 187.093 42.7412Z" fill="#FAFAFA"/>
<path d="M187.093 3.51727C186.785 3.51727 186.478 3.51727 186.176 3.51727C191.215 3.74979 195.972 5.91544 199.456 9.56409C202.94 13.2127 204.884 18.0637 204.884 23.1087C204.884 28.1537 202.94 33.0047 199.456 36.6533C195.972 40.302 191.215 42.4676 186.176 42.7002C186.478 42.7002 186.785 42.7002 187.093 42.7002C192.294 42.7002 197.283 40.6339 200.961 36.9559C204.639 33.2778 206.705 28.2894 206.705 23.0879C206.705 17.8864 204.639 12.8979 200.961 9.21989C197.283 5.54187 192.294 3.47559 187.093 3.47559V3.51727Z" fill="#E6E6E6"/>
<path d="M187.104 42.7206C187.625 42.6946 188.094 42.6477 188.578 42.5904V24.6038H205.737C205.773 24.114 205.799 23.6242 205.799 23.1292C205.799 22.6342 205.773 22.1444 205.737 21.6546H188.568V3.67323C188.083 3.61071 187.594 3.56381 187.093 3.54297H185.619V21.6598H167.502V24.609H185.619V42.7259L187.104 42.7206Z" fill="#F0F0F0"/>
<path d="M185.625 3.53809H184.15V21.655H185.625V3.53809Z" fill="#E6E6E6"/>
<path d="M185.625 24.6035H184.15V42.7204H185.625V24.6035Z" fill="#E6E6E6"/>
<path d="M147.228 130.689H187.281V116.866H147.228V130.689Z" fill="#EBEBEB"/>
<path d="M147.228 144.518H187.281V130.694H147.228V144.518Z" fill="#EBEBEB"/>
<path d="M188.675 130.689H228.729V116.866H188.675V130.689Z" fill="#EBEBEB"/>
<path d="M188.675 144.518H228.729V130.694H188.675V144.518Z" fill="#EBEBEB"/>
<path d="M213.51 130.689L208.523 116.865H216.193L221.18 130.689H213.51Z" fill="#F0F0F0"/>
<path d="M204.814 116.865H206.497L211.484 130.689H209.796L204.814 116.865Z" fill="#F0F0F0"/>
<path d="M218.491 144.518L213.51 130.689H221.18L226.161 144.518H218.491Z" fill="#F0F0F0"/>
<path d="M209.795 130.689H211.483L216.464 144.518H214.781L209.795 130.689Z" fill="#F0F0F0"/>
<path d="M156.221 130.689L151.24 116.865H158.91L163.891 130.689H156.221Z" fill="#F0F0F0"/>
<path d="M147.529 116.865H149.212L154.194 130.689H152.511L147.529 116.865Z" fill="#F0F0F0"/>
<path d="M161.209 144.518L156.223 130.689H163.892L168.879 144.518H161.209Z" fill="#F0F0F0"/>
<path d="M152.512 130.689H154.195L159.181 144.518H157.493L152.512 130.689Z" fill="#F0F0F0"/>
<path d="M228.729 118.991V117.595H188.675V118.991H228.729Z" fill="#E0E0E0"/>
<path d="M228.729 132.706V131.31H188.675V132.706H228.729Z" fill="#E0E0E0"/>
<path d="M207.679 125.547C207.52 125.547 207.368 125.484 207.256 125.372C207.143 125.259 207.08 125.107 207.08 124.948C207.08 124.789 207.143 124.637 207.256 124.524C207.368 124.412 207.52 124.349 207.679 124.349H209.727C209.886 124.349 210.038 124.412 210.151 124.524C210.263 124.637 210.326 124.789 210.326 124.948C210.326 125.107 210.263 125.259 210.151 125.372C210.038 125.484 209.886 125.547 209.727 125.547H207.679Z" fill="#E0E0E0"/>
<path d="M207.68 125.338C207.596 125.346 207.512 125.336 207.432 125.309C207.352 125.283 207.279 125.24 207.217 125.183C207.155 125.126 207.105 125.057 207.071 124.98C207.037 124.904 207.02 124.82 207.02 124.736C207.02 124.652 207.037 124.569 207.071 124.492C207.105 124.415 207.155 124.346 207.217 124.289C207.279 124.233 207.352 124.19 207.432 124.163C207.512 124.136 207.596 124.127 207.68 124.134H209.728C209.878 124.148 210.017 124.218 210.118 124.329C210.22 124.44 210.276 124.586 210.276 124.736C210.276 124.887 210.22 125.032 210.118 125.143C210.017 125.255 209.878 125.324 209.728 125.338H207.68Z" fill="#F5F5F5"/>
<path d="M207.68 138.313C207.596 138.32 207.512 138.311 207.432 138.284C207.352 138.257 207.279 138.214 207.217 138.158C207.155 138.101 207.105 138.032 207.071 137.955C207.037 137.878 207.02 137.795 207.02 137.711C207.02 137.627 207.037 137.544 207.071 137.467C207.105 137.39 207.155 137.321 207.217 137.264C207.279 137.207 207.352 137.164 207.432 137.138C207.512 137.111 207.596 137.101 207.68 137.109H209.728C209.878 137.123 210.017 137.192 210.118 137.304C210.22 137.415 210.276 137.56 210.276 137.711C210.276 137.861 210.22 138.007 210.118 138.118C210.017 138.229 209.878 138.299 209.728 138.313H207.68Z" fill="#E0E0E0"/>
<path d="M207.68 138.104C207.596 138.111 207.512 138.102 207.432 138.075C207.352 138.048 207.279 138.005 207.217 137.949C207.155 137.892 207.105 137.823 207.071 137.746C207.037 137.669 207.02 137.586 207.02 137.502C207.02 137.418 207.037 137.335 207.071 137.258C207.105 137.181 207.155 137.112 207.217 137.055C207.279 136.998 207.352 136.955 207.432 136.929C207.512 136.902 207.596 136.892 207.68 136.9H209.728C209.878 136.914 210.017 136.983 210.118 137.095C210.22 137.206 210.276 137.351 210.276 137.502C210.276 137.652 210.22 137.798 210.118 137.909C210.017 138.02 209.878 138.09 209.728 138.104H207.68Z" fill="#F5F5F5"/>
<path d="M187.98 116.245V145.122H229.43V116.245H187.98ZM189.377 131.423H228.034V143.72H189.377V131.423ZM189.377 117.725H228.034V130.022H189.377V117.725Z" fill="#F5F5F5"/>
<path d="M187.281 118.991V117.595H147.228V118.991H187.281Z" fill="#E0E0E0"/>
<path d="M187.275 132.711V131.314H147.222V132.711H187.275Z" fill="#E0E0E0"/>
<path d="M166.214 125.547C166.056 125.547 165.903 125.484 165.791 125.372C165.678 125.259 165.615 125.107 165.615 124.948C165.615 124.789 165.678 124.637 165.791 124.524C165.903 124.412 166.056 124.349 166.214 124.349H168.299C168.458 124.349 168.61 124.412 168.722 124.524C168.835 124.637 168.898 124.789 168.898 124.948C168.898 125.107 168.835 125.259 168.722 125.372C168.61 125.484 168.458 125.547 168.299 125.547H166.214Z" fill="#E0E0E0"/>
<path d="M166.214 125.338C166.064 125.324 165.925 125.255 165.824 125.144C165.722 125.032 165.666 124.887 165.666 124.737C165.666 124.586 165.722 124.441 165.824 124.329C165.925 124.218 166.064 124.149 166.214 124.135H168.299C168.449 124.149 168.588 124.218 168.689 124.329C168.791 124.441 168.847 124.586 168.847 124.737C168.847 124.887 168.791 125.032 168.689 125.144C168.588 125.255 168.449 125.324 168.299 125.338H166.214Z" fill="#F5F5F5"/>
<path d="M166.214 138.312C166.064 138.298 165.925 138.229 165.824 138.117C165.722 138.006 165.666 137.861 165.666 137.71C165.666 137.56 165.722 137.414 165.824 137.303C165.925 137.192 166.064 137.122 166.214 137.108H168.299C168.449 137.122 168.588 137.192 168.689 137.303C168.791 137.414 168.847 137.56 168.847 137.71C168.847 137.861 168.791 138.006 168.689 138.117C168.588 138.229 168.449 138.298 168.299 138.312H166.214Z" fill="#E0E0E0"/>
<path d="M166.214 138.104C166.064 138.09 165.925 138.021 165.824 137.909C165.722 137.798 165.666 137.653 165.666 137.502C165.666 137.352 165.722 137.206 165.824 137.095C165.925 136.984 166.064 136.914 166.214 136.9H168.299C168.449 136.914 168.588 136.984 168.689 137.095C168.791 137.206 168.847 137.352 168.847 137.502C168.847 137.653 168.791 137.798 168.689 137.909C168.588 138.021 168.449 138.09 168.299 138.104H166.214Z" fill="#F5F5F5"/>
<path d="M146.523 116.245V145.122H187.978V116.245H146.523ZM147.925 131.423H186.576V143.72H147.925V131.423ZM147.925 117.725H186.576V130.022H147.925V117.725Z" fill="#F5F5F5"/>
<path d="M205.815 113.963H199.635L198.202 107.883H195.727L194.3 113.963H188.099C187.848 113.963 187.598 114.012 187.366 114.108C187.133 114.203 186.922 114.344 186.744 114.522C186.565 114.699 186.424 114.91 186.328 115.143C186.231 115.375 186.182 115.624 186.182 115.876V116.246H207.722V115.876C207.722 115.369 207.521 114.884 207.164 114.525C206.806 114.167 206.321 113.965 205.815 113.963Z" fill="#E0E0E0"/>
<path d="M224.364 75.5469H169.576V111.009H224.364V75.5469Z" fill="#E0E0E0"/>
<path d="M223.321 76.5889H170.617V108.404H223.321V76.5889Z" fill="#F5F5F5"/>
<path d="M199.668 108.404H219.056L207.587 76.5889H188.199L199.668 108.404Z" fill="#FAFAFA"/>
<path d="M190.281 108.404H194.543L183.075 76.5889H178.812L190.281 108.404Z" fill="#FAFAFA"/>
<path d="M115.082 145.148H60.252V135.743H116.645L115.082 145.148Z" fill="#F5F5F5"/>
<path d="M64.7091 145.216H40.3761L39.334 135.743H63.667L64.7091 145.216Z" fill="#E0E0E0"/>
<path d="M127.753 166.61C183.548 166.61 228.779 163.969 228.779 160.712C228.779 157.454 183.548 154.813 127.753 154.813C71.9575 154.813 26.7266 157.454 26.7266 160.712C26.7266 163.969 71.9575 166.61 127.753 166.61Z" fill="#F5F5F5"/>
<path d="M195.486 159.972H192.99L192.443 121.894H196.033L195.486 159.972Z" fill="#263238"/>
<path opacity="0.5" d="M195.486 159.972H192.99L192.443 121.894H196.033L195.486 159.972Z" fill="white"/>
<path d="M173.447 159.972H170.946L170.404 121.894H173.994L173.447 159.972Z" fill="#263238"/>
<path opacity="0.5" d="M173.447 159.972H170.946L170.404 121.894H173.994L173.447 159.972Z" fill="white"/>
<path d="M168.328 159.972H165.832L165.285 121.894H168.875L168.328 159.972Z" fill="#263238"/>
<path opacity="0.5" d="M168.328 159.972H165.832L165.285 121.894H168.875L168.328 159.972Z" fill="white"/>
<path d="M146.289 159.972H143.788L143.246 121.894H146.836L146.289 159.972Z" fill="#263238"/>
<path opacity="0.5" d="M146.289 159.972H143.788L143.246 121.894H146.836L146.289 159.972Z" fill="white"/>
<path d="M183.514 122.769H143.002C142.563 122.769 142.129 122.683 141.724 122.515C141.319 122.347 140.95 122.101 140.64 121.791C140.33 121.481 140.084 121.112 139.916 120.707C139.748 120.302 139.662 119.868 139.662 119.429V114.979C139.663 114.094 140.016 113.246 140.642 112.621C141.268 111.996 142.117 111.645 143.002 111.645H178.871L181.961 82.2471C182.171 80.5253 182.995 78.937 184.281 77.7733C185.567 76.6096 187.23 75.9485 188.964 75.9111H204.017L200.422 86.8844L197.139 111.462L194.831 118.33L183.514 122.769Z" fill="#FFC100"/>
<path opacity="0.2" d="M183.514 122.769H143.002C142.563 122.769 142.129 122.683 141.724 122.515C141.319 122.347 140.95 122.101 140.64 121.791C140.33 121.481 140.084 121.112 139.916 120.707C139.748 120.302 139.662 119.868 139.662 119.429V114.979C139.663 114.094 140.016 113.246 140.642 112.621C141.268 111.996 142.117 111.645 143.002 111.645H178.871L181.961 82.2471C182.171 80.5253 182.995 78.937 184.281 77.7733C185.567 76.6096 187.23 75.9485 188.964 75.9111H204.017L200.422 86.8844L197.139 111.462L194.831 118.33L183.514 122.769Z" fill="black"/>
<path d="M205.262 75.9115H202.256C200.522 75.949 198.86 76.6103 197.575 77.7741C196.289 78.9379 195.467 80.5262 195.258 82.2475L192.168 111.645H170.065C169.181 111.646 168.334 111.998 167.709 112.623C167.084 113.248 166.732 114.096 166.73 114.98V119.43C166.73 120.314 167.082 121.163 167.707 121.789C168.332 122.416 169.18 122.768 170.065 122.769H196.805C197.821 122.77 198.8 122.394 199.554 121.715C200.309 121.035 200.785 120.101 200.89 119.091L204.392 85.775C205.794 85.7465 207.135 85.1925 208.148 84.2227C209.161 83.253 209.773 81.9381 209.863 80.5384C209.874 79.9299 209.763 79.3254 209.536 78.7606C209.309 78.1959 208.971 77.6826 208.542 77.251C208.113 76.8194 207.601 76.4785 207.038 76.2484C206.475 76.0183 205.871 75.9037 205.262 75.9115Z" fill="#FFC100"/>
<path d="M147.154 144.242L148.889 155.58L152.469 155.272L151.969 143.83L147.154 144.242Z" fill="#EBB376"/>
<path d="M152.595 150.838C152.595 150.838 152.767 153.766 153.47 155.225C154.174 156.684 155.148 158.622 152.767 158.836C151.36 158.961 148.901 159.545 146.207 159.805C144.347 159.982 141.799 159.805 141.71 158.82C141.606 157.679 148.202 155.288 148.176 154.188C148.15 153.089 147.853 151.192 147.853 151.192L152.595 150.838Z" fill="#263238"/>
<path opacity="0.1" d="M152.595 150.838C152.595 150.838 152.767 153.766 153.47 155.225C154.174 156.684 155.148 158.622 152.767 158.836C151.36 158.961 148.901 159.545 146.207 159.805C144.347 159.982 141.799 159.805 141.71 158.82C141.606 157.679 148.202 155.288 148.176 154.188C148.15 153.089 147.853 151.192 147.853 151.192L152.595 150.838Z" fill="white"/>
<path d="M170.482 90.3075L169.513 98.3734C169.513 98.3734 141.986 100.791 140.418 107.674C138.933 114.218 147.056 147.446 147.056 147.446L152.553 146.899C152.553 146.899 153.319 121.206 150.912 112.041C150.912 112.041 171.837 111.884 178.814 112.041C181.94 112.113 189.959 112.009 187.974 102.891C185.712 92.4699 183.321 90.3075 183.321 90.3075L183.237 85.7432H170.732L170.482 90.3075Z" fill="#FFC100"/>
<path opacity="0.2" d="M170.482 90.3075L169.513 98.3734C169.513 98.3734 141.986 100.791 140.418 107.674C138.933 114.218 147.056 147.446 147.056 147.446L152.553 146.899C152.553 146.899 153.319 121.206 150.912 112.041C150.912 112.041 171.837 111.884 178.814 112.041C181.94 112.113 189.959 112.009 187.974 102.891C185.712 92.4699 183.321 90.3075 183.321 90.3075L183.237 85.7432H170.732L170.482 90.3075Z" fill="white"/>
<path d="M146.524 147.587L146.982 148.936C147.026 149.058 147.108 149.161 147.216 149.231C147.325 149.301 147.453 149.333 147.581 149.322L152.38 148.879C152.515 148.867 152.64 148.808 152.736 148.713C152.831 148.618 152.89 148.492 152.901 148.358L152.99 146.961C152.994 146.879 152.98 146.796 152.95 146.719C152.919 146.642 152.872 146.573 152.813 146.515C152.753 146.458 152.681 146.414 152.603 146.387C152.525 146.36 152.442 146.349 152.359 146.357L147.014 146.847C146.929 146.855 146.848 146.882 146.775 146.926C146.702 146.97 146.64 147.03 146.593 147.101C146.546 147.171 146.516 147.252 146.504 147.336C146.492 147.42 146.499 147.505 146.524 147.587V147.587Z" fill="#FFC100"/>
<path opacity="0.6" d="M146.524 147.587L146.982 148.936C147.026 149.058 147.108 149.161 147.216 149.231C147.325 149.301 147.453 149.333 147.581 149.322L152.38 148.879C152.515 148.867 152.64 148.808 152.736 148.713C152.831 148.618 152.89 148.492 152.901 148.358L152.99 146.961C152.994 146.879 152.98 146.796 152.95 146.719C152.919 146.642 152.872 146.573 152.813 146.515C152.753 146.458 152.681 146.414 152.603 146.387C152.525 146.36 152.442 146.349 152.359 146.357L147.014 146.847C146.929 146.855 146.848 146.882 146.775 146.926C146.702 146.97 146.64 147.03 146.593 147.101C146.546 147.171 146.516 147.252 146.504 147.336C146.492 147.42 146.499 147.505 146.524 147.587V147.587Z" fill="white"/>
<path d="M157.701 144.013L158.467 155.46H162.057L162.537 144.013H157.701Z" fill="#EBB376"/>
<path d="M162.469 151.989C162.469 151.989 162.375 154.923 162.948 156.439C163.522 157.955 164.319 159.972 161.906 159.972C160.499 159.972 158.004 160.003 155.341 159.805C153.476 159.67 150.896 159.972 150.896 158.966C150.896 157.82 157.873 155.96 157.941 154.865C158.009 153.771 157.941 151.927 157.941 151.927L162.469 151.989Z" fill="#263238"/>
<path d="M174.79 90.3083L173.909 98.3741C173.909 98.3741 156.788 100.703 154.042 104.804C151.296 108.905 157.747 149.255 157.747 149.255H162.535C165.953 126.849 164.176 112.01 164.176 112.01H185.649C199.326 112.01 187.155 90.3083 187.155 90.3083L187.207 85.5146L174.55 86.2441L174.79 90.3083Z" fill="#FFC100"/>
<path opacity="0.3" d="M174.79 90.3083L173.909 98.3741C173.909 98.3741 156.788 100.703 154.042 104.804C151.296 108.905 157.747 149.255 157.747 149.255H162.535C165.953 126.849 164.176 112.01 164.176 112.01H185.649C199.326 112.01 187.155 90.3083 187.155 90.3083L187.207 85.5146L174.55 86.2441L174.79 90.3083Z" fill="white"/>
<path d="M156.872 148.473L157.232 149.947C157.259 150.064 157.326 150.167 157.421 150.241C157.516 150.314 157.633 150.352 157.753 150.349H162.52C162.641 150.351 162.76 150.312 162.855 150.236C162.95 150.161 163.016 150.055 163.041 149.937L163.359 148.457C163.377 148.38 163.376 148.3 163.358 148.222C163.34 148.145 163.304 148.073 163.254 148.012C163.204 147.951 163.14 147.902 163.068 147.869C162.996 147.836 162.917 147.819 162.838 147.821H157.388C157.307 147.82 157.228 147.837 157.155 147.871C157.082 147.905 157.018 147.956 156.968 148.019C156.918 148.082 156.883 148.156 156.867 148.235C156.85 148.313 156.852 148.395 156.872 148.473Z" fill="#FFC100"/>
<path opacity="0.6" d="M156.872 148.473L157.232 149.947C157.259 150.064 157.326 150.167 157.421 150.241C157.516 150.314 157.633 150.352 157.753 150.349H162.52C162.641 150.351 162.76 150.312 162.855 150.236C162.95 150.161 163.016 150.055 163.041 149.937L163.359 148.457C163.377 148.38 163.376 148.3 163.358 148.222C163.34 148.145 163.304 148.073 163.254 148.012C163.204 147.951 163.14 147.902 163.068 147.869C162.996 147.836 162.917 147.819 162.838 147.821H157.388C157.307 147.82 157.228 147.837 157.155 147.871C157.082 147.905 157.018 147.956 156.968 148.019C156.918 148.082 156.883 148.156 156.867 148.235C156.85 148.313 156.852 148.395 156.872 148.473Z" fill="white"/>
<path d="M150.203 85.7069L146.326 86.4624L142.679 85.3943C142.173 85.3257 141.659 85.3879 141.184 85.5749C140.71 85.7619 140.292 86.0675 139.969 86.4624C139.441 87.0933 139.153 87.8906 139.156 88.7134V88.8541H146.654L150.724 88.3069L150.203 85.7069Z" fill="#EBB376"/>
<path d="M171.148 63.2861C171.142 63.1075 171.084 62.9347 170.98 62.7894C170.876 62.6441 170.731 62.5327 170.564 62.4693C170.397 62.4058 170.215 62.3931 170.041 62.4328C169.867 62.4724 169.708 62.5626 169.585 62.6921C168.335 63.9217 166.537 65.3651 165.698 73.1131C164.62 83.0911 147.982 85.5661 147.982 85.5661L148.774 89.2135C148.774 89.2135 161.029 89.6303 166.105 84.3364C172.67 77.5368 171.711 67.3294 171.148 63.2861Z" fill="#FFC100"/>
<path opacity="0.2" d="M171.148 63.2861C171.142 63.1075 171.084 62.9347 170.98 62.7894C170.876 62.6441 170.731 62.5327 170.564 62.4693C170.397 62.4058 170.215 62.3931 170.041 62.4328C169.867 62.4724 169.708 62.5626 169.585 62.6921C168.335 63.9217 166.537 65.3651 165.698 73.1131C164.62 83.0911 147.982 85.5661 147.982 85.5661L148.774 89.2135C148.774 89.2135 161.029 89.6303 166.105 84.3364C172.67 77.5368 171.711 67.3294 171.148 63.2861Z" fill="white"/>
<path d="M186.06 47.1807C184.554 37.088 176.056 40.7249 176.056 40.7249C170.564 42.7049 172.408 49.5255 172.408 53.2301C172.408 56.9348 171.939 58.2165 171.939 58.2165C172.575 58.0759 173.164 57.956 173.732 57.8414L173.93 56.6795L174.274 57.7216C178.89 56.841 181.381 56.8514 182.725 57.1328C183.103 56.4446 183.376 55.7033 183.533 54.9339C183.533 54.9339 184.189 55.3612 183.533 57.3829C184.33 57.7424 184.294 58.2061 184.294 58.2061C184.294 58.2061 187.576 57.2735 186.06 47.1807Z" fill="#263238"/>
<path d="M191.282 62.1136L171.425 61.8791C170.961 61.8719 170.51 62.0299 170.152 62.3249C169.794 62.6199 169.553 63.0326 169.471 63.4892C167.126 76.4529 168.726 75.9944 168.726 75.9944L169.726 91.8603H171.946C172.596 91.8609 173.225 91.6365 173.728 91.2251C174.23 90.8138 174.575 90.2409 174.702 89.6042L174.927 88.4891L175.515 90.0523C175.715 90.583 176.071 91.0407 176.536 91.3653C177.001 91.6899 177.553 91.8661 178.121 91.8707H188.255C187.077 79.6886 190.938 67.9337 192.283 63.5413C192.335 63.3805 192.35 63.2097 192.325 63.0423C192.3 62.875 192.237 62.7157 192.14 62.5771C192.043 62.4386 191.915 62.3245 191.766 62.2441C191.617 62.1636 191.451 62.119 191.282 62.1136Z" fill="#FFC100"/>
<path opacity="0.4" d="M191.282 62.1136L171.425 61.8791C170.961 61.8719 170.51 62.0299 170.152 62.3249C169.794 62.6199 169.553 63.0326 169.471 63.4892C167.126 76.4529 168.726 75.9944 168.726 75.9944L169.726 91.8603H171.946C172.596 91.8609 173.225 91.6365 173.728 91.2251C174.23 90.8138 174.575 90.2409 174.702 89.6042L174.927 88.4891L175.515 90.0523C175.715 90.583 176.071 91.0407 176.536 91.3653C177.001 91.6899 177.553 91.8661 178.121 91.8707H188.255C187.077 79.6886 190.938 67.9337 192.283 63.5413C192.335 63.3805 192.35 63.2097 192.325 63.0423C192.3 62.875 192.237 62.7157 192.14 62.5771C192.043 62.4386 191.915 62.3245 191.766 62.2441C191.617 62.1636 191.451 62.119 191.282 62.1136Z" fill="white"/>
<path d="M147.455 85.5087L148.19 89.3541C148.216 89.4855 148.288 89.6033 148.393 89.6864C148.498 89.7695 148.629 89.8124 148.763 89.8074L149.503 89.7761C149.58 89.7726 149.656 89.7529 149.726 89.7181C149.795 89.6834 149.856 89.6345 149.905 89.5745C149.954 89.5145 149.99 89.4449 150.011 89.3701C150.031 89.2953 150.036 89.2171 150.024 89.1404L149.414 85.045C149.403 84.9643 149.374 84.8871 149.33 84.8188C149.286 84.7504 149.227 84.6926 149.158 84.6494C149.089 84.6062 149.011 84.5786 148.93 84.5686C148.85 84.5587 148.768 84.5665 148.69 84.5917L147.82 84.873C147.693 84.918 147.587 85.0068 147.52 85.1234C147.453 85.24 147.43 85.3767 147.455 85.5087V85.5087Z" fill="#FFC100"/>
<path opacity="0.6" d="M147.455 85.5087L148.19 89.3541C148.216 89.4855 148.288 89.6033 148.393 89.6864C148.498 89.7695 148.629 89.8124 148.763 89.8074L149.503 89.7761C149.58 89.7726 149.656 89.7529 149.726 89.7181C149.795 89.6834 149.856 89.6345 149.905 89.5745C149.954 89.5145 149.99 89.4449 150.011 89.3701C150.031 89.2953 150.036 89.2171 150.024 89.1404L149.414 85.045C149.403 84.9643 149.374 84.8871 149.33 84.8188C149.286 84.7504 149.227 84.6926 149.158 84.6494C149.089 84.6062 149.011 84.5786 148.93 84.5686C148.85 84.5587 148.768 84.5665 148.69 84.5917L147.82 84.873C147.693 84.918 147.587 85.0068 147.52 85.1234C147.453 85.24 147.43 85.3767 147.455 85.5087V85.5087Z" fill="white"/>
<path d="M181.846 52.4746C181.554 55.132 181.461 59.9569 183.441 61.5409C183.441 61.5409 182.685 64.2243 177.594 64.7245C173.978 63.1301 175.323 62.2443 175.323 62.2443C178.173 61.2803 178.449 59.144 177.803 57.1588L181.846 52.4746Z" fill="#EBB376"/>
<path opacity="0.1" d="M181.399 55.4292L180.357 55.1582L179.064 55.6793L177.793 57.1486C177.964 57.653 178.06 58.1796 178.08 58.7118C180.883 58.2845 181.399 55.4292 181.399 55.4292Z" fill="black"/>
<path d="M183.712 46.6024C183.837 50.9845 183.988 52.855 181.992 55.2727C178.986 58.92 173.577 58.1385 172.139 53.8815C170.847 50.0518 170.852 43.5335 174.958 41.4076C175.863 40.9357 176.874 40.7031 177.894 40.7319C178.915 40.7606 179.911 41.0498 180.788 41.5719C181.665 42.094 182.394 42.8317 182.906 43.7149C183.418 44.5981 183.695 45.5975 183.712 46.6181V46.6024Z" fill="#EBB376"/>
<path d="M185.055 49.9528C184.887 50.7844 184.396 51.5153 183.69 51.9849C182.746 52.5997 181.939 51.839 181.918 50.7709C181.918 49.8173 182.371 48.3428 183.45 48.1656C183.686 48.1323 183.926 48.1577 184.15 48.2396C184.374 48.3215 184.574 48.4574 184.733 48.6352C184.892 48.813 185.004 49.0273 185.06 49.2589C185.116 49.4906 185.114 49.7325 185.055 49.9632V49.9528Z" fill="#EBB376"/>
<path d="M174.327 49.2959C174.088 50.1326 173.737 50.9335 173.285 51.6771C173.477 51.7907 173.691 51.8609 173.912 51.8825C174.134 51.9041 174.357 51.8767 174.567 51.8021L174.327 49.2959Z" fill="#D58745"/>
<path d="M177.272 46.7902C177.303 46.7809 177.33 46.7628 177.35 46.7381C177.382 46.7051 177.4 46.6612 177.4 46.6156C177.4 46.57 177.382 46.5261 177.35 46.4932V46.4932C177.116 46.2683 176.83 46.1035 176.518 46.0128C176.206 45.9221 175.877 45.9081 175.558 45.9721C175.513 45.9844 175.475 46.0136 175.452 46.0535C175.429 46.0934 175.422 46.1409 175.433 46.1858C175.444 46.23 175.472 46.268 175.511 46.2914C175.55 46.3149 175.597 46.3219 175.641 46.3108C175.906 46.2642 176.179 46.281 176.436 46.3598C176.693 46.4386 176.928 46.5771 177.121 46.7641C177.143 46.7792 177.168 46.7893 177.194 46.7938C177.22 46.7983 177.247 46.7971 177.272 46.7902Z" fill="#2E353A"/>
<path d="M171.155 47.1805C171.125 47.1748 171.096 47.1623 171.071 47.144C171.053 47.1298 171.038 47.1122 171.027 47.0921C171.016 47.072 171.009 47.0499 171.007 47.0271C171.004 47.0043 171.007 46.9812 171.013 46.9592C171.02 46.9372 171.031 46.9168 171.045 46.8992C171.246 46.642 171.506 46.4368 171.802 46.3008C172.099 46.1648 172.423 46.1019 172.749 46.1176C172.794 46.1241 172.835 46.1477 172.864 46.1836C172.892 46.2196 172.905 46.265 172.9 46.3104C172.895 46.3551 172.873 46.396 172.837 46.4242C172.802 46.4525 172.758 46.4659 172.713 46.4615C172.443 46.4531 172.176 46.5087 171.932 46.6237C171.689 46.7388 171.476 46.9099 171.311 47.1232C171.292 47.1456 171.268 47.1627 171.241 47.1728C171.213 47.1828 171.184 47.1855 171.155 47.1805Z" fill="#2E353A"/>
<path d="M176.776 48.4831C176.813 48.8374 176.646 49.1396 176.412 49.1657C176.177 49.1917 175.969 48.9208 175.937 48.5613C175.906 48.2017 176.068 47.9047 176.297 47.8787C176.526 47.8526 176.745 48.1236 176.776 48.4831Z" fill="#2E353A"/>
<path d="M172.764 48.8478C172.8 49.1969 172.634 49.5043 172.404 49.5251C172.175 49.546 171.961 49.275 171.925 48.9207C171.888 48.5664 172.055 48.2642 172.284 48.2434C172.514 48.2225 172.738 48.483 172.764 48.8478Z" fill="#2E353A"/>
<path d="M172.388 48.2488L171.518 48.082C171.518 48.082 172.013 48.7073 172.388 48.2488Z" fill="#2E353A"/>
<path d="M176.399 47.8835L175.529 47.7168C175.529 47.7168 176.024 48.3421 176.399 47.8835Z" fill="#2E353A"/>
<path d="M174.348 53.2088C174.882 53.2753 175.424 53.2194 175.933 53.0451C176.442 52.8709 176.905 52.5829 177.286 52.2031C177.286 52.2031 178.589 54.5739 175.077 54.9595C175.021 54.3144 174.766 53.7027 174.348 53.2088Z" fill="#263238"/>
<path d="M174.662 53.2351L174.917 53.7562C174.917 53.7562 176.574 53.7562 177.455 52.6151C177.413 52.466 177.357 52.3212 177.288 52.1826C176.947 52.5298 176.537 52.8025 176.085 52.9837C175.633 53.1648 175.149 53.2504 174.662 53.2351Z" fill="white"/>
<path d="M175.316 54.9239C177.036 54.6738 177.484 53.8818 177.52 53.2461C175.822 53.6942 175.41 54.5435 175.316 54.9239Z" fill="#DE5753"/>
<path d="M176.058 43.1169C175.741 43.7047 175.29 44.2093 174.741 44.5896C174.193 44.9699 173.562 45.2151 172.9 45.3053C170.535 45.7169 171.379 51.8913 171.379 51.8913C171.379 51.8913 166.267 39.4278 177.397 40.3136L176.058 43.1169Z" fill="#263238"/>
<path d="M177.677 40.5527C177.491 40.5105 177.299 40.5074 177.113 40.5435C176.927 40.5797 176.75 40.6543 176.594 40.7627C176.438 40.8711 176.306 41.0108 176.207 41.1729C176.108 41.335 176.045 41.516 176.02 41.7043C175.889 42.7464 176.108 44.049 177.791 44.5909C180.766 45.5444 180.49 48.6915 180.49 48.6915L181.011 46.3572C181.011 46.3572 181.178 49.6919 182.856 49.2959C184.534 48.9 184.7 45.7528 184.7 45.7528L181.928 41.5115L177.677 40.5527Z" fill="#263238"/>
<path d="M175.792 61.3896C175.83 61.374 175.872 61.3693 175.913 61.376C175.953 61.3826 175.991 61.4004 176.023 61.4274C176.054 61.4543 176.077 61.4894 176.09 61.5287C176.102 61.568 176.104 61.61 176.094 61.6501C175.896 62.5098 175.724 64.3752 177.991 64.3752C180.257 64.3752 182.294 62.5255 183.165 61.6345C183.297 61.4988 183.467 61.4051 183.652 61.3653C183.837 61.3254 184.03 61.3411 184.207 61.4104L184.801 61.6449C184.863 61.6699 184.92 61.7083 184.966 61.7573C185.012 61.8064 185.047 61.8649 185.069 61.9289C185.09 61.9929 185.097 62.0608 185.09 62.1278C185.082 62.1949 185.06 62.2594 185.025 62.317C184.019 63.9844 180.414 69.2991 177.501 64.99C177.501 64.99 175.807 67.5953 174.765 65.2662C174.382 64.3864 174.3 63.4047 174.531 62.4733C174.58 62.2674 174.679 62.0767 174.819 61.9177C174.959 61.7588 175.135 61.6365 175.333 61.5615L175.792 61.3896Z" fill="#FFC100"/>
<path opacity="0.6" d="M175.792 61.3896C175.83 61.374 175.872 61.3693 175.913 61.376C175.953 61.3826 175.991 61.4004 176.023 61.4274C176.054 61.4543 176.077 61.4894 176.09 61.5287C176.102 61.568 176.104 61.61 176.094 61.6501C175.896 62.5098 175.724 64.3752 177.991 64.3752C180.257 64.3752 182.294 62.5255 183.165 61.6345C183.297 61.4988 183.467 61.4051 183.652 61.3653C183.837 61.3254 184.03 61.3411 184.207 61.4104L184.801 61.6449C184.863 61.6699 184.92 61.7083 184.966 61.7573C185.012 61.8064 185.047 61.8649 185.069 61.9289C185.09 61.9929 185.097 62.0608 185.09 62.1278C185.082 62.1949 185.06 62.2594 185.025 62.317C184.019 63.9844 180.414 69.2991 177.501 64.99C177.501 64.99 175.807 67.5953 174.765 65.2662C174.382 64.3864 174.3 63.4047 174.531 62.4733C174.58 62.2674 174.679 62.0767 174.819 61.9177C174.959 61.7588 175.135 61.6365 175.333 61.5615L175.792 61.3896Z" fill="white"/>
<path d="M165.594 64.5426C165.664 64.4885 165.745 64.4494 165.831 64.4277C165.917 64.4061 166.006 64.4024 166.094 64.4168C166.181 64.4313 166.265 64.4636 166.339 64.5117C166.414 64.5598 166.477 64.6227 166.527 64.6965C166.576 64.7703 166.609 64.8534 166.625 64.9407C166.64 65.028 166.638 65.1175 166.617 65.2037C166.597 65.29 166.559 65.3711 166.505 65.442C166.452 65.5129 166.385 65.5721 166.308 65.6159L156.882 71.8685C156.812 71.915 156.733 71.9472 156.65 71.9633C156.567 71.9793 156.482 71.9788 156.399 71.9619C156.232 71.9277 156.085 71.8285 155.991 71.6861C155.897 71.5438 155.864 71.37 155.898 71.2029C155.932 71.0358 156.031 70.8891 156.174 70.7952L165.594 64.5426Z" fill="#263238"/>
<path opacity="0.6" d="M165.594 64.5426C165.664 64.4885 165.745 64.4494 165.831 64.4277C165.917 64.4061 166.006 64.4024 166.094 64.4168C166.181 64.4313 166.265 64.4636 166.339 64.5117C166.414 64.5598 166.477 64.6227 166.527 64.6965C166.576 64.7703 166.609 64.8534 166.625 64.9407C166.64 65.028 166.638 65.1175 166.617 65.2037C166.597 65.29 166.559 65.3711 166.505 65.442C166.452 65.5129 166.385 65.5721 166.308 65.6159L156.882 71.8685C156.812 71.915 156.733 71.9472 156.65 71.9633C156.567 71.9793 156.482 71.9788 156.399 71.9619C156.232 71.9277 156.085 71.8285 155.991 71.6861C155.897 71.5438 155.864 71.37 155.898 71.2029C155.932 71.0358 156.031 70.8891 156.174 70.7952L165.594 64.5426Z" fill="white"/>
<path d="M156.174 70.7786C155.875 71.0884 155.622 71.4393 155.423 71.8207C155.404 71.8536 155.395 71.8911 155.397 71.9289C155.398 71.9667 155.41 72.0034 155.431 72.0349C155.452 72.0663 155.482 72.0912 155.516 72.1067C155.551 72.1223 155.589 72.1279 155.626 72.1229C156.056 72.0911 156.479 71.9981 156.882 71.8468C156.953 71.8002 157.013 71.7403 157.061 71.6703C157.108 71.6004 157.141 71.5218 157.158 71.439C157.175 71.3563 157.175 71.271 157.159 71.1881C157.143 71.1052 157.111 71.0263 157.065 70.9558C157.018 70.8853 156.958 70.8247 156.888 70.7774C156.818 70.7301 156.74 70.697 156.657 70.6801C156.574 70.6631 156.489 70.6626 156.406 70.6787C156.323 70.6947 156.244 70.7269 156.174 70.7734V70.7786Z" fill="#263238"/>
<path opacity="0.8" d="M156.174 70.7786C155.875 71.0884 155.622 71.4393 155.423 71.8207C155.404 71.8536 155.395 71.8911 155.397 71.9289C155.398 71.9667 155.41 72.0034 155.431 72.0349C155.452 72.0663 155.482 72.0912 155.516 72.1067C155.551 72.1223 155.589 72.1279 155.626 72.1229C156.056 72.0911 156.479 71.9981 156.882 71.8468C156.953 71.8002 157.013 71.7403 157.061 71.6703C157.108 71.6004 157.141 71.5218 157.158 71.439C157.175 71.3563 157.175 71.271 157.159 71.1881C157.143 71.1052 157.111 71.0263 157.065 70.9558C157.018 70.8853 156.958 70.8247 156.888 70.7774C156.818 70.7301 156.74 70.697 156.657 70.6801C156.574 70.6631 156.489 70.6626 156.406 70.6787C156.323 70.6947 156.244 70.7269 156.174 70.7734V70.7786Z" fill="white"/>
<path d="M169.188 74.9426L165.076 72.0612L164.128 68.1169C164.04 67.7359 163.847 67.3874 163.571 67.111C163.294 66.8346 162.946 66.6415 162.565 66.5537V66.5537C162.071 66.4416 161.554 66.513 161.109 66.7546C160.664 66.9963 160.322 67.3916 160.147 67.8668L159.829 68.7213C159.744 68.9533 159.7 69.1984 159.699 69.4455V70.1698C159.699 70.6906 159.895 71.1925 160.246 71.5766L160.809 72.1915C160.96 72.3552 161.136 72.4942 161.33 72.6031L163.769 73.963L167.619 77.8084L169.188 74.9426Z" fill="#EBB376"/>
<path d="M190.215 63.2601C190.308 62.9994 190.467 62.7673 190.677 62.5869C190.886 62.4064 191.139 62.2838 191.411 62.2312C191.682 62.1785 191.963 62.1977 192.225 62.2868C192.487 62.3758 192.721 62.5317 192.904 62.739C193.774 63.8124 194.274 65.8653 192.789 69.9139C189.825 77.9641 185.104 84.2844 179.19 84.2844C172.177 84.2844 165.08 76.1664 165.08 76.1664L167.539 73.2694C167.539 73.2694 174.662 78.0995 179.414 78.0995C182.129 78.1204 186.537 72.8474 190.215 63.2601Z" fill="#FFC100"/>
<path opacity="0.2" d="M190.215 63.2601C190.308 62.9994 190.467 62.7673 190.677 62.5869C190.886 62.4064 191.139 62.2838 191.411 62.2312C191.682 62.1785 191.963 62.1977 192.225 62.2868C192.487 62.3758 192.721 62.5317 192.904 62.739C193.774 63.8124 194.274 65.8653 192.789 69.9139C189.825 77.9641 185.104 84.2844 179.19 84.2844C172.177 84.2844 165.08 76.1664 165.08 76.1664L167.539 73.2694C167.539 73.2694 174.662 78.0995 179.414 78.0995C182.129 78.1204 186.537 72.8474 190.215 63.2601Z" fill="white"/>
<path d="M164.466 75.8692L167.238 72.5241C167.285 72.4679 167.351 72.4317 167.424 72.4229C167.496 72.4142 167.57 72.4336 167.629 72.4772L168.816 73.3421C168.848 73.3652 168.875 73.3946 168.896 73.4285C168.916 73.4624 168.929 73.5001 168.933 73.5392C168.938 73.5783 168.935 73.618 168.924 73.6558C168.913 73.6937 168.894 73.7288 168.869 73.759L165.742 77.5157C165.714 77.5509 165.677 77.5788 165.636 77.5972C165.594 77.6155 165.549 77.6237 165.504 77.6212C165.459 77.6186 165.415 77.6054 165.375 77.5825C165.336 77.5597 165.303 77.5279 165.279 77.4897L164.434 76.2131C164.402 76.1599 164.388 76.0979 164.394 76.036C164.399 75.9742 164.425 75.9158 164.466 75.8692V75.8692Z" fill="#FFC100"/>
<path opacity="0.6" d="M164.466 75.8692L167.238 72.5241C167.285 72.4679 167.351 72.4317 167.424 72.4229C167.496 72.4142 167.57 72.4336 167.629 72.4772L168.816 73.3421C168.848 73.3652 168.875 73.3946 168.896 73.4285C168.916 73.4624 168.929 73.5001 168.933 73.5392C168.938 73.5783 168.935 73.618 168.924 73.6558C168.913 73.6937 168.894 73.7288 168.869 73.759L165.742 77.5157C165.714 77.5509 165.677 77.5788 165.636 77.5972C165.594 77.6155 165.549 77.6237 165.504 77.6212C165.459 77.6186 165.415 77.6054 165.375 77.5825C165.336 77.5597 165.303 77.5279 165.279 77.4897L164.434 76.2131C164.402 76.1599 164.388 76.0979 164.394 76.036C164.399 75.9742 164.425 75.9158 164.466 75.8692V75.8692Z" fill="white"/>
<path d="M177.26 40.2715H176.285V40.308C178.078 40.4959 179.738 41.3411 180.944 42.6804C182.151 44.0197 182.819 45.7583 182.819 47.561H184.549C184.548 45.6281 183.779 43.7748 182.412 42.408C181.046 41.0413 179.192 40.2729 177.26 40.2715V40.2715Z" fill="#263238"/>
<path opacity="0.6" d="M177.26 40.2715H176.285V40.308C178.078 40.4959 179.738 41.3411 180.944 42.6804C182.151 44.0197 182.819 45.7583 182.819 47.561H184.549C184.548 45.6281 183.779 43.7748 182.412 42.408C181.046 41.0413 179.192 40.2729 177.26 40.2715V40.2715Z" fill="white"/>
<path d="M183.711 53.2503C185.018 53.2503 186.077 51.8343 186.077 50.0876C186.077 48.3408 185.018 46.9248 183.711 46.9248C182.405 46.9248 181.346 48.3408 181.346 50.0876C181.346 51.8343 182.405 53.2503 183.711 53.2503Z" fill="#FFC100"/>
<path d="M186.347 50.0881C186.347 51.5001 185.92 52.1723 184.784 52.1723C183.648 52.1723 183.221 51.5106 183.221 50.0881C183.221 48.6656 183.653 48.0039 184.784 48.0039C185.915 48.0039 186.347 48.6708 186.347 50.0881Z" fill="#263238"/>
<path opacity="0.5" d="M186.347 50.0881C186.347 51.5001 185.92 52.1723 184.784 52.1723C183.648 52.1723 183.221 51.5106 183.221 50.0881C183.221 48.6656 183.653 48.0039 184.784 48.0039C185.915 48.0039 186.347 48.6708 186.347 50.0881Z" fill="white"/>
<path d="M185.128 51.969C185.904 51.969 186.534 51.1269 186.534 50.088C186.534 49.0492 185.904 48.207 185.128 48.207C184.351 48.207 183.721 49.0492 183.721 50.088C183.721 51.1269 184.351 51.969 185.128 51.969Z" fill="#263238"/>
<path opacity="0.7" d="M185.128 51.969C185.904 51.969 186.534 51.1269 186.534 50.088C186.534 49.0492 185.904 48.207 185.128 48.207C184.351 48.207 183.721 49.0492 183.721 50.088C183.721 51.1269 184.351 51.969 185.128 51.969Z" fill="white"/>
<path d="M88.6213 159.973H86.1254L85.0312 94.6855H89.7155L88.6213 159.973Z" fill="#263238"/>
<path opacity="0.7" d="M88.6213 159.973H86.1254L85.0312 94.6855H89.7155L88.6213 159.973Z" fill="white"/>
<path d="M116.187 159.973H113.686L112.592 94.6855H117.281L116.187 159.973Z" fill="#263238"/>
<path opacity="0.7" d="M116.187 159.973H113.686L112.592 94.6855H117.281L116.187 159.973Z" fill="white"/>
<path d="M134.493 93.5908H87.3691V98.6971H134.493V93.5908Z" fill="#263238"/>
<path opacity="0.5" d="M134.493 93.5908H87.3691V98.6971H134.493V93.5908Z" fill="white"/>
<path d="M162.134 93.5908H134.498V98.6971H162.134V93.5908Z" fill="#263238"/>
<path opacity="0.5" d="M162.134 93.5908H134.498V98.6971H162.134V93.5908Z" fill="white"/>
<path d="M163.312 159.973H160.811L159.717 94.6855H164.401L163.312 159.973Z" fill="#263238"/>
<path opacity="0.7" d="M163.312 159.973H160.811L159.717 94.6855H164.401L163.312 159.973Z" fill="white"/>
<path d="M165.88 90.3086H129.084C128.321 90.3086 127.703 90.9268 127.703 91.6894V93.3046C127.703 94.0672 128.321 94.6854 129.084 94.6854H165.88C166.643 94.6854 167.261 94.0672 167.261 93.3046V91.6894C167.261 90.9268 166.643 90.3086 165.88 90.3086Z" fill="#263238"/>
<path d="M132.482 90.3086H82.5292C81.7666 90.3086 81.1484 90.9268 81.1484 91.6894V93.3046C81.1484 94.0672 81.7666 94.6854 82.5292 94.6854H132.482C133.245 94.6854 133.863 94.0672 133.863 93.3046V91.6894C133.863 90.9268 133.245 90.3086 132.482 90.3086Z" fill="#263238"/>
<path opacity="0.2" d="M132.482 90.3086H82.5292C81.7666 90.3086 81.1484 90.9268 81.1484 91.6894V93.3046C81.1484 94.0672 81.7666 94.6854 82.5292 94.6854H132.482C133.245 94.6854 133.863 94.0672 133.863 93.3046V91.6894C133.863 90.9268 133.245 90.3086 132.482 90.3086Z" fill="white"/>
<path d="M135.744 159.973H133.248L132.154 94.6855H136.839L135.744 159.973Z" fill="#263238"/>
<path opacity="0.7" d="M135.744 159.973H133.248L132.154 94.6855H136.839L135.744 159.973Z" fill="white"/>
<path d="M134.431 90.3134C134.237 90.3134 134.052 90.2366 133.915 90.0998C133.778 89.963 133.701 89.7774 133.701 89.584C133.701 89.3905 133.778 89.2049 133.915 89.0681C134.052 88.9313 134.237 88.8545 134.431 88.8545H154.309C154.502 88.8545 154.688 88.9313 154.824 89.0681C154.961 89.2049 155.038 89.3905 155.038 89.584C155.038 89.7774 154.961 89.963 154.824 90.0998C154.688 90.2366 154.502 90.3134 154.309 90.3134H134.431Z" fill="#FFC100"/>
<path d="M136.141 89.0529L133.494 70.2222C133.439 69.8795 133.265 69.567 133.003 69.3386C132.742 69.1103 132.409 68.9805 132.062 68.9717H129.529V90.3086H135.063C135.223 90.3177 135.382 90.2898 135.53 90.2271C135.677 90.1644 135.808 90.0687 135.912 89.9472C136.017 89.8258 136.092 89.6819 136.131 89.5268C136.171 89.3717 136.174 89.2095 136.141 89.0529Z" fill="#FFC100"/>
<path d="M133.967 90.3083H111.504C111.157 90.299 110.824 90.1683 110.563 89.9389C110.302 89.7094 110.13 89.3958 110.077 89.0526L107.43 70.2218C107.397 70.0656 107.402 69.904 107.442 69.7496C107.482 69.5952 107.557 69.452 107.661 69.3312C107.765 69.2104 107.896 69.1151 108.043 69.0527C108.19 68.9903 108.349 68.9625 108.508 68.9713H130.981C131.328 68.9812 131.66 69.1113 131.922 69.3395C132.183 69.5676 132.357 69.8795 132.414 70.2218L135.061 89.0526C135.094 89.2106 135.091 89.3742 135.05 89.5306C135.01 89.6869 134.933 89.8317 134.827 89.9535C134.721 90.0753 134.588 90.1707 134.439 90.2323C134.289 90.2939 134.128 90.3199 133.967 90.3083V90.3083Z" fill="#FFC100"/>
<path opacity="0.7" d="M133.967 90.3083H111.504C111.157 90.299 110.824 90.1683 110.563 89.9389C110.302 89.7094 110.13 89.3958 110.077 89.0526L107.43 70.2218C107.397 70.0656 107.402 69.904 107.442 69.7496C107.482 69.5952 107.557 69.452 107.661 69.3312C107.765 69.2104 107.896 69.1151 108.043 69.0527C108.19 68.9903 108.349 68.9625 108.508 68.9713H130.981C131.328 68.9812 131.66 69.1113 131.922 69.3395C132.183 69.5676 132.357 69.8795 132.414 70.2218L135.061 89.0526C135.094 89.2106 135.091 89.3742 135.05 89.5306C135.01 89.6869 134.933 89.8317 134.827 89.9535C134.721 90.0753 134.588 90.1707 134.439 90.2323C134.289 90.2939 134.128 90.3199 133.967 90.3083V90.3083Z" fill="white"/>
<path opacity="0.7" d="M122.326 79.1261C122.351 79.2686 122.345 79.4149 122.307 79.5546C122.269 79.6942 122.2 79.8236 122.106 79.9334C122.011 80.0431 121.894 80.1305 121.761 80.1892C121.629 80.2478 121.485 80.2763 121.341 80.2725C121.024 80.2622 120.72 80.1424 120.482 79.9333C120.243 79.7243 120.085 79.439 120.033 79.1261C120.007 78.9837 120.014 78.8374 120.052 78.6977C120.09 78.5581 120.159 78.4287 120.253 78.3189C120.347 78.2091 120.465 78.1218 120.597 78.0631C120.729 78.0045 120.873 77.976 121.018 77.9798C121.335 77.9881 121.64 78.1072 121.879 78.3166C122.118 78.526 122.276 78.8124 122.326 79.1261V79.1261Z" fill="white"/>
<path d="M103.039 79.4648H94.3585C94.2206 79.465 94.0844 79.4953 93.9595 79.5538C93.8346 79.6122 93.724 79.6974 93.6356 79.8032C93.5472 79.909 93.483 80.0329 93.4477 80.1662C93.4124 80.2995 93.4067 80.4389 93.4311 80.5747V80.6528C92.9979 80.545 92.5434 80.5594 92.118 80.6945C90.5549 81.1635 90.508 82.5599 90.9769 84.1282C91.4459 85.6966 92.2483 86.8377 93.8166 86.3687C94.069 86.2916 94.3093 86.1793 94.5305 86.0353C94.8413 86.7691 95.3456 87.4048 95.9894 87.8746V89.0209H101.377V87.8746C102.284 87.2171 102.904 86.2357 103.107 85.1339L103.951 80.5747C103.975 80.4402 103.97 80.3021 103.935 80.17C103.901 80.0378 103.838 79.9146 103.752 79.8091C103.665 79.7036 103.556 79.6181 103.433 79.5587C103.31 79.4992 103.176 79.4672 103.039 79.4648V79.4648ZM93.6134 85.3735C92.5713 85.681 92.0503 84.9307 91.7481 83.899C91.4459 82.8673 91.4719 81.9555 92.4984 81.648C92.8765 81.5232 93.2886 81.5532 93.6447 81.7314L94.2543 85.0244C94.0688 85.1863 93.85 85.3054 93.6134 85.3735Z" fill="#FFC100"/>
<path opacity="0.5" d="M103.039 79.4648H94.3585C94.2206 79.465 94.0844 79.4953 93.9595 79.5538C93.8346 79.6122 93.724 79.6974 93.6356 79.8032C93.5472 79.909 93.483 80.0329 93.4477 80.1662C93.4124 80.2995 93.4067 80.4389 93.4311 80.5747V80.6528C92.9979 80.545 92.5434 80.5594 92.118 80.6945C90.5549 81.1635 90.508 82.5599 90.9769 84.1282C91.4459 85.6966 92.2483 86.8377 93.8166 86.3687C94.069 86.2916 94.3093 86.1793 94.5305 86.0353C94.8413 86.7691 95.3456 87.4048 95.9894 87.8746V89.0209H101.377V87.8746C102.284 87.2171 102.904 86.2357 103.107 85.1339L103.951 80.5747C103.975 80.4402 103.97 80.3021 103.935 80.17C103.901 80.0378 103.838 79.9146 103.752 79.8091C103.665 79.7036 103.556 79.6181 103.433 79.5587C103.31 79.4992 103.176 79.4672 103.039 79.4648V79.4648ZM93.6134 85.3735C92.5713 85.681 92.0503 84.9307 91.7481 83.899C91.4459 82.8673 91.4719 81.9555 92.4984 81.648C92.8765 81.5232 93.2886 81.5532 93.6447 81.7314L94.2543 85.0244C94.0688 85.1863 93.85 85.3054 93.6134 85.3735Z" fill="white"/>
<path d="M101.605 90.371H95.7744C95.4108 90.3721 95.0527 90.2825 94.7323 90.1105L92.7524 89.0267C92.6756 88.9832 92.6153 88.9157 92.5808 88.8345C92.5463 88.7534 92.5395 88.6631 92.5615 88.5777C92.5834 88.4923 92.6329 88.4165 92.7022 88.362C92.7716 88.3075 92.857 88.2774 92.9452 88.2764H104.408C104.496 88.2774 104.582 88.3075 104.651 88.362C104.721 88.4165 104.77 88.4923 104.792 88.5777C104.814 88.6631 104.807 88.7534 104.773 88.8345C104.738 88.9157 104.678 88.9832 104.601 89.0267L102.621 90.1105C102.308 90.2784 101.96 90.3678 101.605 90.371V90.371Z" fill="#FFC100"/>
<path opacity="0.4" d="M101.605 90.371H95.7744C95.4108 90.3721 95.0527 90.2825 94.7323 90.1105L92.7524 89.0267C92.6756 88.9832 92.6153 88.9157 92.5808 88.8345C92.5463 88.7534 92.5395 88.6631 92.5615 88.5777C92.5834 88.4923 92.6329 88.4165 92.7022 88.362C92.7716 88.3075 92.857 88.2774 92.9452 88.2764H104.408C104.496 88.2774 104.582 88.3075 104.651 88.362C104.721 88.4165 104.77 88.4923 104.792 88.5777C104.814 88.6631 104.807 88.7534 104.773 88.8345C104.738 88.9157 104.678 88.9832 104.601 89.0267L102.621 90.1105C102.308 90.2784 101.96 90.3678 101.605 90.371V90.371Z" fill="white"/>
<path d="M140.459 17.3721H105.992C104.484 17.3721 103.262 18.5945 103.262 20.1024V47.5043C103.262 49.0122 104.484 50.2346 105.992 50.2346H140.459C141.967 50.2346 143.19 49.0122 143.19 47.5043V20.1024C143.19 18.5945 141.967 17.3721 140.459 17.3721Z" fill="#FFC100"/>
<path opacity="0.6" d="M140.459 17.3721H105.992C104.484 17.3721 103.262 18.5945 103.262 20.1024V47.5043C103.262 49.0122 104.484 50.2346 105.992 50.2346H140.459C141.967 50.2346 143.19 49.0122 143.19 47.5043V20.1024C143.19 18.5945 141.967 17.3721 140.459 17.3721Z" fill="white"/>
<path d="M121.837 23.5414C121.837 23.5414 118.867 22.02 117.356 25.3651C115.845 28.7102 112.026 26.699 113.631 33.4778C115.236 40.2567 108.379 37.9536 111.677 42.9036C114.975 47.8536 120.014 44.4668 122.775 44.5553C125.537 44.6439 130.872 46.379 132.154 43.2944C133.436 40.2098 131.242 39.1729 131.195 37.5003C131.148 35.8278 133.926 31.8209 131.675 30.0077C127.558 26.6729 129.179 21.6709 121.837 23.5414Z" fill="#2E353A"/>
<path d="M122.776 40.7826C126.35 40.7826 129.248 37.0757 129.248 32.5031C129.248 27.9305 126.35 24.2236 122.776 24.2236C119.202 24.2236 116.305 27.9305 116.305 32.5031C116.305 37.0757 119.202 40.7826 122.776 40.7826Z" fill="#B97964"/>
<path d="M123.214 32.8779C123.369 33.6402 123.63 34.3768 123.99 35.0663C123.813 35.1542 123.618 35.2021 123.42 35.2066C123.222 35.2111 123.025 35.1721 122.844 35.0924L123.214 32.8779Z" fill="#A24E3F"/>
<path d="M120.363 32.9045C120.363 33.2067 120.483 33.4621 120.681 33.4777C120.879 33.4933 121.051 33.2536 121.072 32.9566C121.093 32.6596 120.947 32.4043 120.754 32.3939C120.561 32.3835 120.363 32.6075 120.363 32.9045Z" fill="#2E353A"/>
<path d="M119.283 31.8467C119.256 31.8519 119.228 31.8519 119.2 31.8467C119.169 31.8123 119.152 31.7678 119.152 31.7216C119.152 31.6755 119.169 31.631 119.2 31.5966C119.381 31.3811 119.61 31.2112 119.869 31.1008C120.128 30.9903 120.409 30.9424 120.69 30.9609C120.737 30.9686 120.779 30.9941 120.807 31.032C120.835 31.0699 120.847 31.1173 120.841 31.1641C120.839 31.1873 120.832 31.2097 120.82 31.23C120.809 31.2502 120.793 31.268 120.775 31.2821C120.756 31.2962 120.735 31.3065 120.713 31.3122C120.69 31.3178 120.666 31.3189 120.643 31.3152V31.3152C120.421 31.3029 120.198 31.3437 119.994 31.4343C119.791 31.5249 119.611 31.6627 119.471 31.8363C119.444 31.8549 119.412 31.8657 119.379 31.8675C119.346 31.8693 119.313 31.8621 119.283 31.8467Z" fill="#2E353A"/>
<path d="M125.765 32.9045C125.765 33.2067 125.64 33.4621 125.442 33.4777C125.244 33.4933 125.072 33.2536 125.051 32.9566C125.03 32.6596 125.176 32.4043 125.374 32.3939C125.572 32.3835 125.744 32.6075 125.765 32.9045Z" fill="#2E353A"/>
<path d="M126.839 31.8469C126.868 31.8521 126.898 31.8521 126.927 31.8469C126.958 31.8125 126.975 31.7679 126.975 31.7218C126.975 31.6757 126.958 31.6311 126.927 31.5967C126.747 31.3809 126.517 31.2108 126.258 31.1004C126 30.9899 125.718 30.9422 125.437 30.9611C125.391 30.9699 125.35 30.9957 125.322 31.0333C125.294 31.0709 125.281 31.1176 125.286 31.1643C125.289 31.1876 125.297 31.2102 125.309 31.2305C125.321 31.2508 125.337 31.2685 125.356 31.2826C125.375 31.2966 125.396 31.3068 125.419 31.3124C125.442 31.3181 125.466 31.3191 125.489 31.3154V31.3154C125.712 31.3039 125.934 31.3451 126.138 31.4357C126.342 31.5262 126.521 31.6635 126.662 31.8364C126.687 31.8547 126.717 31.8653 126.749 31.8672C126.78 31.869 126.811 31.862 126.839 31.8469Z" fill="#2E353A"/>
<path d="M123.217 37.4998C123.392 37.4988 123.566 37.4831 123.738 37.4529C123.763 37.4479 123.784 37.4338 123.799 37.4135C123.813 37.3932 123.82 37.3682 123.816 37.3435V37.3435C123.815 37.3311 123.81 37.3192 123.804 37.3085C123.797 37.2979 123.788 37.2886 123.778 37.2813C123.768 37.274 123.756 37.2689 123.744 37.2661C123.732 37.2634 123.719 37.2631 123.707 37.2653C123.312 37.3401 122.906 37.3226 122.519 37.2142C122.132 37.1057 121.775 36.9092 121.477 36.6401C121.459 36.6229 121.434 36.6133 121.409 36.6133C121.384 36.6133 121.36 36.6229 121.341 36.6401C121.332 36.6488 121.325 36.6594 121.32 36.671C121.315 36.6826 121.312 36.6952 121.312 36.7078C121.312 36.7205 121.315 36.733 121.32 36.7446C121.325 36.7563 121.332 36.7668 121.341 36.7756C121.849 37.2519 122.522 37.5117 123.217 37.4998V37.4998Z" fill="#2E353A"/>
<path d="M122.17 46.1959C124.78 46.1606 127.341 45.4823 129.627 44.2211C128.797 44.0654 127.954 43.9852 127.11 43.9815C125.747 44.7309 124.209 45.1015 122.655 45.0548C119.852 45.0548 118.341 43.9815 118.341 43.9815C117.719 43.9809 117.098 44.0174 116.48 44.0909C117.299 44.8985 119.086 46.1959 122.17 46.1959Z" fill="#577AFB"/>
<path d="M126.377 44.9088L127.559 44.1585C126.951 44.0689 126.373 43.8329 125.876 43.4708C124.35 42.3297 125.178 39.417 125.178 39.417H120.796C120.692 41.1625 120.739 42.7048 119.754 43.4291C119.173 43.8772 118.466 44.1323 117.732 44.1585L119.296 45.0912C119.197 45.3101 120.338 45.7217 120.338 45.7217L124.688 45.9666L125.522 45.4455C125.522 45.4455 126.616 45.2371 126.377 44.9088Z" fill="#B97964"/>
<path d="M118.341 43.9819C118.341 43.9819 119.852 45.0552 122.655 45.0552C124.21 45.1019 125.748 44.7313 127.11 43.9819C127.11 43.9819 135.796 43.8099 135.796 50.2345H110.697C110.697 50.2345 109.572 43.9819 118.341 43.9819Z" fill="#FFC100"/>
<path d="M115.949 30.9345C115.949 30.9345 116.236 33.7169 117.148 33.6232C118.059 33.5294 117.419 29.2359 119.138 28.9337C120.857 28.6315 121.837 28.2511 121.905 27.1726C121.973 26.094 124.64 26.8495 124.281 25.4792C125.198 25.8828 125.93 26.6152 126.334 27.5321C127.079 29.1265 127.287 28.3137 127.834 29.4235C128.381 30.5333 128.876 33.8055 129.752 31.4139C130.627 29.0223 128.381 27.011 128.381 27.011L126.396 24.6663L124.541 24.2443L122.952 23.916H120.821L119.393 24.2443L117.356 26.4275L116.106 28.5742L115.949 30.9345Z" fill="#2E353A"/>
<path d="M117.043 32.9151C117.533 33.8634 117.439 34.9524 116.835 35.3484C116.23 35.7444 115.339 35.2859 114.855 34.3376C114.37 33.3893 114.459 32.3003 115.063 31.9043C115.668 31.5083 116.559 31.9668 117.043 32.9151Z" fill="#B97964"/>
<path d="M128.146 32.9151C127.656 33.8634 127.755 34.9524 128.359 35.3484C128.964 35.7444 129.85 35.2859 130.339 34.3376C130.829 33.3893 130.735 32.3003 130.126 31.9043C129.516 31.5083 128.636 31.9668 128.146 32.9151Z" fill="#B97964"/>
<path d="M116.117 33.6387C115.986 33.672 115.873 33.7547 115.803 33.8694C115.732 33.984 115.708 34.1217 115.736 34.2535L116.002 35.9573C116.01 36.0022 116.035 36.0422 116.072 36.0686C116.109 36.095 116.155 36.1056 116.2 36.098V36.098C116.245 36.0904 116.285 36.0652 116.311 36.0281C116.338 35.991 116.348 35.9449 116.341 35.9L116.153 34.7172H116.263C116.388 34.6773 116.495 34.5938 116.565 34.4818C116.634 34.3698 116.661 34.2368 116.641 34.1066C116.621 33.9764 116.555 33.8578 116.455 33.772C116.355 33.6862 116.228 33.6389 116.096 33.6387H116.117Z" fill="white"/>
<path d="M129.387 33.6387C129.518 33.6721 129.631 33.7548 129.702 33.8694C129.773 33.9841 129.796 34.1217 129.768 34.2535L129.497 35.9574C129.489 36.0023 129.464 36.0423 129.427 36.0686C129.39 36.095 129.344 36.1056 129.299 36.098V36.098C129.254 36.0903 129.213 36.0654 129.186 36.0285C129.159 35.9916 129.147 35.9455 129.153 35.9L129.341 34.7173H129.221C129.095 34.6772 128.987 34.5932 128.918 34.4807C128.849 34.3682 128.822 34.2346 128.843 34.104C128.864 33.9735 128.931 33.8548 129.031 33.7694C129.132 33.684 129.26 33.6376 129.393 33.6387H129.387Z" fill="white"/>
<path d="M142.66 22.0612C145.252 22.0612 147.354 19.9593 147.354 17.3665C147.354 14.7737 145.252 12.6719 142.66 12.6719C140.067 12.6719 137.965 14.7737 137.965 17.3665C137.965 19.9593 140.067 22.0612 142.66 22.0612Z" fill="#FFC100"/>
<path d="M139.954 20.0706C139.881 19.9974 139.84 19.898 139.84 19.7945C139.84 19.6909 139.881 19.5916 139.954 19.5183L144.81 14.6621C144.884 14.589 144.983 14.5479 145.086 14.5479C145.19 14.5479 145.289 14.589 145.363 14.6621V14.6621C145.436 14.7354 145.477 14.8347 145.477 14.9383C145.477 15.0418 145.436 15.1412 145.363 15.2144L140.512 20.0706C140.437 20.1429 140.337 20.1833 140.233 20.1833C140.129 20.1833 140.029 20.1429 139.954 20.0706V20.0706Z" fill="white"/>
<path d="M144.206 20.1651H142.835V19.123C143.237 19.0805 143.608 18.8908 143.877 18.5905C144.147 18.2902 144.295 17.9008 144.294 17.4973V16.945C144.294 16.9334 144.292 16.9219 144.288 16.9111C144.283 16.9004 144.277 16.8906 144.268 16.8824C144.26 16.8742 144.25 16.8676 144.24 16.8632C144.229 16.8587 144.217 16.8564 144.206 16.8564H143.987C143.963 16.8564 143.94 16.8656 143.922 16.882C143.905 16.8985 143.894 16.9211 143.893 16.945C143.893 16.9571 143.896 16.9691 143.9 16.9802C143.905 16.9913 143.912 17.0013 143.921 17.0096C143.93 17.0179 143.94 17.0243 143.951 17.0284C143.963 17.0325 143.975 17.0343 143.987 17.0336H144.117V17.4973C144.117 17.8843 143.963 18.2554 143.69 18.529C143.416 18.8026 143.045 18.9563 142.658 18.9563C142.271 18.9563 141.9 18.8026 141.627 18.529C141.353 18.2554 141.199 17.8843 141.199 17.4973V17.0336H141.335C141.358 17.0336 141.381 17.0243 141.397 17.0077C141.414 16.991 141.423 16.9685 141.423 16.945C141.422 16.9219 141.412 16.9001 141.396 16.8838C141.38 16.8674 141.358 16.8577 141.335 16.8564H141.111C141.088 16.8577 141.066 16.8674 141.049 16.8838C141.033 16.9001 141.023 16.9219 141.022 16.945V17.4973C141.022 17.9004 141.171 18.2893 141.441 18.5893C141.71 18.8893 142.08 19.0794 142.481 19.123V20.1651H141.111C141.063 20.1665 141.018 20.1863 140.985 20.2203C140.952 20.2544 140.934 20.3 140.934 20.3475V20.5246H144.383V20.3475C144.383 20.3 144.364 20.2544 144.331 20.2203C144.298 20.1863 144.253 20.1665 144.206 20.1651V20.1651Z" fill="white"/>
<path d="M141.559 17.5173C141.578 17.7965 141.703 18.058 141.907 18.2489C142.112 18.4399 142.381 18.5461 142.661 18.5461C142.941 18.5461 143.211 18.4399 143.415 18.2489C143.62 18.058 143.744 17.7965 143.763 17.5173V15.3133C143.774 15.1622 143.753 15.0106 143.702 14.8678C143.652 14.7251 143.572 14.5943 143.469 14.4836C143.365 14.3729 143.24 14.2847 143.101 14.2243C142.963 14.164 142.813 14.1328 142.661 14.1328C142.51 14.1328 142.36 14.164 142.221 14.2243C142.082 14.2847 141.957 14.3729 141.854 14.4836C141.75 14.5943 141.671 14.7251 141.62 14.8678C141.57 15.0106 141.549 15.1622 141.559 15.3133V17.5173Z" fill="white"/>
<path d="M93.9932 29.8926H42.3885C40.8806 29.8926 39.6582 31.115 39.6582 32.6229V71.1544C39.6582 72.6623 40.8806 73.8847 42.3885 73.8847H93.9932C95.5011 73.8847 96.7235 72.6623 96.7235 71.1544V32.6229C96.7235 31.115 95.5011 29.8926 93.9932 29.8926Z" fill="#FFC100"/>
<path d="M64.7267 33.5922C64.7267 33.5922 62.0797 32.7846 61.4909 38.464C60.9022 44.1434 56.838 46.0348 61.1523 48.119C65.4665 50.2032 69.6349 47.921 71.3283 48.119C73.0218 48.317 76.0803 47.2072 75.8875 44.4039C75.6947 41.6007 70.7083 33.4619 70.7083 33.4619L64.7267 33.5922Z" fill="#263238"/>
<path d="M86.3029 58.592C85.3703 61.7183 82.6921 70.003 80.6443 69.7164C78.1277 69.3725 76.3926 60.3375 76.3926 60.3375L77.0856 49.3955C77.0856 49.3955 79.8628 49.3955 81.082 63.3805L84.0207 57.0549L86.3029 58.592Z" fill="#263238"/>
<path d="M84.2695 57.1484L85.3116 54.8766L86.9477 53.5375L87.8335 52.584C88.0585 52.3411 88.3548 52.1759 88.6798 52.1122C89.0047 52.0485 89.3415 52.0897 89.6415 52.2297L90.1626 52.4746C90.467 52.6156 90.718 52.8508 90.8785 53.1454C91.0389 53.44 91.1003 53.7785 91.0536 54.1107L90.7774 56.0907L86.3485 57.5236C86.3485 57.5236 86.2235 57.9665 86.0098 58.6855L84.2695 57.1484Z" fill="#EEC1BB"/>
<path d="M83.8551 56.3516L86.9605 58.4774L86.7208 59.655L83.2871 57.2165L83.8551 56.3516Z" fill="#263238"/>
<path opacity="0.2" d="M83.8551 56.3516L86.9605 58.4774L86.7208 59.655L83.2871 57.2165L83.8551 56.3516Z" fill="white"/>
<path d="M60.1925 73.8847C60.1925 73.8847 59.7183 61.4681 55.9824 50.4375C62.896 48.8194 70.0455 48.4663 77.0849 49.3954C77.0849 49.3954 78.82 57.2997 76.7358 73.8847H60.1925Z" fill="#263238"/>
<path opacity="0.2" d="M60.1925 73.8847C60.1925 73.8847 59.7183 61.4681 55.9824 50.4375C62.896 48.8194 70.0455 48.4663 77.0849 49.3954C77.0849 49.3954 78.82 57.2997 76.7358 73.8847H60.1925Z" fill="white"/>
<path d="M62.8305 66.9445C63.461 66.7048 63.8309 66.5537 63.8309 66.5537L66.6342 65.2511L68.7184 63.2711C68.8478 63.147 68.9483 62.9959 69.0129 62.8285C69.0775 62.6612 69.1046 62.4817 69.0921 62.3028C69.0797 62.1238 69.0281 61.9498 68.941 61.793C68.8539 61.6362 68.7334 61.5005 68.5881 61.3954L67.2698 60.4679C67.1362 60.3723 66.9847 60.3044 66.8243 60.2683C66.664 60.2322 66.498 60.2286 66.3363 60.2578C66.1745 60.2869 66.0202 60.3482 65.8826 60.438C65.7449 60.5278 65.6266 60.6442 65.5347 60.7805L63.1796 64.2872C63.1796 64.2872 62.6586 64.4383 61.8145 64.6467L62.8305 66.9445Z" fill="#EEC1BB"/>
<path d="M62.8814 67.2674C59.8281 68.4189 50.6784 71.5713 47.9273 69.0911C44.6082 66.095 55.9827 50.4375 55.9827 50.4375C59.0204 53.8712 57.9262 57.4196 57.9262 57.4196C57.9262 57.4196 52.0749 63.594 52.6272 65.1155C53.1117 66.4754 59.1246 65.1155 61.8758 64.4329L62.8814 67.2674Z" fill="#263238"/>
<path d="M62.2361 64.0576L63.5387 67.3559L62.4967 67.9655L61.1523 64.0576H62.2361Z" fill="#263238"/>
<path opacity="0.2" d="M62.2361 64.0576L63.5387 67.3559L62.4967 67.9655L61.1523 64.0576H62.2361Z" fill="white"/>
<path d="M70.172 48.9055H69.2028C69.0548 47.917 69.146 46.9075 69.4686 45.9616L65.6649 42.085C65.8577 43.8565 65.9411 47.2121 65.1126 49.0566C64.5915 49.0931 64.107 49.1348 63.6328 49.1816C63.8725 49.8799 64.7895 51.6566 67.9471 51.6566C71.1047 51.6566 70.5211 49.661 70.172 48.9055Z" fill="#EEC1BB"/>
<path opacity="0.1" d="M66.3771 43.5075L65.9395 44.6799C66.6234 46.0129 67.7566 47.0611 69.1387 47.6395C69.1841 47.0696 69.2943 46.5067 69.467 45.9617L66.9451 43.3877L66.3771 43.5075Z" fill="black"/>
<path d="M63.7266 39.1828C64.6489 42.6947 64.9615 44.2057 67.1187 45.6751C70.3596 47.8947 74.4759 45.9981 74.627 42.2778C74.7677 38.9275 73.241 33.7431 69.479 33.0136C68.6518 32.8532 67.7974 32.9061 66.9964 33.1674C66.1953 33.4287 65.474 33.8897 64.9005 34.507C64.327 35.1243 63.9202 35.8775 63.7185 36.6956C63.5168 37.5137 63.5267 38.3696 63.7475 39.1828H63.7266Z" fill="#EEC1BB"/>
<path d="M63.4418 42.1576C63.6041 42.4661 63.8257 42.7396 64.094 42.9622C64.3622 43.1849 64.6718 43.3524 65.005 43.455C65.896 43.726 66.3597 42.934 66.1252 42.0794C65.9168 41.3135 65.203 40.2506 64.2963 40.3548C63.9826 40.4024 63.7004 40.572 63.5111 40.8267C63.3218 41.0814 63.2407 41.4006 63.2855 41.7147C63.3084 41.8711 63.3615 42.0215 63.4418 42.1576Z" fill="#EEC1BB"/>
<path d="M71.8242 39.1357C72.2097 39.7462 72.6779 40.3003 73.2154 40.7823C73.0905 40.9184 72.9369 41.025 72.7656 41.0944C72.5944 41.1638 72.4099 41.1942 72.2254 41.1835L71.8242 39.1357Z" fill="#D58745"/>
<path d="M68.6913 37.8175C68.6673 37.8229 68.6424 37.8229 68.6184 37.8175C68.5863 37.7971 68.5635 37.765 68.5547 37.728C68.546 37.691 68.552 37.6521 68.5715 37.6195C68.7052 37.3848 68.8934 37.1857 69.12 37.0389C69.3467 36.892 69.6053 36.8016 69.8741 36.7754C69.9124 36.7753 69.9494 36.7898 69.9774 36.8159C70.0055 36.842 70.0226 36.8778 70.0252 36.9161C70.0266 36.9539 70.0133 36.9908 69.988 37.019C69.9628 37.0472 69.9275 37.0645 69.8897 37.0672C69.6679 37.0909 69.4548 37.1671 69.2682 37.2894C69.0815 37.4117 68.9267 37.5766 68.8164 37.7706C68.8021 37.7894 68.7828 37.8038 68.7606 37.8121C68.7385 37.8204 68.7145 37.8223 68.6913 37.8175V37.8175Z" fill="#2E353A"/>
<path d="M72.1422 36.3168C72.1252 36.2992 72.1126 36.2778 72.1057 36.2543C72.1002 36.2362 72.0984 36.2171 72.1004 36.1983C72.1024 36.1794 72.1082 36.1612 72.1175 36.1446C72.1267 36.1281 72.1392 36.1136 72.1542 36.102C72.1692 36.0904 72.1864 36.0819 72.2047 36.0771V36.0771C72.4632 35.997 72.737 35.9798 73.0035 36.0269C73.27 36.0741 73.5213 36.1842 73.7366 36.3481C73.7546 36.3591 73.7699 36.374 73.7816 36.3915C73.7932 36.4091 73.801 36.4289 73.8042 36.4498C73.8075 36.4706 73.8062 36.4919 73.8004 36.5122C73.7946 36.5324 73.7846 36.5512 73.7708 36.5672C73.7571 36.5832 73.7401 36.5961 73.7209 36.6049C73.7018 36.6137 73.6809 36.6182 73.6599 36.6182C73.6388 36.6181 73.618 36.6136 73.5988 36.6047C73.5797 36.5959 73.5627 36.583 73.549 36.5669C73.37 36.4335 73.1616 36.3449 72.9413 36.3087C72.721 36.2724 72.4952 36.2895 72.2829 36.3585C72.2578 36.3641 72.2318 36.3632 72.2071 36.3559C72.1825 36.3486 72.1602 36.3351 72.1422 36.3168V36.3168Z" fill="#2E353A"/>
<path d="M69.6832 39.058C69.7405 39.3497 69.9385 39.579 70.1313 39.5165C70.3241 39.4539 70.4283 39.2143 70.3658 38.9225C70.3033 38.6307 70.1105 38.4327 69.9229 38.4692C69.7353 38.5056 69.6259 38.7662 69.6832 39.058Z" fill="#2E353A"/>
<path d="M72.9489 38.4166C73.001 38.7032 73.2042 38.9064 73.3918 38.8699C73.5794 38.8334 73.6888 38.5729 73.6315 38.2811C73.5742 37.9893 73.3762 37.7861 73.1886 37.8226C73.001 37.8591 72.8968 38.1248 72.9489 38.4166Z" fill="#2E353A"/>
<path d="M73.1152 37.854L73.7718 37.5205C73.7718 37.5205 73.5217 38.1301 73.1152 37.854Z" fill="#2E353A"/>
<path d="M69.8223 38.5005L70.4736 38.167C70.4736 38.167 70.2443 38.7766 69.8223 38.5005Z" fill="#2E353A"/>
<path d="M72.5414 42.1112C71.7314 42.0655 70.919 42.0899 70.1133 42.1842C70.2665 42.4642 70.5059 42.6873 70.7959 42.8206C71.0859 42.9538 71.4111 42.9901 71.7233 42.9241C72.6352 42.8407 72.5414 42.1112 72.5414 42.1112Z" fill="#2E353A"/>
<path d="M71.2593 42.58C71.614 42.5281 71.9761 42.5806 72.3014 42.7311C72.1395 42.8468 71.9479 42.9137 71.7491 42.9239C71.3945 42.9759 71.0323 42.9234 70.707 42.7728C70.869 42.6571 71.0606 42.5902 71.2593 42.58Z" fill="#DE5753"/>
<path d="M72.4593 42.1056C72.4464 42.1682 72.4161 42.2259 72.3718 42.272C72.3276 42.3181 72.2712 42.3507 72.2092 42.3661C71.6889 42.4067 71.1663 42.4067 70.646 42.3661C70.5638 42.3684 70.4822 42.3511 70.408 42.3158C70.3337 42.2805 70.2689 42.2281 70.2188 42.1629C70.9632 42.0901 71.712 42.071 72.4593 42.1056Z" fill="white"/>
<path d="M64.727 41.929C64.727 41.929 66.2901 40.616 65.941 37.818C65.5919 35.0199 69.135 37.6304 69.8437 35.2857C70.5523 32.9409 73.6056 37.6981 75.1063 34.8324C76.6069 31.9666 69.7603 31.2684 69.0777 32.0968C68.3952 32.9253 59.0371 31.5758 64.727 41.929Z" fill="#263238"/>
<path d="M92.1199 65.1777H44.2616C43.5767 65.1777 43.0215 65.7329 43.0215 66.4178V68.773C43.0215 69.4579 43.5767 70.0131 44.2616 70.0131H92.1199C92.8048 70.0131 93.36 69.4579 93.36 68.773V66.4178C93.36 65.7329 92.8048 65.1777 92.1199 65.1777Z" fill="white"/>
<path d="M49.3242 68.805V66.3926L50.8353 67.6014L49.3242 68.805Z" fill="#263238"/>
<path d="M53.2676 68.3088L53.9293 67.6106L53.2676 66.9072V68.3088Z" fill="#263238"/>
<path d="M53.9297 66.9336V67.611V68.2883H54.2267V66.9336H53.9297Z" fill="#263238"/>
<path d="M46.885 66.9072L46.2285 67.6106L46.885 68.3088V66.9072Z" fill="#263238"/>
<path d="M46.2299 68.2883V67.611V66.9336H45.9277V68.2883H46.2299Z" fill="#263238"/>
<path d="M91.0231 67.2568H58.8379V67.9655H91.0231V67.2568Z" fill="#263238"/>
<path d="M74.0838 66.0117H72.9375V69.1797H74.0838V66.0117Z" fill="#FFC100"/>
<path d="M173.926 28.952C175.473 22.3955 171.413 15.826 164.856 14.2785C158.3 12.731 151.73 16.7917 150.183 23.3481C148.635 29.9046 152.696 36.4742 159.252 38.0217C165.809 39.5691 172.378 35.5085 173.926 28.952Z" fill="#FFC100"/>
<path opacity="0.7" d="M173.926 28.952C175.473 22.3955 171.413 15.826 164.856 14.2785C158.3 12.731 151.73 16.7917 150.183 23.3481C148.635 29.9046 152.696 36.4742 159.252 38.0217C165.809 39.5691 172.378 35.5085 173.926 28.952Z" fill="white"/>
<g opacity="0.8">
<path opacity="0.8" d="M159.599 30.2999C160.259 29.6588 161.143 29.3003 162.063 29.3003C162.983 29.3003 163.868 29.6588 164.528 30.2999C165.19 30.9095 166.19 29.9196 165.523 29.3047C164.594 28.4094 163.354 27.9092 162.063 27.9092C160.773 27.9092 159.533 28.4094 158.603 29.3047C157.937 29.9196 158.932 30.9095 159.599 30.2999V30.2999Z" fill="#FFC100"/>
<path opacity="0.8" d="M161.582 32.2846C161.709 32.1589 161.881 32.0884 162.059 32.0884C162.238 32.0884 162.409 32.1589 162.536 32.2846C163.203 32.8994 164.198 31.9042 163.531 31.2894C163.136 30.9083 162.608 30.6953 162.059 30.6953C161.51 30.6953 160.982 30.9083 160.587 31.2894C159.92 31.9042 160.921 32.8994 161.582 32.2846V32.2846Z" fill="#FFC100"/>
<path opacity="0.8" d="M156.983 27.6837C158.344 26.3642 160.165 25.6264 162.06 25.6264C163.956 25.6264 165.777 26.3642 167.138 27.6837C167.805 28.2933 168.8 27.3033 168.133 26.6885C166.503 25.116 164.326 24.2373 162.06 24.2373C159.795 24.2373 157.618 25.116 155.988 26.6885C155.321 27.3033 156.321 28.2985 156.983 27.6837V27.6837Z" fill="#FFC100"/>
<path opacity="0.8" d="M154.602 25.2977C156.602 23.3597 159.278 22.276 162.063 22.276C164.848 22.276 167.524 23.3597 169.525 25.2977C170.186 25.9177 171.182 24.9277 170.52 24.3024C168.252 22.1078 165.219 20.8809 162.063 20.8809C158.907 20.8809 155.875 22.1078 153.607 24.3024C152.945 24.9277 153.94 25.9177 154.602 25.2977V25.2977Z" fill="#FFC100"/>
</g>
<path d="M64.9238 102.854C71.8533 102.854 77.4707 97.237 77.4707 90.3076C77.4707 83.3782 71.8533 77.7607 64.9238 77.7607C57.9944 77.7607 52.377 83.3782 52.377 90.3076C52.377 97.237 57.9944 102.854 64.9238 102.854Z" fill="#FFC100"/>
<path opacity="0.7" d="M64.9238 102.854C71.8533 102.854 77.4707 97.237 77.4707 90.3076C77.4707 83.3782 71.8533 77.7607 64.9238 77.7607C57.9944 77.7607 52.377 83.3782 52.377 90.3076C52.377 97.237 57.9944 102.854 64.9238 102.854Z" fill="white"/>
<path d="M62.1943 86.3164V89.5521L58.2969 86.702V93.9133L62.1943 91.058V94.2989H71.5472V86.3164H62.1943Z" fill="#FFC100"/>
<path d="M213.383 43.7095C214.76 37.8728 211.146 32.0244 205.309 30.6468C199.472 29.2692 193.624 32.8841 192.246 38.7208C190.869 44.5575 194.484 50.4058 200.32 51.7834C206.157 53.161 212.005 49.5462 213.383 43.7095Z" fill="#FFC100"/>
<path opacity="0.7" d="M213.383 43.7095C214.76 37.8728 211.146 32.0244 205.309 30.6468C199.472 29.2692 193.624 32.8841 192.246 38.7208C190.869 44.5575 194.484 50.4058 200.32 51.7834C206.157 53.161 212.005 49.5462 213.383 43.7095Z" fill="white"/>
<path d="M205.983 46.9207H203.211V44.8366C204.028 44.7444 204.783 44.3547 205.332 43.7416C205.881 43.1285 206.185 42.335 206.186 41.5123V40.3868C206.184 40.3393 206.165 40.2943 206.131 40.2612C206.097 40.2281 206.051 40.2096 206.003 40.2096H205.55C205.524 40.2052 205.497 40.2065 205.471 40.2134C205.446 40.2204 205.422 40.2329 205.402 40.25C205.382 40.2671 205.365 40.2885 205.354 40.3125C205.343 40.3366 205.337 40.3628 205.337 40.3894C205.337 40.4159 205.343 40.4422 205.354 40.4663C205.365 40.4903 205.382 40.5117 205.402 40.5288C205.422 40.5459 205.446 40.5584 205.471 40.5654C205.497 40.5723 205.524 40.5736 205.55 40.5692H205.816V41.5123C205.816 42.3013 205.502 43.0581 204.944 43.616C204.386 44.174 203.63 44.4875 202.841 44.4875C202.052 44.4875 201.295 44.174 200.737 43.616C200.179 43.0581 199.865 42.3013 199.865 41.5123V40.5692H200.136C200.163 40.5736 200.189 40.5723 200.215 40.5654C200.241 40.5584 200.264 40.5459 200.285 40.5288C200.305 40.5117 200.321 40.4903 200.333 40.4663C200.344 40.4422 200.349 40.4159 200.349 40.3894C200.349 40.3628 200.344 40.3366 200.333 40.3125C200.321 40.2885 200.305 40.2671 200.285 40.25C200.264 40.2329 200.241 40.2204 200.215 40.2134C200.189 40.2065 200.163 40.2052 200.136 40.2096H199.683C199.659 40.2089 199.636 40.213 199.614 40.2216C199.592 40.2302 199.571 40.2431 199.554 40.2596C199.537 40.2762 199.524 40.2959 199.515 40.3178C199.505 40.3396 199.501 40.3631 199.501 40.3868V41.5123C199.501 42.3353 199.804 43.1295 200.353 43.7428C200.902 44.3561 201.658 44.7455 202.476 44.8366V46.9207H199.667C199.571 46.9207 199.478 46.9592 199.41 47.0276C199.341 47.096 199.303 47.1887 199.303 47.2855V47.6502H206.337V47.2855C206.337 47.1905 206.3 47.0993 206.234 47.0312C206.168 46.9631 206.078 46.9235 205.983 46.9207Z" fill="#FFC100"/>
<path d="M202.825 43.7939C203.422 43.7939 203.995 43.5568 204.417 43.1346C204.839 42.7125 205.076 42.14 205.076 41.543H200.574C200.574 41.8388 200.631 42.1318 200.744 42.4052C200.857 42.6786 201.023 42.927 201.232 43.1362C201.441 43.3453 201.69 43.5111 201.963 43.624C202.236 43.7368 202.529 43.7946 202.825 43.7939V43.7939Z" fill="#FFC100"/>
<path d="M205.076 37.0205C205.076 36.4235 204.839 35.8509 204.417 35.4288C203.995 35.0067 203.422 34.7695 202.825 34.7695C202.228 34.7695 201.656 35.0067 201.233 35.4288C200.811 35.8509 200.574 36.4235 200.574 37.0205V41.1159H205.076V37.0205Z" fill="#FFC100"/>
</svg>
