<svg width="260" height="194" viewBox="0 0 260 194" fill="none" xmlns="http://www.w3.org/2000/svg">
<path d="M0.416077 169.976H260V170.105H0.416077V169.976Z" fill="#EBEBEB"/>
<path d="M26.4282 178.329H43.623V178.459H26.4282V178.329Z" fill="#EBEBEB"/>
<path d="M88.0431 179.741H92.5547V179.871H88.0431V179.741Z" fill="#EBEBEB"/>
<path d="M44.1407 173.511H54.1035V173.641H44.1407V173.511Z" fill="#EBEBEB"/>
<path d="M210.341 174.383H232.764V174.513H210.341V174.383Z" fill="#EBEBEB"/>
<path d="M202.43 174.383H205.717V174.513H202.43V174.383Z" fill="#EBEBEB"/>
<path d="M143.109 176.574H191.744V176.704H143.109V176.574Z" fill="#EBEBEB"/>
<path d="M136.957 146.821H237.203C237.988 146.819 238.741 146.506 239.296 145.951C239.85 145.395 240.162 144.642 240.162 143.856V2.93849C240.155 2.15767 239.841 1.41109 239.287 0.860893C238.732 0.3107 237.984 0.00133758 237.203 0H136.957C136.171 0 135.417 0.312325 134.861 0.868267C134.305 1.42421 133.992 2.17823 133.992 2.96445V143.856C133.992 144.642 134.305 145.396 134.861 145.952C135.417 146.508 136.171 146.821 136.957 146.821V146.821ZM237.203 0.103834C237.954 0.105209 238.673 0.404465 239.204 0.935918C239.734 1.46737 240.032 2.18759 240.032 2.93849V143.856C240.032 144.607 239.734 145.327 239.204 145.859C238.673 146.39 237.954 146.689 237.203 146.691H136.957C136.205 146.689 135.485 146.39 134.954 145.859C134.423 145.328 134.123 144.608 134.122 143.856V2.93849C134.123 2.18711 134.423 1.4669 134.954 0.935601C135.485 0.404297 136.205 0.105206 136.957 0.103834H237.203Z" fill="#EBEBEB"/>
<path d="M24.6553 146.821H124.907C125.692 146.819 126.446 146.506 127.001 145.951C127.557 145.395 127.87 144.642 127.871 143.856V2.93849C127.863 2.1572 127.547 1.41062 126.992 0.860569C126.437 0.310519 125.688 0.00132299 124.907 0H24.6553C23.8754 0.00270201 23.1279 0.312668 22.575 0.862715C22.022 1.41276 21.7081 2.15857 21.7013 2.93849V143.856C21.7013 144.641 22.0122 145.393 22.5659 145.949C23.1196 146.504 23.8709 146.818 24.6553 146.821V146.821ZM124.907 0.103834C125.658 0.105206 126.378 0.404297 126.91 0.935601C127.441 1.4669 127.74 2.18711 127.741 2.93849V143.856C127.74 144.608 127.441 145.328 126.91 145.859C126.378 146.39 125.658 146.689 124.907 146.691H24.6553C23.904 146.689 23.1838 146.39 22.6525 145.859C22.1212 145.328 21.8221 144.608 21.8207 143.856V2.93849C21.8221 2.18711 22.1212 1.4669 22.6525 0.935601C23.1838 0.404297 23.904 0.105206 24.6553 0.103834H124.907Z" fill="#EBEBEB"/>
<path d="M97.4067 39.5713H100.387V101.685H97.4067V39.5713Z" fill="#F5F5F5"/>
<path d="M84.9017 23.7002H112.9V61.859H84.9017V23.7002Z" fill="#F5F5F5"/>
<path d="M160.148 104.352L152.065 67.5791L123.225 72.6566L130.042 110.083L160.148 104.352Z" fill="#EBEBEB"/>
<path d="M186.945 83.1973L163.879 78.1406L151.606 112.842L179.744 120.832L186.945 83.1973Z" fill="#F0F0F0"/>
<path d="M143.145 110.863L139.9 82.8848L107.987 84.7486L109.129 114.024L143.145 110.863Z" fill="#F5F5F5"/>
<path d="M211.562 168.044H216.39V87.3135H220.544V168.044H225.372C225.829 168.044 226.268 168.226 226.591 168.549C226.914 168.872 227.096 169.311 227.096 169.768H209.839C209.839 169.541 209.883 169.317 209.97 169.108C210.056 168.899 210.183 168.709 210.343 168.549C210.503 168.389 210.693 168.262 210.903 168.175C211.112 168.089 211.336 168.044 211.562 168.044V168.044Z" fill="#F0F0F0"/>
<path d="M210.866 91.0105C211.858 88.7136 212.324 86.224 212.228 83.7239C212.133 81.2239 211.48 78.7768 210.316 76.562C208.364 72.85 206.547 68.9926 206.947 68.1775C207.772 66.5213 208.592 65.727 212.704 65.2442C215.393 64.9275 215.907 63.3596 215.944 62.3109C215.949 62.0534 215.899 61.7977 215.797 61.5612C215.695 61.3247 215.543 61.113 215.352 60.9403C211.583 57.5034 211.375 49.638 217.745 48.6256V48.5166C217.958 48.5166 218.161 48.5166 218.358 48.5166H218.566C218.763 48.5166 218.965 48.5166 219.178 48.5166V48.6256C225.548 49.664 225.341 57.5034 221.572 60.9403C221.384 61.1127 221.235 61.3232 221.134 61.5578C221.034 61.7923 220.985 62.0455 220.99 62.3005C221.026 63.3388 221.54 64.8963 224.23 65.2338C228.342 65.7166 229.162 66.511 229.987 68.1671C230.387 68.9822 228.57 72.8396 226.618 76.5517C225.454 78.7664 224.801 81.2135 224.705 83.7135C224.61 86.2136 225.076 88.7033 226.068 91.0001C228.312 96.0651 229.641 101.488 229.992 107.016C230.004 107.268 229.964 107.519 229.875 107.755C229.787 107.991 229.651 108.206 229.477 108.388C229.303 108.57 229.093 108.715 228.862 108.814C228.63 108.913 228.381 108.964 228.129 108.963H208.805C208.553 108.964 208.304 108.913 208.072 108.814C207.841 108.715 207.631 108.57 207.457 108.388C207.283 108.206 207.147 107.991 207.059 107.755C206.97 107.519 206.93 107.268 206.941 107.016C207.294 101.491 208.623 96.0722 210.866 91.0105V91.0105Z" fill="#E0E0E0"/>
<path d="M35.0427 168.044H39.8709V87.3135H44.0243V168.044H48.8525C49.3088 168.044 49.7464 168.225 50.0695 168.547C50.3926 168.869 50.5748 169.306 50.5762 169.763H33.319C33.3204 169.306 33.5026 168.869 33.8257 168.547C34.1488 168.225 34.5864 168.044 35.0427 168.044V168.044Z" fill="#F0F0F0"/>
<path d="M34.3493 91.0105C35.3412 88.7136 35.8066 86.224 35.7114 83.7239C35.6162 81.2239 34.9628 78.7768 33.799 76.562C31.847 72.85 30.0299 68.9926 30.4296 68.1775C31.2551 66.5213 32.0754 65.727 36.1872 65.2442C38.8765 64.9275 39.3905 63.3596 39.4268 62.3109C39.4322 62.0534 39.3821 61.7977 39.28 61.5612C39.1779 61.3247 39.0261 61.113 38.835 60.9403C35.0658 57.5034 34.8581 49.638 41.2283 48.6256V48.5166C41.4412 48.5166 41.6437 48.5166 41.8409 48.5166H42.0486C42.2459 48.5166 42.4484 48.5166 42.6612 48.5166V48.6256C49.0314 49.664 48.8238 57.5034 45.0546 60.9403C44.8634 61.113 44.7117 61.3247 44.6095 61.5612C44.5074 61.7977 44.4574 62.0534 44.4627 62.3109C44.4991 63.3492 45.0131 64.9067 47.7023 65.2442C51.8142 65.727 52.6345 66.5213 53.4599 68.1775C53.8597 68.9926 52.0426 72.85 50.0905 76.562C48.9268 78.7768 48.2734 81.2239 48.1781 83.7239C48.0829 86.224 48.5483 88.7136 49.5402 91.0105C51.7844 96.0755 53.1133 101.498 53.4651 107.027C53.4763 107.278 53.4364 107.53 53.3478 107.766C53.2592 108.001 53.1237 108.217 52.9495 108.399C52.7753 108.581 52.566 108.725 52.3343 108.824C52.1026 108.923 51.8532 108.974 51.6013 108.974H32.2779C32.026 108.974 31.7766 108.923 31.5449 108.824C31.3132 108.725 31.1039 108.581 30.9297 108.399C30.7555 108.217 30.62 108.001 30.5314 107.766C30.4427 107.53 30.4028 107.278 30.4141 107.027C30.7692 101.497 32.1015 96.0748 34.3493 91.0105V91.0105Z" fill="#E0E0E0"/>
<path d="M77.1594 99.1562H196.656V138.618H77.1594V99.1562Z" fill="#E0E0E0"/>
<path d="M89.8663 168.044C90.3226 168.044 90.7602 168.225 91.0833 168.547C91.4064 168.869 91.5886 169.306 91.59 169.763H74.3329C74.3342 169.306 74.5164 168.869 74.8395 168.547C75.1626 168.225 75.6003 168.044 76.0565 168.044H80.8847V87.3135H194.063V168.044H198.892C199.348 168.044 199.785 168.225 200.109 168.547C200.432 168.869 200.614 169.306 200.615 169.763H183.358C183.359 169.306 183.542 168.869 183.865 168.547C184.188 168.225 184.625 168.044 185.082 168.044H189.91V91.2643H85.0381V168.044H89.8663Z" fill="#E0E0E0"/>
<path d="M130.21 193.421C74.6159 193.421 29.5482 190.79 29.5482 187.544C29.5482 184.298 74.6159 181.667 130.21 181.667C185.803 181.667 230.871 184.298 230.871 187.544C230.871 190.79 185.803 193.421 130.21 193.421Z" fill="#F5F5F5"/>
<path d="M65.4141 188.354L56.4844 119.694H54.8853H53.224H53.1306H52.0507H51.3031L35.863 188.354H37.5503L51.4692 127.388L46.8642 188.354H48.7903L54.226 127.134L63.2439 188.354H65.4141Z" fill="#263238"/>
<path opacity="0.6" d="M65.4141 188.354L56.4844 119.694H54.8853H53.224H53.1306H52.0507H51.3031L35.863 188.354H37.5503L51.4692 127.388L46.8642 188.354H48.7903L54.226 127.134L63.2439 188.354H65.4141Z" fill="white"/>
<path d="M81.9609 176.465H43.8696L35.023 97.1055H73.1195L81.9609 176.465Z" fill="#FFC100"/>
<path opacity="0.6" d="M81.9609 176.465H43.8696L35.023 97.1055H73.1195L81.9609 176.465Z" fill="white"/>
<path opacity="0.6" d="M68.6732 117.945V109.872L65.418 113.433L56.831 102.339L51.8469 113.433L43.7531 107.432L48.6852 119.279L43.7531 123.729L51.8469 126.205L49.5315 135.898L58.0822 131.942L63.4711 141.027L66.7574 133.12L72.2347 135.628L70.3189 127.97L74.1504 125.81L70.5941 123.729L72.785 119.279L68.6732 117.945Z" fill="white"/>
<path d="M65.8825 118.339C65.5087 116.693 64.299 115.868 63.053 116.153C61.807 116.439 61.1321 117.643 61.4955 119.216C61.8693 120.867 63.0011 121.724 64.3302 121.418C65.6593 121.111 66.2407 119.928 65.8825 118.339ZM64.7403 118.599C64.9895 119.704 64.6417 120.234 64.0706 120.364C63.4995 120.494 62.8921 120.151 62.6221 118.962C62.3729 117.872 62.7727 117.301 63.3022 117.181C63.8318 117.062 64.4704 117.425 64.7403 118.599V118.599ZM64.4963 126.604L65.9863 126.267L57.6225 117.441L56.1377 117.778L64.4963 126.604ZM60.2755 124.797C59.9017 123.152 58.692 122.326 57.446 122.612C56.2 122.897 55.5251 124.102 55.8885 125.675C56.2519 127.248 57.3941 128.177 58.7232 127.876C60.0522 127.575 60.6389 126.371 60.2755 124.797ZM59.1281 125.057C59.3825 126.158 59.0347 126.692 58.4636 126.822C57.8925 126.952 57.2851 126.604 57.0151 125.42C56.7659 124.33 57.1657 123.759 57.6952 123.64C58.2248 123.52 58.8634 123.884 59.1281 125.057V125.057Z" fill="#FFC100"/>
<g opacity="0.2">
<path opacity="0.2" d="M65.8825 118.339C65.5087 116.693 64.299 115.868 63.053 116.153C61.807 116.439 61.1321 117.643 61.4955 119.216C61.8693 120.867 63.0011 121.724 64.3302 121.418C65.6593 121.111 66.2407 119.928 65.8825 118.339ZM64.7403 118.599C64.9895 119.704 64.6417 120.234 64.0706 120.364C63.4995 120.494 62.8921 120.151 62.6221 118.962C62.3729 117.872 62.7727 117.301 63.3022 117.181C63.8318 117.062 64.4704 117.425 64.7403 118.599V118.599ZM64.4963 126.604L65.9863 126.267L57.6225 117.441L56.1377 117.778L64.4963 126.604ZM60.2755 124.797C59.9017 123.152 58.692 122.326 57.446 122.612C56.2 122.897 55.5251 124.102 55.8885 125.675C56.2519 127.248 57.3941 128.177 58.7232 127.876C60.0522 127.575 60.6389 126.371 60.2755 124.797ZM59.1281 125.057C59.3825 126.158 59.0347 126.692 58.4636 126.822C57.8925 126.952 57.2851 126.604 57.0151 125.42C56.7659 124.33 57.1657 123.759 57.6952 123.64C58.2248 123.52 58.8634 123.884 59.1281 125.057V125.057Z" fill="white"/>
</g>
<path d="M69.2207 147.698L52.3841 147.911V150.632H69.2207V147.698Z" fill="white"/>
<path d="M74.1491 154.021H46.8617V157.541L75.3848 157.432L74.1491 154.021Z" fill="white"/>
<path opacity="0.3" d="M75.3828 163.637L76.2031 170.78H69.2203V163.637H75.3828Z" fill="black"/>
<path opacity="0.3" d="M64.8222 163.637L65.4141 170.78H58.0782L58.073 164.706L64.8222 163.637Z" fill="black"/>
<path opacity="0.3" d="M52.3841 164.706L53.6094 170.78H48.1945V164.706H52.3841Z" fill="black"/>
<path d="M168.68 74.0168C163.878 73.155 164.75 90.2667 162.871 94.3059C160.991 98.345 149.232 108.744 149.232 108.744C149.232 108.744 144.129 109.17 143.319 109.59C142.509 110.011 142.416 113.006 143.08 113.006C143.745 113.006 149.31 113.053 150.136 112.607C150.961 112.16 151.392 110.405 151.392 110.405C151.392 110.405 163.748 103.168 166.297 97.0419C168.426 91.9333 170.419 83.1022 170.97 79.9716C171.52 76.8411 169.895 74.24 168.68 74.0168Z" fill="#EBB376"/>
<path d="M219.258 135.601C219.258 135.601 216.241 132.585 211.315 136.556C206.388 140.528 203.781 146.005 195.361 143.129C186.94 140.253 174.075 148.321 171.479 142.511C171.479 142.511 175.84 131.058 184.313 127.523C192.785 123.987 214.876 132.315 219.258 135.601Z" fill="#FFC100"/>
<path d="M191.264 118.484C191.341 120.369 191.533 124.496 191.902 128.743C192.385 134.418 193.174 140.31 194.373 141.385C194.493 141.494 194.633 141.618 194.789 141.743C195.375 142.226 196.211 142.865 197.244 143.622C199.84 145.528 203.708 148.186 207.887 151.021L209.642 152.22C212.757 154.328 216.002 156.482 218.987 158.45C220.155 159.229 221.287 160.007 222.362 160.688C227.444 164.047 231.188 166.461 231.188 166.461L229.521 168.844C227.793 167.898 226.009 167.059 224.179 166.331V166.331C223.198 165.936 222.149 165.485 221.064 164.981C218.862 163.989 216.433 162.811 213.863 161.529C213.105 161.15 212.305 160.765 211.553 160.366C205.925 157.515 199.887 154.25 194.939 151.067C192.33 149.45 189.868 147.605 187.583 145.554C186.051 144.11 184.987 142.761 184.649 141.561C183.554 137.927 182.526 132.216 181.768 126.557C181.384 123.744 181.057 120.966 180.782 118.49L191.264 118.484Z" fill="#EBB376"/>
<path d="M230.326 165.095C229.953 165.022 229.221 169.622 229.221 169.622C229.221 169.622 231.427 173.048 231.453 175.904C231.479 178.759 233.447 177.607 234.127 174.58C234.807 171.553 235.336 169.243 235.819 167.093C236.302 164.944 234.168 165.842 230.326 165.095Z" fill="#FFC100"/>
<path opacity="0.2" d="M179.911 109.544C179.911 109.544 180.612 117.908 181.785 126.541C182.543 132.19 183.571 137.927 184.667 141.545C185.025 142.745 186.068 144.095 187.6 145.538C189.884 147.598 192.346 149.451 194.957 151.077C195.834 148.533 196.618 145.886 197.246 143.638C196.208 142.88 195.377 142.241 194.79 141.758C194.635 141.634 194.495 141.509 194.375 141.4C193.176 140.325 192.387 134.433 191.904 128.758C191.385 122.985 191.224 117.43 191.224 117.43L179.911 109.544Z" fill="black"/>
<path d="M178.057 101.756L193.943 99.1601C193.455 99.238 190.371 92.411 189.665 89.9709C188.695 86.6119 187.937 80.1846 188.601 76.026V75.9949C188.663 75.5759 188.639 75.1486 188.53 74.7393C188.421 74.33 188.229 73.9473 187.967 73.6144C187.706 73.2816 187.378 73.0056 187.006 72.8034C186.634 72.6013 186.225 72.4771 185.803 72.4386C184.536 72.3399 183.269 72.2932 181.992 72.288C179.47 72.2577 176.949 72.4069 174.449 72.7345C171.23 73.2537 167.596 74.2141 167.596 74.2141C167.596 74.2141 167.076 74.427 167.326 77.8846C167.559 81.1294 168.779 91.7205 178.057 101.756Z" fill="#263238"/>
<path d="M172.117 69.5324C172.117 69.5324 174.163 70.8563 174.516 71.7285C174.539 71.7839 174.556 71.8413 174.568 71.8999C174.669 72.3969 174.738 72.8997 174.776 73.4054C174.179 75.155 176.416 76.157 176.416 76.157C180.403 74.9578 181.338 73.0161 181.338 73.0161C178.057 71.7285 177.429 65.4414 177.429 65.4414L175.84 66.6666L172.117 69.5324Z" fill="#EBB376"/>
<path d="M169.025 163.693L173.204 154.379L178.884 141.732L179.891 139.531L184.288 129.931L189.516 118.51H201.457C199.9 123.805 196.785 129.646 193.524 134.801C190.342 139.863 187.045 144.266 185.02 146.862C183.805 148.419 183.053 149.322 183.053 149.322C180.595 154.879 177.822 160.291 174.746 165.531C173.547 167.607 172.363 169.575 171.231 171.397C167.078 178.147 163.734 182.85 163.734 182.85L161.138 181.293L169.025 163.693Z" fill="#EBB376"/>
<path d="M165.452 181.506C165.597 181.158 161.226 179.554 161.226 179.554C161.226 179.554 157.436 181.059 154.632 180.535C151.829 180.011 152.555 182.16 155.416 183.416L162.44 186.531C164.475 187.419 163.956 185.13 165.452 181.506Z" fill="#FFC100"/>
<path d="M193.943 99.1611C193.943 99.1611 202.577 103.481 203.101 115.068C203.413 121.485 219.258 135.602 219.258 135.602C219.258 135.602 218.604 137.927 214.139 138.062C209.674 138.197 201.321 133.27 195.449 134.641C189.577 136.012 190.107 138.203 185.45 137.237C180.793 136.271 176.006 137.486 171.484 142.506C171.484 142.506 169.444 125.893 178.15 113.547C178.15 113.547 178.835 110.271 178.072 101.767L193.943 99.1611Z" fill="#FFC100"/>
<path opacity="0.6" d="M193.943 99.1611C193.943 99.1611 202.577 103.481 203.101 115.068C203.413 121.485 219.258 135.602 219.258 135.602C219.258 135.602 218.604 137.927 214.139 138.062C209.674 138.197 201.321 133.27 195.449 134.641C189.577 136.012 190.107 138.203 185.45 137.237C180.793 136.271 176.006 137.486 171.484 142.506C171.484 142.506 169.444 125.893 178.15 113.547C178.15 113.547 178.835 110.271 178.072 101.767L193.943 99.1611Z" fill="white"/>
<path d="M193.56 98.2988L178.057 101.772L178.27 104.565L195.361 100.054L193.56 98.2988Z" fill="#FFC100"/>
<path opacity="0.2" d="M182.707 101.684C182.707 101.889 182.767 102.09 182.882 102.261C182.996 102.431 183.158 102.565 183.348 102.643C183.537 102.722 183.746 102.742 183.947 102.702C184.149 102.662 184.334 102.563 184.479 102.418C184.624 102.273 184.723 102.088 184.763 101.886C184.803 101.685 184.783 101.476 184.704 101.286C184.626 101.097 184.492 100.935 184.322 100.821C184.151 100.706 183.95 100.646 183.745 100.646C183.469 100.646 183.205 100.755 183.011 100.95C182.816 101.144 182.707 101.408 182.707 101.684Z" fill="black"/>
<path opacity="0.2" d="M172.116 69.5319C172.116 69.5319 174.162 70.8558 174.515 71.728C174.538 71.7834 174.555 71.8407 174.567 71.8993C175.434 71.2329 176.125 70.3636 176.577 69.3678C177.03 68.372 177.231 67.2802 177.163 66.1885L175.834 66.6402L172.116 69.5319Z" fill="black"/>
<path d="M164.337 63.7486C164.372 63.747 164.405 63.7322 164.43 63.7071C164.454 63.6828 164.467 63.6502 164.467 63.6162C164.467 63.5822 164.454 63.5496 164.43 63.5254C163.641 62.8453 161.237 60.3221 163.464 56.6152C165.39 53.4016 169.419 54.4815 169.461 54.4918C169.477 54.4963 169.494 54.4975 169.51 54.4955C169.527 54.4934 169.542 54.4882 169.557 54.48C169.571 54.4718 169.584 54.4608 169.594 54.4477C169.605 54.4346 169.612 54.4196 169.617 54.4036C169.621 54.3876 169.622 54.3708 169.62 54.3543C169.618 54.3378 169.613 54.3219 169.605 54.3074C169.596 54.293 169.585 54.2803 169.572 54.27C169.559 54.2598 169.544 54.2523 169.528 54.2478C169.487 54.2478 165.276 53.1005 163.246 56.4854C160.92 60.3636 163.433 63.001 164.259 63.7175C164.281 63.7355 164.308 63.7464 164.337 63.7486V63.7486Z" fill="#263238"/>
<path d="M168.2 54.6062C168.2 54.6062 164.831 54.71 163.901 57.555C162.972 60.4001 163.662 63.5982 168.662 67.0454C173.662 70.4927 177.903 67.1804 179.871 64.8701C181.838 62.5598 181.33 54.9229 175.873 53.4484C170.188 51.8702 168.2 54.6062 168.2 54.6062Z" fill="#263238"/>
<path d="M171.41 55.551C167.127 56.1324 166.063 58.614 166.348 63.0737C166.707 68.6444 168.467 72.4187 173.663 70.4874C180.719 67.902 178.528 54.5853 171.41 55.551Z" fill="#EBB376"/>
<path d="M169.087 62.4609C168.832 63.1473 168.495 63.8009 168.085 64.4078C168.234 64.5681 168.424 64.6841 168.635 64.7427C168.846 64.8014 169.069 64.8005 169.279 64.7401L169.087 62.4609Z" fill="#D58745"/>
<path d="M171.662 61.7801C171.703 62.1332 171.926 62.398 172.181 62.372C172.435 62.346 172.575 62.0345 172.534 61.6815C172.492 61.3285 172.274 61.0637 172.015 61.0896C171.755 61.1156 171.625 61.4011 171.662 61.7801Z" fill="#263238"/>
<path d="M172.119 61.0755L171.314 60.8574C171.314 60.8574 171.745 61.4597 172.119 61.0755Z" fill="#263238"/>
<path d="M167.263 62.1756C167.305 62.5287 167.528 62.7935 167.782 62.7675C168.037 62.7415 168.177 62.43 168.135 62.077C168.094 61.724 167.876 61.4592 167.642 61.4852C167.409 61.5111 167.227 61.8226 167.263 62.1756Z" fill="#263238"/>
<path d="M167.721 61.4954L166.916 61.2773C166.916 61.2773 167.373 61.8796 167.721 61.4954Z" fill="#263238"/>
<path d="M173.25 59.3661C173.275 59.3668 173.301 59.3621 173.324 59.3522C173.347 59.3424 173.368 59.3276 173.385 59.309C173.419 59.2742 173.438 59.2276 173.438 59.1792C173.438 59.1308 173.419 59.0843 173.385 59.0494C173.091 58.8156 172.746 58.6542 172.378 58.5785C172.01 58.5027 171.629 58.5146 171.267 58.6133C171.244 58.6194 171.222 58.6301 171.203 58.6446C171.184 58.6592 171.168 58.6773 171.156 58.698C171.144 58.7188 171.136 58.7417 171.133 58.7654C171.129 58.7892 171.131 58.8134 171.137 58.8366C171.143 58.8597 171.154 58.8815 171.168 58.9005C171.183 58.9196 171.201 58.9356 171.222 58.9477C171.243 58.9597 171.265 58.9676 171.289 58.9708C171.313 58.974 171.337 58.9725 171.36 58.9663C171.664 58.8896 171.981 58.8815 172.288 58.9425C172.595 59.0036 172.885 59.1323 173.136 59.3194C173.167 59.3482 173.208 59.3648 173.25 59.3661V59.3661Z" fill="#263238"/>
<path d="M166.508 59.8023C166.552 59.8018 166.594 59.7852 166.627 59.7556C166.823 59.563 167.059 59.4165 167.319 59.3267C167.578 59.2369 167.854 59.206 168.127 59.2364C168.175 59.2467 168.225 59.2378 168.265 59.2115C168.306 59.1852 168.335 59.1437 168.345 59.0962C168.356 59.0487 168.347 58.9991 168.32 58.9582C168.294 58.9173 168.253 58.8885 168.205 58.8782C167.874 58.8382 167.538 58.874 167.222 58.9828C166.906 59.0916 166.619 59.2706 166.383 59.5064C166.353 59.5307 166.332 59.5636 166.323 59.6006C166.313 59.6376 166.315 59.6767 166.329 59.7124C166.343 59.748 166.367 59.7784 166.399 59.7993C166.432 59.8201 166.469 59.8302 166.508 59.8283V59.8023Z" fill="#263238"/>
<path d="M177.08 62.1395C177.08 62.1395 174.593 58.8895 174.531 56.1327C174.531 56.1327 165.565 53.8224 166.323 62.4977C166.323 62.4977 164.449 54.9594 171.79 53.7861C179.131 52.6128 180.569 63.3855 177.205 67.1183C177.205 67.1183 178.617 64.1694 177.08 62.1395Z" fill="#263238"/>
<path d="M176.504 63.1362C176.49 62.8884 176.526 62.6404 176.608 62.4063C176.691 62.1723 176.819 61.9568 176.985 61.7721C177.151 61.5875 177.351 61.4373 177.575 61.3302C177.799 61.2231 178.042 61.1611 178.29 61.1478C179.639 61.1115 180.641 63.7437 177.428 64.8547C176.966 65.0104 176.639 64.5847 176.504 63.1362Z" fill="#EBB376"/>
<path d="M176.728 54.3359C176.931 53.5608 177.287 52.8343 177.776 52.1994C178.264 51.5645 178.875 51.034 179.573 50.6394C182.028 49.1338 184.702 50.0891 186.961 55.0887C189.219 60.0883 192.505 58.9928 193.943 57.7572C193.943 57.7572 193.466 60.1506 190.107 61.1422C186.748 62.1338 184.837 60.4309 183.264 57.6222C182.874 56.8596 182.208 56.274 181.402 55.9847C180.596 55.6954 179.71 55.724 178.924 56.0647L176.728 54.3359Z" fill="#263238"/>
<path d="M169.506 66.018C169.687 66.5259 169.831 67.0465 169.937 67.5756C170.033 67.5807 170.13 67.5807 170.227 67.5756C171.52 67.5184 172.096 67.0564 172.351 66.5736C172.468 66.3349 172.525 66.071 172.517 65.8052C172.521 65.6526 172.502 65.5002 172.46 65.3535C171.678 65.7461 170.821 65.9656 169.947 65.9973C169.667 66.018 169.506 66.018 169.506 66.018Z" fill="#263238"/>
<path d="M169.947 65.9914L170.087 66.4483C171.307 66.3912 172.164 66.1835 172.517 65.7993C172.521 65.6467 172.502 65.4944 172.46 65.3477C171.678 65.7402 170.821 65.9598 169.947 65.9914V65.9914Z" fill="white"/>
<path d="M170.226 67.5694C171.519 67.5123 172.095 67.0502 172.35 66.5674C171.859 66.6028 171.378 66.7222 170.927 66.9204C170.631 67.058 170.386 67.285 170.226 67.5694Z" fill="#DE5753"/>
<path d="M186.155 62.2525C186.182 62.2534 186.208 62.2452 186.23 62.2292C186.252 62.2131 186.267 62.1903 186.274 62.1642C186.283 62.1325 186.28 62.0987 186.266 62.069C186.251 62.0394 186.227 62.016 186.196 62.0033C184.561 61.453 183.871 59.9266 183.201 58.4833C182.853 57.5261 182.324 56.6448 181.643 55.8875C179.852 54.2106 178.43 55.576 178.414 55.5916C178.395 55.6166 178.386 55.6475 178.388 55.6786C178.391 55.7098 178.404 55.7391 178.426 55.7612C178.448 55.7833 178.478 55.7967 178.509 55.7989C178.54 55.8011 178.571 55.792 178.596 55.7733C178.648 55.7214 179.863 54.5636 181.472 56.0744C182.127 56.8022 182.641 57.6455 182.988 58.5612C183.678 60.072 184.395 61.6347 186.129 62.2213L186.155 62.2525Z" fill="#263238"/>
<path d="M181.814 66.5262C181.75 66.5207 181.688 66.5011 181.632 66.4688C181.576 66.4365 181.529 66.3923 181.492 66.3393L180.018 64.2626C179.954 64.1713 179.926 64.0595 179.941 63.949C179.955 63.8385 180.01 63.7374 180.095 63.6656L182.099 61.9523C182.147 61.914 182.202 61.8856 182.261 61.8686C182.32 61.8517 182.381 61.8466 182.442 61.8537L187.27 62.4403C187.382 62.4558 187.483 62.5122 187.555 62.5986C187.627 62.685 187.665 62.7952 187.66 62.9076L187.457 66.5937C187.454 66.6531 187.439 66.7112 187.413 66.7646C187.386 66.818 187.349 66.8655 187.304 66.9043C187.259 66.9431 187.207 66.9724 187.15 66.9904C187.093 67.0084 187.034 67.0147 186.974 67.009L181.814 66.5262ZM181.025 64.0705C181.026 64.0308 181.02 63.9912 181.005 63.9541C180.991 63.917 180.969 63.8831 180.942 63.8545C180.914 63.8259 180.881 63.8032 180.845 63.7877C180.808 63.7722 180.769 63.7642 180.729 63.7642C180.648 63.7628 180.571 63.793 180.512 63.8484C180.454 63.9038 180.42 63.9798 180.417 64.0601C180.427 64.1339 180.463 64.2015 180.519 64.2506C180.575 64.2996 180.647 64.3267 180.721 64.3267C180.795 64.3267 180.867 64.2996 180.923 64.2506C180.979 64.2015 181.015 64.1339 181.025 64.0601V64.0705Z" fill="#FFC100"/>
<path d="M184.089 62.8446C183.991 62.8293 183.891 62.8343 183.795 62.8595C183.7 62.8847 183.61 62.9294 183.533 62.9909C183.455 63.0523 183.391 63.1292 183.345 63.2166C183.298 63.304 183.271 63.4001 183.263 63.4987C183.263 63.8777 183.554 64.1581 184.032 64.1685C184.509 64.1789 184.857 63.9141 184.867 63.5091C184.878 63.1042 184.566 62.8498 184.089 62.8446ZM184.089 63.1924C184.426 63.1924 184.551 63.3326 184.551 63.5039C184.551 63.6753 184.405 63.831 184.032 63.8206C183.658 63.8102 183.57 63.6649 183.57 63.5039C183.57 63.343 183.73 63.1821 184.084 63.1924H184.089ZM186.373 63.8258V63.3741L183.258 65.1497V65.6014L186.373 63.8258ZM185.553 64.9109C185.454 64.8963 185.354 64.9021 185.258 64.9279C185.162 64.9536 185.072 64.9988 184.995 65.0606C184.917 65.1224 184.852 65.1995 184.806 65.2872C184.759 65.3748 184.73 65.4712 184.722 65.5702C184.722 65.944 185.018 66.2244 185.496 66.2348C185.973 66.2451 186.321 65.9804 186.326 65.5754C186.332 65.1705 186.025 64.9213 185.548 64.8953L185.553 64.9109ZM185.553 65.2587C185.885 65.2587 186.015 65.3989 186.01 65.5754C186.004 65.7519 185.864 65.8973 185.49 65.8921C185.117 65.8869 185.023 65.7312 185.028 65.5702C185.034 65.4093 185.184 65.2483 185.542 65.2587H185.553Z" fill="white"/>
<path d="M180.428 64.1689C180.459 64.1705 180.489 64.1612 180.513 64.1428C180.537 64.1244 180.554 64.098 180.561 64.0683C180.568 64.0385 180.564 64.0073 180.55 63.9801C180.536 63.953 180.513 63.9316 180.485 63.9197C180.449 63.9197 177.329 62.3622 177.313 59.8183C177.313 59.7838 177.299 59.7508 177.275 59.7265C177.251 59.7022 177.218 59.6885 177.183 59.6885C177.149 59.6885 177.116 59.7022 177.091 59.7265C177.067 59.7508 177.053 59.7838 177.053 59.8183C177.053 62.5127 180.236 64.0858 180.371 64.1533C180.388 64.1639 180.408 64.1694 180.428 64.1689V64.1689Z" fill="white"/>
<path d="M177.684 59.6154L174.236 53.0791C171.397 53.2029 168.569 53.5081 165.769 53.9928C165.769 53.9928 164.44 55.0312 165.182 55.7217C165.924 56.4122 167.518 55.9138 167.98 55.5192C168.325 55.1282 168.566 54.6569 168.681 54.1486L169.507 54.0448C169.507 54.0448 168.738 55.7632 169.948 55.7217C171.158 55.6801 173.385 54.917 173.816 53.7852L177.564 60.4201L177.684 59.6154Z" fill="#FFC100"/>
<path d="M187.238 72.8029C181.336 71.8996 180.801 90.1431 178.491 94.3847C176.18 98.6263 161.737 109.544 161.737 109.544C161.737 109.544 157.028 109.103 156.026 109.544C155.024 109.986 154.92 113.132 155.735 113.132C156.55 113.132 161.815 114.072 162.843 113.604C163.871 113.137 164.4 111.289 164.4 111.289C164.4 111.289 179.581 103.688 182.711 97.2713C185.307 91.9083 187.773 82.6308 188.469 79.3393C189.165 76.0477 188.734 73.0314 187.238 72.8029Z" fill="#EBB376"/>
<path d="M178.932 82.5792L175.978 88.2121C175.919 88.324 175.833 88.4192 175.728 88.4887C175.622 88.5583 175.501 88.5999 175.374 88.6098C175.248 88.6196 175.122 88.5974 175.007 88.5451C174.892 88.4928 174.792 88.4122 174.716 88.3108L171.01 83.2697C170.931 83.1645 170.881 83.0402 170.866 82.9096C170.851 82.779 170.871 82.6468 170.924 82.5264C170.977 82.406 171.061 82.3018 171.167 82.2244C171.273 82.147 171.398 82.0993 171.529 82.086L178.205 81.5097C178.336 81.5004 178.467 81.5256 178.584 81.5827C178.702 81.6398 178.803 81.7269 178.877 81.8352C178.95 81.9435 178.994 82.0692 179.004 82.1998C179.014 82.3303 178.989 82.4612 178.932 82.5792Z" fill="#FFC100"/>
<path d="M179.377 84.7696V84.9409C179.377 85.1344 179.303 85.3206 179.169 85.4608C179.036 85.601 178.853 85.6844 178.66 85.6937L171.776 86.0208C171.591 86.0295 171.409 85.9697 171.266 85.8528C171.122 85.736 171.026 85.5703 170.997 85.3874V85.3874C170.98 85.2847 170.984 85.1794 171.009 85.0783C171.035 84.9773 171.082 84.8828 171.146 84.801C171.211 84.7192 171.292 84.6519 171.385 84.6036C171.477 84.5553 171.578 84.5269 171.683 84.5204L178.572 84.0012C178.677 83.9932 178.782 84.0072 178.881 84.0425C178.979 84.0778 179.07 84.1334 179.146 84.2059C179.222 84.2784 179.281 84.366 179.321 84.4632C179.361 84.5603 179.38 84.6647 179.377 84.7696V84.7696Z" fill="white"/>
<path d="M95.7297 89.2392C95.7109 89.3757 95.6638 89.5067 95.5914 89.6238C95.519 89.7409 95.4228 89.8416 95.3091 89.9193L90.7249 92.9876C90.5251 93.1237 90.2812 93.1791 90.0423 93.1425C89.8034 93.1059 89.5872 92.98 89.4374 92.7903L85.8499 88.3359C85.7676 88.2314 85.7076 88.1112 85.6736 87.9826C85.6397 87.854 85.6325 87.7198 85.6526 87.5883L87.2101 77.1582C87.2486 76.9165 87.3769 76.6982 87.5694 76.547C87.762 76.3959 88.0045 76.3231 88.2485 76.3431L96.2281 77.0025C96.3578 77.0126 96.4841 77.0491 96.5993 77.1096C96.7145 77.1701 96.8162 77.2533 96.8982 77.3543C96.9803 77.4553 97.041 77.5719 97.0766 77.697C97.1122 77.8222 97.122 77.9533 97.1055 78.0823L95.7297 89.2392ZM90.3563 90.7967C90.2699 90.7926 90.1836 90.8055 90.1023 90.8349C90.021 90.8643 89.9463 90.9095 89.8826 90.9679C89.8189 91.0263 89.7674 91.0968 89.731 91.1752C89.6947 91.2537 89.6743 91.3386 89.671 91.4249C89.6661 91.511 89.6784 91.5972 89.7072 91.6785C89.736 91.7598 89.7807 91.8345 89.8387 91.8983C89.8967 91.9621 89.9668 92.0137 90.045 92.0501C90.1232 92.0865 90.2078 92.1069 90.294 92.1102C90.4602 92.1056 90.6186 92.0384 90.7373 91.9219C90.8561 91.8055 90.9265 91.6485 90.9343 91.4824C90.9422 91.3163 90.887 91.1533 90.7798 91.0261C90.6726 90.899 90.5213 90.8171 90.3563 90.7967Z" fill="#FFC100"/>
<path opacity="0.6" d="M95.7297 89.2392C95.7109 89.3757 95.6638 89.5067 95.5914 89.6238C95.519 89.7409 95.4228 89.8416 95.3091 89.9193L90.7249 92.9876C90.5251 93.1237 90.2812 93.1791 90.0423 93.1425C89.8034 93.1059 89.5872 92.98 89.4374 92.7903L85.8499 88.3359C85.7676 88.2314 85.7076 88.1112 85.6736 87.9826C85.6397 87.854 85.6325 87.7198 85.6526 87.5883L87.2101 77.1582C87.2486 76.9165 87.3769 76.6982 87.5694 76.547C87.762 76.3959 88.0045 76.3231 88.2485 76.3431L96.2281 77.0025C96.3578 77.0126 96.4841 77.0491 96.5993 77.1096C96.7145 77.1701 96.8162 77.2533 96.8982 77.3543C96.9803 77.4553 97.041 77.5719 97.0766 77.697C97.1122 77.8222 97.122 77.9533 97.1055 78.0823L95.7297 89.2392ZM90.3563 90.7967C90.2699 90.7926 90.1836 90.8055 90.1023 90.8349C90.021 90.8643 89.9463 90.9095 89.8826 90.9679C89.8189 91.0263 89.7674 91.0968 89.731 91.1752C89.6947 91.2537 89.6743 91.3386 89.671 91.4249C89.6661 91.511 89.6784 91.5972 89.7072 91.6785C89.736 91.7598 89.7807 91.8345 89.8387 91.8983C89.8967 91.9621 89.9668 92.0137 90.045 92.0501C90.1232 92.0865 90.2078 92.1069 90.294 92.1102C90.4602 92.1056 90.6186 92.0384 90.7373 91.9219C90.8561 91.8055 90.9265 91.6485 90.9343 91.4824C90.9422 91.3163 90.887 91.1533 90.7798 91.0261C90.6726 90.899 90.5213 90.8171 90.3563 90.7967Z" fill="white"/>
<path d="M87.8793 84.0737C87.8274 85.1588 88.4348 85.8753 89.2551 85.9116C90.0754 85.9479 90.6984 85.3198 90.7451 84.2866C90.7919 83.2535 90.226 82.4799 89.3693 82.4384C88.5127 82.3968 87.9261 83.0666 87.8793 84.0737ZM88.6321 84.1101C88.6633 83.3884 88.9696 83.1185 89.3486 83.1341C89.7276 83.1496 90.0391 83.4663 90.0027 84.2503C89.9664 85.0342 89.6237 85.2523 89.2759 85.2367C88.928 85.2211 88.5958 84.8836 88.6321 84.1049V84.1101ZM90.1533 79.2039L89.1721 79.1572L92.827 86.0414L93.803 86.0881L90.1533 79.2039ZM92.4532 81.047C92.4013 82.1269 93.0087 82.8433 93.829 82.8797C94.6493 82.916 95.2671 82.2878 95.319 81.2547C95.3709 80.2215 94.7998 79.448 93.9432 79.4064C93.0866 79.3649 92.4999 80.0087 92.4532 81.047V81.047ZM93.206 81.0781C93.2371 80.3565 93.5435 80.0865 93.9173 80.1021C94.2911 80.1177 94.6129 80.4396 94.5766 81.2183C94.5402 81.9971 94.1976 82.2203 93.8498 82.2047C93.5019 82.1892 93.1697 81.8517 93.206 81.0781V81.0781Z" fill="#FFC100"/>
<path d="M98.0803 106.248C98.1492 106.259 98.2196 106.242 98.2761 106.201C98.3325 106.16 98.3704 106.098 98.3815 106.03C98.3925 105.961 98.3757 105.89 98.3348 105.834C98.2939 105.777 98.2323 105.739 98.1634 105.728C90.4174 103.133 90.5213 91.5603 90.5265 91.4461C90.5265 91.3773 90.4991 91.3112 90.4504 91.2626C90.4017 91.2139 90.3357 91.1865 90.2669 91.1865C90.198 91.1865 90.132 91.2139 90.0833 91.2626C90.0346 91.3112 90.0073 91.3773 90.0073 91.4461C90.0073 91.5655 89.8931 103.532 98.0025 106.232C98.0271 106.242 98.0536 106.248 98.0803 106.248Z" fill="#263238"/>
<path d="M114.305 102.374H114.372C114.569 102.338 119.268 101.486 120.561 99.3266C120.74 99.0399 120.852 98.7163 120.889 98.3801C120.926 98.0439 120.886 97.7038 120.773 97.385C120.55 96.7048 119.87 95.8274 117.877 95.6042C114.502 95.1941 108.853 96.8502 107.799 98.5531C107.749 98.6389 107.734 98.741 107.757 98.8379C107.78 98.9347 107.84 99.0187 107.924 99.0723C108.01 99.1215 108.112 99.1361 108.208 99.1129C108.305 99.0898 108.389 99.0307 108.443 98.9476C109.269 97.6186 114.512 95.9676 117.788 96.3518C118.666 96.4556 119.766 96.7568 120.041 97.603C120.117 97.816 120.144 98.0433 120.119 98.268C120.095 98.4926 120.021 98.709 119.901 98.9009C118.79 100.754 114.284 101.575 114.242 101.58C114.146 101.596 114.058 101.648 113.998 101.725C113.938 101.803 113.909 101.9 113.918 101.998C113.926 102.096 113.971 102.187 114.044 102.253C114.117 102.318 114.212 102.354 114.31 102.353L114.305 102.374Z" fill="#FFC100"/>
<path d="M95.7507 96.7148L90.7511 128.55L106.607 133.467L114.493 131.582L117.078 102.311L109.981 97.4988L95.7507 96.7148Z" fill="#FFC100"/>
<path opacity="0.2" d="M106.607 133.467L109.981 97.499L117.078 102.312L114.493 131.582L106.607 133.467Z" fill="white"/>
<path d="M106.626 99.7522C106.68 99.7522 106.733 99.7412 106.782 99.7197C106.831 99.6983 106.875 99.6669 106.912 99.6276C107.031 99.503 109.829 96.4815 109.694 93.6053C109.676 93.0899 109.549 92.5841 109.324 92.1202C109.099 91.6563 108.779 91.2444 108.386 90.9108C107.893 90.4754 107.285 90.1898 106.635 90.0877C105.985 89.9857 105.319 90.0713 104.716 90.3345C101.663 91.4455 98.4857 95.6612 98.0911 98.2103C98.076 98.3129 98.1022 98.4173 98.164 98.5005C98.2258 98.5838 98.3182 98.639 98.4208 98.6542C98.5233 98.6693 98.6277 98.6431 98.711 98.5813C98.7942 98.5195 98.8495 98.4271 98.8647 98.3245C99.2073 96.0038 102.234 92.0685 104.98 91.0562C105.45 90.8391 105.971 90.7618 106.483 90.8336C106.995 90.9055 107.476 91.1233 107.867 91.4611C108.181 91.7266 108.436 92.0551 108.615 92.4254C108.794 92.7957 108.893 93.1994 108.905 93.6105C109.02 96.1544 106.356 99.0358 106.31 99.0669C106.258 99.1225 106.224 99.1919 106.211 99.2666C106.198 99.3413 106.208 99.418 106.238 99.4875C106.268 99.5569 106.318 99.616 106.382 99.6575C106.445 99.699 106.519 99.7211 106.595 99.7211L106.626 99.7522Z" fill="#FFC100"/>
<g opacity="0.2">
<path opacity="0.2" d="M106.624 99.7522C106.678 99.7522 106.731 99.7412 106.78 99.7197C106.829 99.6983 106.873 99.6669 106.91 99.6276C107.029 99.503 109.828 96.4815 109.693 93.6053C109.674 93.0899 109.547 92.5841 109.322 92.1202C109.097 91.6563 108.778 91.2444 108.384 90.9108C107.891 90.4754 107.283 90.1898 106.633 90.0877C105.983 89.9857 105.317 90.0713 104.714 90.3345C101.661 91.4455 98.4837 95.6612 98.0891 98.2103C98.074 98.3129 98.1002 98.4173 98.162 98.5005C98.2239 98.5838 98.3162 98.639 98.4188 98.6542C98.5214 98.6693 98.6258 98.6431 98.709 98.5813C98.7923 98.5195 98.8476 98.4271 98.8627 98.3245C99.2054 96.0038 102.232 92.0685 104.978 91.0562C105.448 90.8391 105.969 90.7618 106.481 90.8336C106.993 90.9055 107.474 91.1233 107.865 91.4611C108.179 91.7266 108.434 92.0551 108.613 92.4254C108.792 92.7957 108.891 93.1994 108.903 93.6105C109.018 96.1544 106.354 99.0358 106.308 99.0669C106.256 99.1225 106.222 99.1919 106.209 99.2666C106.197 99.3413 106.206 99.418 106.236 99.4875C106.267 99.5569 106.316 99.616 106.38 99.6575C106.443 99.699 106.517 99.7211 106.593 99.7211L106.624 99.7522Z" fill="white"/>
</g>
<path d="M125.277 123.203C125.53 123.204 125.778 123.13 125.989 122.991L139.362 114.165C139.611 113.998 139.904 113.91 140.203 113.91H164.994L156.194 120.909C156.053 121.012 155.934 121.143 155.845 121.293C155.755 121.443 155.697 121.61 155.674 121.783C155.651 121.956 155.663 122.133 155.709 122.301C155.756 122.47 155.836 122.627 155.945 122.764C156.054 122.901 156.189 123.014 156.343 123.097C156.496 123.181 156.665 123.232 156.839 123.248C157.013 123.264 157.189 123.245 157.355 123.192C157.522 123.139 157.676 123.053 157.808 122.939L169.516 113.63C169.727 113.462 169.881 113.233 169.956 112.974C170.032 112.715 170.024 112.439 169.935 112.184C169.846 111.929 169.68 111.709 169.459 111.553C169.239 111.397 168.976 111.314 168.706 111.314H140.198C139.389 111.312 138.597 111.551 137.924 112L124.556 120.826C124.324 120.98 124.148 121.205 124.054 121.467C123.96 121.728 123.953 122.014 124.033 122.28C124.113 122.546 124.277 122.78 124.5 122.946C124.723 123.112 124.994 123.203 125.272 123.203H125.277Z" fill="#FFC100"/>
<g opacity="0.3">
<path opacity="0.3" d="M125.275 123.203C125.528 123.204 125.776 123.13 125.987 122.991L139.36 114.165C139.609 113.998 139.902 113.91 140.201 113.91H164.992L156.192 120.909C156.051 121.012 155.932 121.143 155.843 121.293C155.753 121.443 155.695 121.61 155.672 121.783C155.649 121.956 155.661 122.133 155.707 122.301C155.754 122.47 155.834 122.627 155.943 122.764C156.052 122.901 156.187 123.014 156.341 123.097C156.494 123.181 156.663 123.232 156.837 123.248C157.011 123.264 157.187 123.245 157.353 123.192C157.52 123.139 157.674 123.053 157.806 122.939L169.514 113.63C169.725 113.462 169.879 113.233 169.954 112.974C170.03 112.715 170.022 112.439 169.933 112.184C169.844 111.929 169.678 111.709 169.457 111.553C169.237 111.397 168.974 111.314 168.704 111.314H140.196C139.387 111.312 138.595 111.551 137.922 112L124.554 120.826C124.322 120.98 124.146 121.205 124.052 121.467C123.958 121.728 123.951 122.014 124.031 122.28C124.111 122.546 124.275 122.78 124.498 122.946C124.721 123.112 124.992 123.203 125.27 123.203H125.275Z" fill="black"/>
</g>
<path d="M152.863 142.926L135.912 105.39L118.427 102.903L114.305 109.268L121.303 151.259L141.057 152.92L152.863 142.926Z" fill="#FFC100"/>
<path opacity="0.6" d="M152.863 142.926L135.912 105.39L118.427 102.903L114.305 109.268L121.303 151.259L141.057 152.92L152.863 142.926Z" fill="white"/>
<path opacity="0.2" d="M118.427 102.903L129.106 138.44L152.863 142.926L141.057 152.92L121.303 151.259L114.305 109.268L118.427 102.903Z" fill="black"/>
<path opacity="0.2" d="M152.863 142.926L129.106 138.44L121.303 151.259L141.057 152.92L152.863 142.926Z" fill="black"/>
<path d="M131.728 110.063H132.097C133.992 110.001 135.03 109.57 135.279 108.75C135.716 107.281 133.203 105.422 132.684 105.064C132.601 105.011 132.502 104.992 132.406 105.009C132.31 105.026 132.224 105.079 132.164 105.157C132.111 105.239 132.091 105.339 132.108 105.435C132.125 105.532 132.179 105.618 132.258 105.676C133.327 106.434 134.74 107.81 134.532 108.506C134.47 108.713 134.106 109.196 132.071 109.264C126.215 109.477 123.437 104.591 123.411 104.539C123.389 104.49 123.357 104.446 123.318 104.41C123.278 104.374 123.231 104.346 123.18 104.329C123.129 104.312 123.075 104.305 123.021 104.31C122.967 104.315 122.915 104.331 122.868 104.357C122.821 104.383 122.78 104.418 122.747 104.461C122.714 104.504 122.69 104.553 122.678 104.605C122.665 104.657 122.663 104.712 122.672 104.765C122.681 104.818 122.701 104.868 122.731 104.913C122.757 104.996 125.633 110.063 131.728 110.063Z" fill="#263238"/>
<path d="M120.22 153.985L121.305 116.361L102.199 113.007L93.3423 116.361L94.6818 150.652L103.617 155.179L120.22 153.985Z" fill="#263238"/>
<path opacity="0.3" d="M102.198 113.007L103.615 155.179L94.6804 150.652L93.3409 116.361L102.198 113.007Z" fill="black"/>
<path d="M112.011 126.282C112.504 126.29 112.994 126.196 113.449 126.007C113.905 125.817 114.316 125.536 114.659 125.181C116.969 122.814 116.668 117.456 116.658 117.228C116.65 117.125 116.602 117.029 116.524 116.961C116.446 116.893 116.345 116.859 116.242 116.864C116.191 116.867 116.141 116.88 116.095 116.902C116.05 116.924 116.008 116.955 115.975 116.993C115.941 117.031 115.915 117.076 115.898 117.124C115.882 117.172 115.875 117.224 115.879 117.274C115.879 117.326 116.175 122.518 114.098 124.636C113.812 124.936 113.463 125.169 113.076 125.318C112.689 125.467 112.274 125.528 111.861 125.498C111.476 125.488 111.098 125.396 110.752 125.228C110.407 125.059 110.101 124.819 109.857 124.522C107.655 121.994 108.252 115.587 108.257 115.52C108.262 115.469 108.257 115.417 108.242 115.368C108.227 115.32 108.202 115.274 108.169 115.235C108.136 115.196 108.096 115.164 108.051 115.14C108.005 115.117 107.955 115.103 107.904 115.099C107.854 115.093 107.803 115.098 107.754 115.112C107.705 115.127 107.66 115.151 107.62 115.184C107.581 115.216 107.549 115.256 107.525 115.301C107.502 115.347 107.488 115.396 107.484 115.447C107.453 115.722 106.851 122.253 109.27 125.031C109.583 125.407 109.973 125.713 110.413 125.928C110.854 126.143 111.334 126.262 111.824 126.277L112.011 126.282Z" fill="#FFC100"/>
<g opacity="0.3">
<path opacity="0.3" d="M112.011 126.282C112.504 126.29 112.994 126.196 113.449 126.007C113.905 125.817 114.316 125.536 114.659 125.181C116.969 122.814 116.668 117.456 116.658 117.228C116.65 117.125 116.602 117.029 116.524 116.961C116.446 116.893 116.345 116.859 116.242 116.864C116.191 116.867 116.141 116.88 116.095 116.902C116.05 116.924 116.008 116.955 115.975 116.993C115.941 117.031 115.915 117.076 115.898 117.124C115.882 117.172 115.875 117.224 115.879 117.274C115.879 117.326 116.175 122.518 114.098 124.636C113.812 124.936 113.463 125.169 113.076 125.318C112.689 125.467 112.274 125.528 111.861 125.498C111.476 125.488 111.098 125.396 110.752 125.228C110.407 125.059 110.101 124.819 109.857 124.522C107.655 121.994 108.252 115.587 108.257 115.52C108.262 115.469 108.257 115.417 108.242 115.368C108.227 115.32 108.202 115.274 108.169 115.235C108.136 115.196 108.096 115.164 108.051 115.14C108.005 115.117 107.955 115.103 107.904 115.099C107.854 115.093 107.803 115.098 107.754 115.112C107.705 115.127 107.66 115.151 107.62 115.184C107.581 115.216 107.549 115.256 107.525 115.301C107.502 115.347 107.488 115.396 107.484 115.447C107.453 115.722 106.851 122.253 109.27 125.031C109.583 125.407 109.973 125.713 110.413 125.928C110.854 126.143 111.334 126.262 111.824 126.277L112.011 126.282Z" fill="black"/>
</g>
<path d="M84.776 182.835C85.6794 181.278 87.9897 180.914 89.9313 182.036C91.873 183.157 92.7193 185.343 91.79 186.9C90.8607 188.458 88.5815 188.821 86.6398 187.695C84.6981 186.568 83.8778 184.398 84.776 182.835Z" fill="#263238"/>
<path d="M133.541 182.035C135.482 183.162 136.328 185.337 135.425 186.9C134.522 188.462 132.217 188.821 130.275 187.694C128.333 186.567 127.487 184.397 128.385 182.835C129.283 181.272 131.599 180.914 133.541 182.035Z" fill="#263238"/>
<path d="M90.4863 183.645H132.804C133.148 183.645 133.478 183.509 133.721 183.265C133.965 183.022 134.102 182.692 134.102 182.347C134.102 182.003 133.965 181.673 133.721 181.43C133.478 181.186 133.148 181.05 132.804 181.05H90.4863C90.277 181.05 90.0763 180.966 89.9283 180.818C89.7803 180.67 89.6971 180.47 89.6971 180.26V176.891C89.6988 176.711 89.7613 176.538 89.8744 176.398C89.9876 176.258 90.1447 176.161 90.3201 176.123L125.312 168.553C126.84 168.22 128.21 167.376 129.194 166.161C130.178 164.945 130.719 163.43 130.727 161.866V155.283C130.727 154.939 130.59 154.609 130.347 154.366C130.103 154.122 129.773 153.985 129.429 153.985C129.085 153.985 128.755 154.122 128.511 154.366C128.268 154.609 128.131 154.939 128.131 155.283V161.866C128.128 162.835 127.796 163.775 127.188 164.529C126.58 165.284 125.734 165.81 124.788 166.02L89.7906 173.589C89.0368 173.756 88.3621 174.175 87.8773 174.775C87.3924 175.376 87.1261 176.124 87.1221 176.896V180.266C87.1248 181.158 87.4796 182.014 88.1095 182.647C88.7394 183.28 89.5934 183.639 90.4863 183.645V183.645Z" fill="#FFC100"/>
<g opacity="0.3">
<path opacity="0.3" d="M90.4863 183.645H132.804C133.148 183.645 133.478 183.509 133.721 183.265C133.965 183.022 134.102 182.692 134.102 182.347C134.102 182.003 133.965 181.673 133.721 181.43C133.478 181.186 133.148 181.05 132.804 181.05H90.4863C90.277 181.05 90.0763 180.966 89.9283 180.818C89.7803 180.67 89.6971 180.47 89.6971 180.26V176.891C89.6988 176.711 89.7613 176.538 89.8744 176.398C89.9876 176.258 90.1447 176.161 90.3201 176.123L125.312 168.553C126.84 168.22 128.21 167.376 129.194 166.161C130.178 164.945 130.719 163.43 130.727 161.866V155.283C130.727 154.939 130.59 154.609 130.347 154.366C130.103 154.122 129.773 153.985 129.429 153.985C129.085 153.985 128.755 154.122 128.511 154.366C128.268 154.609 128.131 154.939 128.131 155.283V161.866C128.128 162.835 127.796 163.775 127.188 164.529C126.58 165.284 125.734 165.81 124.788 166.02L89.7906 173.589C89.0368 173.756 88.3621 174.175 87.8773 174.775C87.3924 175.376 87.1261 176.124 87.1221 176.896V180.266C87.1248 181.158 87.4796 182.014 88.1095 182.647C88.7394 183.28 89.5934 183.639 90.4863 183.645V183.645Z" fill="black"/>
</g>
<path d="M90.522 138.908V138.82L89.006 130.44L87.4485 121.838C87.4161 121.651 87.4247 121.46 87.4738 121.277C87.5229 121.094 87.6114 120.924 87.7329 120.778C87.8545 120.633 88.0063 120.516 88.1778 120.435C88.3492 120.355 88.5362 120.312 88.7257 120.312H105.209C105.553 120.312 105.884 120.448 106.127 120.692C106.37 120.935 106.507 121.265 106.507 121.609C106.507 121.954 106.37 122.284 106.127 122.527C105.884 122.771 105.553 122.907 105.209 122.907H100.485L101.315 128.888H136.868C137.212 128.888 137.542 129.025 137.786 129.268C138.029 129.512 138.166 129.842 138.166 130.186C138.166 130.53 138.029 130.86 137.786 131.104C137.542 131.347 137.212 131.484 136.868 131.484H101.653L102.468 137.325H134.714C135.058 137.325 135.388 137.461 135.631 137.705C135.875 137.948 136.011 138.278 136.011 138.623C136.011 138.967 135.875 139.297 135.631 139.54C135.388 139.784 135.058 139.921 134.714 139.921H102.857L103.698 145.948H132.637C132.981 145.948 133.311 146.085 133.555 146.328C133.798 146.572 133.935 146.902 133.935 147.246C133.935 147.59 133.798 147.92 133.555 148.164C133.311 148.407 132.981 148.544 132.637 148.544H104.083L104.841 153.995H108.2C108.544 153.995 108.874 154.132 109.117 154.375C109.361 154.619 109.498 154.949 109.498 155.293C109.498 155.637 109.361 155.967 109.117 156.211C108.874 156.454 108.544 156.591 108.2 156.591H94.7999C94.4957 156.59 94.2014 156.482 93.9681 156.287C93.7349 156.092 93.5773 155.821 93.5228 155.521L92.0743 147.511L90.522 138.908ZM92.8738 137.314H94.6805L93.6422 131.474H91.7888L92.8738 137.314ZM93.3411 139.91L94.4313 145.938H96.1965L95.1581 139.91H93.3411ZM91.3475 128.878H93.2009L92.1626 122.897H90.278L91.3475 128.878ZM97.863 122.897H94.7843L95.8227 128.878H98.6833L97.863 122.897ZM99.0571 131.474H96.2899L97.3283 137.314H99.8826L99.0571 131.474ZM100.236 139.91H97.7748L98.8131 145.938H101.061L100.236 139.91ZM101.44 148.533H99.2855L100.241 153.985H102.172L101.44 148.533ZM97.6086 153.985L96.6482 148.533H94.9038L95.8902 153.985H97.6086Z" fill="#FFC100"/>
<g opacity="0.3">
<path opacity="0.3" d="M90.522 138.908V138.82L89.006 130.44L87.4485 121.838C87.4161 121.651 87.4247 121.46 87.4738 121.277C87.5229 121.094 87.6114 120.924 87.7329 120.778C87.8545 120.633 88.0063 120.516 88.1778 120.435C88.3492 120.355 88.5362 120.312 88.7257 120.312H105.209C105.553 120.312 105.884 120.448 106.127 120.692C106.37 120.935 106.507 121.265 106.507 121.609C106.507 121.954 106.37 122.284 106.127 122.527C105.884 122.771 105.553 122.907 105.209 122.907H100.485L101.315 128.888H136.868C137.212 128.888 137.542 129.025 137.786 129.268C138.029 129.512 138.166 129.842 138.166 130.186C138.166 130.53 138.029 130.86 137.786 131.104C137.542 131.347 137.212 131.484 136.868 131.484H101.653L102.468 137.325H134.714C135.058 137.325 135.388 137.461 135.631 137.705C135.875 137.948 136.011 138.278 136.011 138.623C136.011 138.967 135.875 139.297 135.631 139.54C135.388 139.784 135.058 139.921 134.714 139.921H102.857L103.698 145.948H132.637C132.981 145.948 133.311 146.085 133.555 146.328C133.798 146.572 133.935 146.902 133.935 147.246C133.935 147.59 133.798 147.92 133.555 148.164C133.311 148.407 132.981 148.544 132.637 148.544H104.083L104.841 153.995H108.2C108.544 153.995 108.874 154.132 109.117 154.375C109.361 154.619 109.498 154.949 109.498 155.293C109.498 155.637 109.361 155.967 109.117 156.211C108.874 156.454 108.544 156.591 108.2 156.591H94.7999C94.4957 156.59 94.2014 156.482 93.9681 156.287C93.7349 156.092 93.5773 155.821 93.5228 155.521L92.0743 147.511L90.522 138.908ZM92.8738 137.314H94.6805L93.6422 131.474H91.7888L92.8738 137.314ZM93.3411 139.91L94.4313 145.938H96.1965L95.1581 139.91H93.3411ZM91.3475 128.878H93.2009L92.1626 122.897H90.278L91.3475 128.878ZM97.863 122.897H94.7843L95.8227 128.878H98.6833L97.863 122.897ZM99.0571 131.474H96.2899L97.3283 137.314H99.8826L99.0571 131.474ZM100.236 139.91H97.7748L98.8131 145.938H101.061L100.236 139.91ZM101.44 148.533H99.2855L100.241 153.985H102.172L101.44 148.533ZM97.6086 153.985L96.6482 148.533H94.9038L95.8902 153.985H97.6086Z" fill="black"/>
</g>
<path d="M104.251 120.722C104.372 120.589 104.52 120.483 104.684 120.411C104.849 120.339 105.027 120.301 105.206 120.302H158.032C158.23 120.299 158.427 120.342 158.607 120.427C158.787 120.511 158.945 120.635 159.07 120.79C159.191 120.942 159.276 121.12 159.319 121.309C159.362 121.499 159.362 121.696 159.319 121.885L157.372 130.436L151.661 155.564C151.602 155.856 151.443 156.119 151.213 156.308C150.982 156.497 150.693 156.601 150.395 156.602H108.207C107.883 156.601 107.571 156.479 107.332 156.26C107.093 156.041 106.944 155.741 106.914 155.418L103.945 121.735C103.922 121.554 103.937 121.37 103.99 121.196C104.042 121.021 104.131 120.86 104.251 120.722V120.722ZM108.664 145.938H114.686L114.422 139.916H108.129L108.664 145.938ZM142.088 153.985L142.794 148.534H136.31L135.915 153.985H142.088ZM134.519 137.32L134.944 131.474H126.394V137.32H134.519ZM126.394 139.916V145.938H133.896L134.332 139.916H126.394ZM123.798 131.474H116.649L116.903 137.32H123.798V131.474ZM123.798 128.879V122.898H116.27L116.535 128.879H123.798ZM126.394 128.879H135.131L135.562 122.898H126.394V128.879ZM137.732 128.879H145.333L146.106 122.898H138.168L137.732 128.879ZM137.545 131.474L137.125 137.32H144.227L144.985 131.474H137.545ZM146.859 137.32H153.125L154.455 131.474H147.617L146.859 137.32ZM152.534 139.916H146.527L145.748 145.938H151.163L152.534 139.916ZM143.905 139.916H136.933L136.497 145.938H143.126L143.905 139.916ZM133.709 148.534H126.394V153.985H133.324L133.709 148.534ZM123.798 148.534H117.402L117.64 153.985H123.798V148.534ZM123.798 145.938V139.916H117.017L117.282 145.938H123.798ZM114.307 137.32L114.048 131.474H107.366L107.885 137.32H114.307ZM107.158 128.879H113.908L113.643 122.898H106.603L107.158 128.879ZM148.723 122.898L147.949 128.879H155.046L156.407 122.898H148.723ZM150.576 148.534H145.411L144.705 153.985H149.336L150.576 148.534ZM115.039 153.985L114.801 148.534H108.892L109.37 153.985H115.039Z" fill="#FFC100"/>
<path d="M111.254 183.645H153.571C153.915 183.645 154.246 183.509 154.489 183.265C154.732 183.022 154.869 182.692 154.869 182.347C154.869 182.003 154.732 181.673 154.489 181.43C154.246 181.186 153.915 181.05 153.571 181.05H111.254C111.045 181.05 110.844 180.966 110.696 180.818C110.548 180.67 110.465 180.47 110.465 180.26V176.891C110.466 176.711 110.529 176.538 110.642 176.398C110.755 176.258 110.912 176.161 111.088 176.123L146.08 168.553C147.608 168.22 148.977 167.376 149.962 166.161C150.946 164.945 151.487 163.43 151.495 161.866V155.283C151.495 154.939 151.358 154.609 151.114 154.366C150.871 154.122 150.541 153.985 150.197 153.985C149.852 153.985 149.522 154.122 149.279 154.366C149.035 154.609 148.899 154.939 148.899 155.283V161.866C148.896 162.835 148.563 163.775 147.955 164.529C147.348 165.284 146.501 165.81 145.555 166.02L110.558 173.589C109.804 173.756 109.13 174.175 108.645 174.775C108.16 175.376 107.894 176.124 107.89 176.896V180.266C107.892 181.158 108.247 182.014 108.877 182.647C109.507 183.28 110.361 183.639 111.254 183.645Z" fill="#FFC100"/>
<path d="M109.509 187.694C107.565 186.571 106.719 184.395 107.621 182.833C108.523 181.271 110.83 180.915 112.774 182.038C114.719 183.16 115.564 185.336 114.662 186.898C113.76 188.46 111.453 188.816 109.509 187.694Z" fill="#263238"/>
<path d="M110.168 183.754C109.722 184.523 110.137 185.587 111.093 186.137C112.048 186.687 113.169 186.516 113.621 185.748C114.073 184.979 113.652 183.915 112.697 183.36C111.742 182.804 110.61 182.986 110.168 183.754Z" fill="#FFC100"/>
<path d="M153.116 187.694C151.172 186.571 150.327 184.395 151.229 182.833C152.13 181.271 154.438 180.915 156.382 182.038C158.326 183.16 159.171 185.336 158.27 186.898C157.368 188.46 155.061 188.816 153.116 187.694Z" fill="#263238"/>
<path d="M153.78 183.754C153.333 184.523 153.749 185.587 154.704 186.137C155.659 186.687 156.781 186.516 157.232 185.748C157.684 184.979 157.263 183.915 156.308 183.36C155.353 182.804 154.221 182.986 153.78 183.754Z" fill="#FFC100"/>
<path d="M136.13 95.8273C136.014 95.9045 135.883 95.9557 135.746 95.9772C135.609 95.9987 135.469 95.9901 135.335 95.9519L130.024 94.4878C129.791 94.4242 129.591 94.275 129.463 94.07C129.335 93.8651 129.289 93.6194 129.334 93.382L130.372 87.7594C130.397 87.6282 130.449 87.5034 130.524 87.3927C130.599 87.2821 130.696 87.1878 130.808 87.1156L139.754 81.5086C139.961 81.3789 140.209 81.3325 140.449 81.3788C140.689 81.425 140.902 81.5605 141.046 81.7578L145.745 88.2578C145.821 88.3633 145.875 88.483 145.904 88.6099C145.933 88.7368 145.935 88.8682 145.912 88.9962C145.889 89.1242 145.84 89.2462 145.768 89.3549C145.697 89.4635 145.604 89.5565 145.496 89.6284L136.13 95.8273ZM131.457 92.7694C131.378 92.6674 131.27 92.5914 131.147 92.5508C131.024 92.5102 130.892 92.5069 130.767 92.5413C130.643 92.5758 130.531 92.6464 130.447 92.7442C130.362 92.8421 130.308 92.9628 130.292 93.0912C130.276 93.2195 130.299 93.3497 130.357 93.4653C130.415 93.5809 130.506 93.6767 130.618 93.7406C130.731 93.8045 130.86 93.8336 130.989 93.8243C131.118 93.815 131.241 93.7677 131.343 93.6883C131.478 93.5794 131.564 93.4215 131.582 93.2493C131.601 93.077 131.55 92.9044 131.442 92.7694H131.457Z" fill="#FFC100"/>
<path d="M134.932 86.5082C134.08 87.1779 133.93 88.1072 134.439 88.751C134.947 89.3947 135.825 89.457 136.64 88.8185C137.455 88.1799 137.678 87.261 137.159 86.5757C136.64 85.8904 135.752 85.8748 134.932 86.5082ZM135.399 87.1052C135.97 86.6587 136.37 86.7158 136.603 87.0118C136.837 87.3077 136.801 87.7542 136.183 88.237C135.565 88.7198 135.181 88.6004 134.963 88.3253C134.745 88.0501 134.786 87.5777 135.399 87.1052ZM140.113 85.0597L139.506 84.2861L136.671 91.5545L137.273 92.328L140.113 85.0597ZM140.212 88.0034C139.36 88.6731 139.21 89.5972 139.693 90.2462C140.175 90.8951 141.084 90.9522 141.899 90.3137C142.714 89.6751 142.937 88.7562 142.418 88.0709C141.899 87.3856 141.027 87.37 140.212 88.0034ZM140.674 88.6004C141.245 88.1539 141.65 88.211 141.883 88.507C142.117 88.8029 142.081 89.2494 141.463 89.727C140.845 90.2046 140.456 90.0956 140.243 89.8205C140.03 89.5453 140.072 89.0729 140.674 88.6004Z" fill="white"/>
<path d="M104.435 129.381C104.493 129.255 104.578 129.144 104.684 129.054C104.79 128.964 104.914 128.899 105.048 128.862L110.348 127.346C110.58 127.281 110.829 127.304 111.045 127.411C111.26 127.519 111.429 127.703 111.516 127.928L113.557 133.275C113.603 133.4 113.624 133.532 113.618 133.665C113.612 133.798 113.579 133.929 113.52 134.049L108.811 143.482C108.703 143.702 108.515 143.873 108.286 143.959C108.056 144.044 107.802 144.039 107.576 143.944L100.188 140.865C100.067 140.817 99.9566 140.744 99.8642 140.651C99.7718 140.559 99.6991 140.449 99.6506 140.327C99.602 140.206 99.5786 140.076 99.5818 139.945C99.585 139.815 99.6146 139.686 99.6689 139.567L104.435 129.381ZM110.026 129.542C110.148 129.587 110.28 129.596 110.405 129.566C110.531 129.536 110.646 129.47 110.734 129.375C110.822 129.28 110.88 129.162 110.901 129.034C110.922 128.906 110.904 128.775 110.85 128.658C110.796 128.54 110.709 128.441 110.599 128.373C110.489 128.305 110.361 128.271 110.232 128.276C110.102 128.28 109.977 128.323 109.872 128.399C109.767 128.475 109.687 128.58 109.642 128.701C109.611 128.781 109.597 128.867 109.6 128.953C109.603 129.039 109.622 129.124 109.658 129.202C109.694 129.28 109.745 129.351 109.808 129.409C109.871 129.467 109.946 129.513 110.026 129.542Z" fill="#FFC100"/>
<path opacity="0.6" d="M104.435 129.381C104.493 129.255 104.578 129.144 104.684 129.054C104.79 128.964 104.914 128.899 105.048 128.862L110.348 127.346C110.58 127.281 110.829 127.304 111.045 127.411C111.26 127.519 111.429 127.703 111.516 127.928L113.557 133.275C113.603 133.4 113.624 133.532 113.618 133.665C113.612 133.798 113.579 133.929 113.52 134.049L108.811 143.482C108.703 143.702 108.515 143.873 108.286 143.959C108.056 144.044 107.802 144.039 107.576 143.944L100.188 140.865C100.067 140.817 99.9566 140.744 99.8642 140.651C99.7718 140.559 99.6991 140.449 99.6506 140.327C99.602 140.206 99.5786 140.076 99.5818 139.945C99.585 139.815 99.6146 139.686 99.6689 139.567L104.435 129.381ZM110.026 129.542C110.148 129.587 110.28 129.596 110.405 129.566C110.531 129.536 110.646 129.47 110.734 129.375C110.822 129.28 110.88 129.162 110.901 129.034C110.922 128.906 110.904 128.775 110.85 128.658C110.796 128.54 110.709 128.441 110.599 128.373C110.489 128.305 110.361 128.271 110.232 128.276C110.102 128.28 109.977 128.323 109.872 128.399C109.767 128.475 109.687 128.58 109.642 128.701C109.611 128.781 109.597 128.867 109.6 128.953C109.603 129.039 109.622 129.124 109.658 129.202C109.694 129.28 109.745 129.351 109.808 129.409C109.871 129.467 109.946 129.513 110.026 129.542Z" fill="white"/>
<path d="M110.318 136.702C110.697 135.689 110.318 134.822 109.575 134.531C108.833 134.241 108.018 134.656 107.654 135.627C107.291 136.598 107.577 137.496 108.397 137.802C109.217 138.109 109.96 137.672 110.318 136.702ZM109.612 136.437C109.357 137.117 108.984 137.278 108.631 137.148C108.277 137.018 108.075 136.629 108.35 135.886C108.625 135.144 109.02 135.051 109.342 135.17C109.664 135.289 109.882 135.715 109.612 136.437ZM106.658 140.642L107.577 140.985L106.211 133.311L105.292 132.969L106.658 140.642ZM105.038 138.181C105.417 137.143 105.038 136.302 104.29 136.011C103.543 135.72 102.733 136.136 102.375 137.101C102.016 138.067 102.291 138.976 103.112 139.282C103.932 139.588 104.669 139.136 105.038 138.181ZM104.332 137.916C104.077 138.597 103.704 138.757 103.351 138.628C102.998 138.498 102.795 138.109 103.07 137.366C103.345 136.624 103.735 136.53 104.062 136.65C104.389 136.769 104.602 137.195 104.332 137.916V137.916Z" fill="#263238"/>
<path d="M154.089 128.405C153.893 128.315 153.718 128.184 153.577 128.021C153.435 127.858 153.33 127.667 153.269 127.46L150.834 119.215C150.727 118.854 150.76 118.466 150.925 118.128C151.09 117.79 151.376 117.526 151.727 117.388L160.034 114.127C160.228 114.054 160.435 114.02 160.643 114.029C160.851 114.037 161.055 114.086 161.243 114.174L176.024 121.37C176.366 121.537 176.632 121.827 176.768 122.183C176.904 122.539 176.9 122.933 176.756 123.286L172.083 134.853C172.008 135.041 171.895 135.211 171.751 135.355C171.608 135.498 171.437 135.61 171.248 135.686C171.06 135.761 170.858 135.797 170.656 135.792C170.453 135.787 170.254 135.741 170.069 135.657L154.089 128.405ZM154.266 119.683C154.339 119.489 154.353 119.279 154.305 119.078C154.258 118.877 154.152 118.694 154.001 118.554C153.85 118.413 153.66 118.321 153.456 118.289C153.252 118.257 153.043 118.287 152.856 118.374C152.669 118.461 152.512 118.602 152.405 118.779C152.299 118.956 152.247 119.161 152.258 119.367C152.268 119.573 152.339 119.772 152.463 119.937C152.587 120.102 152.757 120.227 152.952 120.295C153.209 120.388 153.492 120.375 153.74 120.261C153.988 120.146 154.18 119.938 154.276 119.683H154.266Z" fill="#263238"/>
<path d="M165.428 119.128C163.845 118.546 162.495 119.128 162.059 120.322C161.623 121.516 162.272 122.741 163.788 123.292C165.304 123.842 166.706 123.39 167.173 122.103C167.64 120.815 166.95 119.678 165.428 119.128ZM165.029 120.229C166.093 120.618 166.347 121.194 166.15 121.745C165.953 122.295 165.33 122.622 164.182 122.201C163.144 121.822 162.869 121.163 163.056 120.67C163.243 120.177 163.897 119.818 165.029 120.229ZM171.627 124.771L172.146 123.338L160.206 125.581L159.686 127.019L171.627 124.771ZM167.817 127.341C166.228 126.76 164.878 127.341 164.442 128.535C164.006 129.729 164.655 130.955 166.171 131.505C167.687 132.055 169.089 131.604 169.556 130.316C170.023 129.028 169.333 127.891 167.817 127.341ZM167.412 128.442C168.476 128.831 168.736 129.407 168.533 129.958C168.331 130.508 167.713 130.835 166.571 130.415C165.532 130.036 165.257 129.376 165.439 128.883C165.621 128.39 166.28 128.032 167.412 128.442Z" fill="white"/>
<path d="M152.866 119.159C152.934 119.166 153.003 119.145 153.057 119.101C153.11 119.058 153.144 118.994 153.151 118.925C153.158 118.857 153.137 118.788 153.093 118.734C153.05 118.681 152.986 118.647 152.917 118.64C152.751 118.604 136.278 115.229 133.833 108.464C133.808 108.401 133.76 108.351 133.698 108.323C133.637 108.295 133.567 108.292 133.503 108.315C133.439 108.338 133.387 108.385 133.358 108.446C133.328 108.507 133.324 108.577 133.345 108.641C135.889 115.681 152.128 119.024 152.819 119.149L152.866 119.159Z" fill="#FFC100"/>
<path d="M121.726 98.0863C126.399 98.0863 130.407 93.933 130.599 93.7565C130.623 93.7324 130.643 93.7036 130.656 93.672C130.669 93.6404 130.676 93.6065 130.676 93.5722C130.676 93.5379 130.669 93.504 130.656 93.4724C130.643 93.4407 130.623 93.412 130.599 93.3879C130.575 93.3637 130.547 93.3445 130.516 93.3314C130.485 93.3183 130.451 93.3115 130.417 93.3115C130.383 93.3115 130.35 93.3183 130.319 93.3314C130.288 93.3445 130.259 93.3637 130.236 93.3879C130.184 93.445 124.893 98.8859 119.645 97.2401C119.579 97.2206 119.509 97.2277 119.448 97.2597C119.388 97.2918 119.343 97.3463 119.323 97.4114C119.311 97.4438 119.307 97.4781 119.309 97.5123C119.311 97.5464 119.321 97.5798 119.336 97.6104C119.352 97.6409 119.373 97.668 119.399 97.69C119.426 97.712 119.456 97.7285 119.489 97.7385C120.213 97.9681 120.967 98.0854 121.726 98.0863V98.0863Z" fill="#263238"/>
<path d="M110.26 129.138C110.32 129.136 110.378 129.116 110.427 129.081C110.489 129.029 111.948 127.783 111.662 124.886C111.659 124.852 111.649 124.818 111.634 124.788C111.618 124.758 111.596 124.731 111.57 124.709C111.543 124.687 111.513 124.671 111.48 124.66C111.448 124.65 111.413 124.646 111.379 124.649C111.345 124.653 111.312 124.662 111.282 124.678C111.251 124.694 111.224 124.716 111.203 124.742C111.181 124.768 111.164 124.799 111.154 124.831C111.144 124.864 111.14 124.898 111.143 124.932C111.397 127.528 110.141 128.634 110.105 128.681C110.078 128.702 110.057 128.729 110.041 128.759C110.025 128.789 110.015 128.822 110.012 128.856C110.009 128.89 110.013 128.924 110.024 128.956C110.034 128.989 110.051 129.019 110.074 129.044C110.096 129.072 110.124 129.095 110.157 129.111C110.189 129.128 110.224 129.137 110.26 129.138Z" fill="#FFC100"/>
</svg>
