<svg width="262" height="186" viewBox="0 0 262 186" fill="none" xmlns="http://www.w3.org/2000/svg">
<path d="M125.29 152.058L119.367 185.628H139.245L137.23 152.058H125.29Z" fill="#E6E6E6"/>
<path d="M143.873 152.058L152.388 185.628H165.71L154.791 152.058H143.873Z" fill="#E6E6E6"/>
<path d="M162.285 152.058L179.807 185.628H194.927L172.153 152.058H162.285Z" fill="#E6E6E6"/>
<path d="M180.062 152.058L209.099 185.628H227.18L190.896 152.058H180.062Z" fill="#E6E6E6"/>
<path d="M117.874 152.058L109.359 185.628H96.0371L106.955 152.058H117.874Z" fill="#E6E6E6"/>
<path d="M99.4638 152.058L81.9414 185.628H66.8223L89.5956 152.058H99.4638Z" fill="#E6E6E6"/>
<path d="M81.6856 152.058L52.6489 185.628H34.5684L70.8524 152.058H81.6856Z" fill="#E6E6E6"/>
<path opacity="0.4" d="M125.29 152.058L119.367 185.628H139.245L137.23 152.058H125.29Z" fill="white"/>
<path opacity="0.4" d="M143.873 152.058L152.388 185.628H165.71L154.791 152.058H143.873Z" fill="white"/>
<path opacity="0.4" d="M162.285 152.058L179.807 185.628H194.927L172.153 152.058H162.285Z" fill="white"/>
<path opacity="0.4" d="M180.062 152.058L209.099 185.628H227.18L190.896 152.058H180.062Z" fill="white"/>
<path opacity="0.4" d="M117.874 152.058L109.359 185.628H96.0371L106.955 152.058H117.874Z" fill="white"/>
<path opacity="0.4" d="M99.4638 152.058L81.9414 185.628H66.8223L89.5956 152.058H99.4638Z" fill="white"/>
<path opacity="0.4" d="M81.6856 152.058L52.6489 185.628H34.5684L70.8524 152.058H81.6856Z" fill="white"/>
<path d="M23.0833 154.072C25.7395 153.978 28.3468 153.331 30.7389 152.172C33.1311 151.014 35.2554 149.37 36.9765 147.345C38.6975 145.319 39.9774 142.957 40.7345 140.41C41.4915 137.862 41.7091 135.185 41.3733 132.548C40.897 128.788 39.3235 125.272 38.2119 121.649C36.1115 114.799 35.4403 107.069 30.6188 101.764C29.1307 100.132 27.3187 98.829 25.2985 97.9373C23.2784 97.0455 21.0944 96.585 18.8861 96.585C16.6779 96.585 14.4939 97.0455 12.4737 97.9373C10.4536 98.829 8.64157 100.132 7.15353 101.764C4.0282 105.192 2.54854 109.826 1.90616 114.424C1.26377 119.022 1.35038 123.677 0.953401 128.275C0.592508 132.108 -0.136495 135.933 0.0222977 139.78C0.18109 143.627 1.33595 147.633 4.15813 150.253C5.59894 151.482 7.20795 152.498 8.93634 153.27C10.6003 154.197 12.4045 154.846 14.2775 155.19C15.2162 155.357 16.1802 155.31 17.0984 155.054C18.0166 154.798 18.8656 154.339 19.5827 153.711C20.7258 154.001 21.9051 154.122 23.0833 154.072V154.072Z" fill="#E6E6E6"/>
<path opacity="0.7" d="M23.0833 154.072C25.7395 153.978 28.3468 153.331 30.7389 152.172C33.1311 151.014 35.2554 149.37 36.9765 147.345C38.6975 145.319 39.9774 142.957 40.7345 140.41C41.4915 137.862 41.7091 135.185 41.3733 132.548C40.897 128.788 39.3235 125.272 38.2119 121.649C36.1115 114.799 35.4403 107.069 30.6188 101.764C29.1307 100.132 27.3187 98.829 25.2985 97.9373C23.2784 97.0455 21.0944 96.585 18.8861 96.585C16.6779 96.585 14.4939 97.0455 12.4737 97.9373C10.4536 98.829 8.64157 100.132 7.15353 101.764C4.0282 105.192 2.54854 109.826 1.90616 114.424C1.26377 119.022 1.35038 123.677 0.953401 128.275C0.592508 132.108 -0.136495 135.933 0.0222977 139.78C0.18109 143.627 1.33595 147.633 4.15813 150.253C5.59894 151.482 7.20795 152.498 8.93634 153.27C10.6003 154.197 12.4045 154.846 14.2775 155.19C15.2162 155.357 16.1802 155.31 17.0984 155.054C18.0166 154.798 18.8656 154.339 19.5827 153.711C20.7258 154.001 21.9051 154.122 23.0833 154.072V154.072Z" fill="white"/>
<path d="M14.2559 168.067V167.107L15.851 165.757C15.851 165.757 17.7565 146.269 18.0813 140.624C18.4061 134.98 18.8031 126.088 16.7244 119.635C18.5659 124.035 19.8768 128.639 20.6292 133.349C20.6292 133.349 23.0977 124.471 27.479 118.819C27.479 118.819 22.1377 132.461 22.8595 145.15C23.2194 152.361 24.1242 159.534 25.5662 166.609L26.519 167.244L26.5984 168.045L14.2559 168.067Z" fill="#E6E6E6"/>
<path d="M19.1292 136.756C19.1292 136.756 17.7433 130.606 14.0117 127.561C14.0117 127.561 17.137 131.891 18.162 139.167C19.1869 146.442 20.2768 141.823 20.2768 141.823L19.1292 136.756Z" fill="#E6E6E6"/>
<path d="M17.497 153.393C17.0526 151.884 16.0585 150.596 14.7109 149.784C14.7109 149.784 16.1545 151.17 16.8186 155.609C17.4826 160.048 19.1427 157.601 19.1427 157.601L19.2726 155.154L17.497 153.393Z" fill="#E6E6E6"/>
<path opacity="0.2" d="M16.8312 155.602C16.1094 151.163 14.7236 149.777 14.7236 149.777C15.7502 150.411 16.5799 151.318 17.1199 152.397C17.553 147.669 17.9572 142.956 18.0943 140.625C18.0943 140.163 18.1448 139.672 18.1665 139.181C17.1415 131.877 14.0234 127.575 14.0234 127.575C16.1888 129.343 17.5674 132.165 18.3541 134.215C18.4191 129.408 18.1376 123.98 16.7518 119.65C18.5934 124.05 19.9042 128.653 20.6566 133.364C20.6566 133.364 23.1251 124.486 27.5064 118.834C27.5064 118.834 22.1652 132.476 22.887 145.165C23.2468 152.376 24.1516 159.549 25.5936 166.623L26.5464 167.259L26.6258 168.06H14.2544V167.1L15.8496 165.75C15.8496 165.75 16.3043 161.051 16.8312 155.602Z" fill="black"/>
<path d="M235.69 157.161C232.691 157.053 229.748 156.322 227.047 155.014C224.347 153.706 221.949 151.849 220.006 149.563C218.063 147.276 216.618 144.61 215.763 141.734C214.908 138.858 214.661 135.835 215.039 132.858C215.581 128.614 217.356 124.644 218.612 120.588C220.987 112.85 221.745 104.124 227.187 98.1404C228.865 96.2972 230.91 94.8247 233.19 93.8171C235.47 92.8095 237.935 92.2891 240.428 92.2891C242.921 92.2891 245.386 92.8095 247.666 93.8171C249.946 94.8247 251.991 96.2972 253.669 98.1404C257.199 102.002 258.873 107.242 259.602 112.425C260.331 117.607 260.216 122.869 260.699 128.087C261.104 132.418 261.926 136.749 261.753 141.079C261.58 145.41 260.266 149.943 257.083 152.909C255.446 154.301 253.618 155.45 251.655 156.323C249.776 157.37 247.737 158.101 245.621 158.489C244.561 158.677 243.472 158.624 242.435 158.335C241.398 158.045 240.439 157.525 239.63 156.814C238.341 157.121 237.013 157.238 235.69 157.161V157.161Z" fill="#E6E6E6"/>
<path opacity="0.7" d="M235.69 157.161C232.691 157.053 229.748 156.322 227.047 155.014C224.347 153.706 221.949 151.849 220.006 149.563C218.063 147.276 216.618 144.61 215.763 141.734C214.908 138.858 214.661 135.835 215.039 132.858C215.581 128.614 217.356 124.644 218.612 120.588C220.987 112.85 221.745 104.124 227.187 98.1404C228.865 96.2972 230.91 94.8247 233.19 93.8171C235.47 92.8095 237.935 92.2891 240.428 92.2891C242.921 92.2891 245.386 92.8095 247.666 93.8171C249.946 94.8247 251.991 96.2972 253.669 98.1404C257.199 102.002 258.873 107.242 259.602 112.425C260.331 117.607 260.216 122.869 260.699 128.087C261.104 132.418 261.926 136.749 261.753 141.079C261.58 145.41 260.266 149.943 257.083 152.909C255.446 154.301 253.618 155.45 251.655 156.323C249.776 157.37 247.737 158.101 245.621 158.489C244.561 158.677 243.472 158.624 242.435 158.335C241.398 158.045 240.439 157.525 239.63 156.814C238.341 157.121 237.013 157.238 235.69 157.161V157.161Z" fill="white"/>
<path d="M245.641 172.953V171.878L243.843 170.348C243.843 170.348 241.678 148.326 241.324 141.982C240.971 135.637 240.516 125.568 242.855 118.285C240.777 123.257 239.301 128.46 238.459 133.782C238.459 133.782 235.673 123.764 230.729 117.376C230.729 117.376 236.755 132.779 235.947 147.106C235.535 155.241 234.512 163.333 232.887 171.315L231.811 172.037L231.717 172.932L245.641 172.953Z" fill="#E6E6E6"/>
<path d="M240.152 137.615C240.152 137.615 241.711 130.671 245.926 127.229C245.926 127.229 242.397 132.086 241.242 140.336C240.087 148.586 238.846 143.324 238.846 143.324L240.152 137.615Z" fill="#E6E6E6"/>
<path d="M242.031 156.396C242.531 154.688 243.654 153.23 245.178 152.311C245.178 152.311 243.568 153.877 242.803 158.886C242.038 163.895 240.168 161.109 240.168 161.109L240.031 158.352L242.031 156.396Z" fill="#E6E6E6"/>
<path opacity="0.2" d="M242.753 158.886C243.519 153.877 245.128 152.31 245.128 152.31C243.963 153.022 243.023 154.048 242.414 155.27C241.931 149.936 241.476 144.609 241.324 141.982C241.324 141.455 241.267 140.899 241.238 140.329C242.393 132.086 245.922 127.228 245.922 127.228C243.468 129.228 241.916 132.411 241.043 134.728C240.971 129.3 241.288 123.179 242.855 118.285C240.777 123.257 239.301 128.46 238.459 133.782C238.459 133.782 235.673 123.764 230.729 117.376C230.729 117.376 236.755 132.779 235.947 147.106C235.535 155.241 234.512 163.333 232.887 171.315L231.811 172.037L231.717 172.932H245.641V171.856L243.843 170.326C243.843 170.326 243.338 165.043 242.753 158.886Z" fill="black"/>
<path d="M178.961 26.52C180.749 27.3566 182.142 28.8562 182.845 30.7014C182.845 30.7014 182.533 25.9933 184.713 24.1201C184.713 24.1201 182.739 25.6819 182.323 27.9718C181.378 27.154 180.204 26.6471 178.961 26.52V26.52Z" fill="#263238"/>
<path d="M169.266 14.7178C169.266 14.7178 172.884 17.5298 173.873 20.122C173.873 20.122 174.427 17.3421 177.047 16.5085C176.427 16.4993 175.814 16.6413 175.261 16.9222C174.708 17.2031 174.231 17.6144 173.873 18.1206C172.742 16.5216 171.127 15.3286 169.266 14.7178V14.7178Z" fill="#263238"/>
<path d="M165.4 26.9505C165.4 26.9505 168.364 26.4925 169.783 28.297C169.783 28.297 168.904 25.604 169.783 23.7812C169.783 23.7812 168.611 24.5324 169.019 27.2391C169.019 27.2391 167.892 26.0758 165.4 26.9505Z" fill="#263238"/>
<path d="M245.37 126.596H16.375V126.71H245.37V126.596Z" fill="#EBEBEB"/>
<path d="M79.4245 129.715H64.2559V129.829H79.4245V129.715Z" fill="#EBEBEB"/>
<path d="M113.417 133.91H94.7539V134.025H113.417V133.91Z" fill="#EBEBEB"/>
<path d="M63.7945 132.476H40.4004V132.59H63.7945V132.476Z" fill="#EBEBEB"/>
<path d="M222.425 130.483H179.768V130.598H222.425V130.483Z" fill="#EBEBEB"/>
<path d="M162.673 132.416H143.332V132.531H162.673V132.416Z" fill="#EBEBEB"/>
<path d="M114.715 12.4992H151.381C151.381 12.4992 149.156 9.00929 145.35 10.7542C145.35 10.7542 144.635 7.09032 142.176 7.0262C141.502 6.97626 140.829 7.12275 140.237 7.44792C139.645 7.77309 139.161 8.26297 138.842 8.85815C138.842 8.85815 135.984 4.41566 131.619 5.36828C130.405 5.60306 129.293 6.21039 128.44 7.10585C127.586 8.00132 127.033 9.14044 126.856 10.3649C126.856 10.3649 120.339 7.0262 114.715 12.4992Z" fill="#FAFAFA"/>
<path d="M47.7012 52.0854H84.3403C84.3403 52.0854 82.119 48.5909 78.3086 50.3358C78.3086 50.3358 77.5941 46.6719 75.1347 46.6078C74.4616 46.5602 73.7891 46.7077 73.1978 47.0326C72.6064 47.3575 72.1213 47.8461 71.8006 48.4398C71.8006 48.4398 68.9473 43.9927 64.5826 44.9453C63.3742 45.1835 62.2693 45.7907 61.4203 46.6831C60.5714 47.5756 60.0201 48.7094 59.8425 49.9282C59.8425 49.9282 53.3344 46.6078 47.7012 52.0854Z" fill="#FAFAFA"/>
<path d="M187 27.3996H223.662C223.662 27.3996 221.441 23.9097 217.63 25.6546C217.63 25.6546 216.92 21.9907 214.456 21.9266C213.784 21.8776 213.111 22.0245 212.52 22.3496C211.93 22.6747 211.445 23.1641 211.127 23.7585C211.127 23.7585 208.269 19.3161 203.904 20.2687C202.69 20.5035 201.578 21.1108 200.725 22.0062C199.871 22.9017 199.318 24.0408 199.141 25.2653C199.141 25.2653 192.633 21.9266 187 27.3996Z" fill="#FAFAFA"/>
<path d="M184.737 5.60827C185.21 3.61219 183.975 1.61064 181.979 1.13769C179.983 0.66473 177.982 1.89946 177.509 3.89554C177.036 5.89162 178.27 7.89317 180.267 8.36613C182.263 8.83909 184.264 7.60434 184.737 5.60827Z" fill="#F0F0F0"/>
<path d="M44.1953 27.3996H80.8573C80.8573 27.3996 78.659 23.9097 74.8256 25.6546C74.8256 25.6546 74.1112 21.9907 71.6518 21.9266C70.9791 21.8776 70.3066 22.0245 69.7157 22.3496C69.1248 22.6747 68.6408 23.1641 68.3222 23.7585C68.3222 23.7585 65.4643 19.3161 61.0997 20.2687C59.885 20.5035 58.7737 21.1108 57.9201 22.0062C57.0665 22.9017 56.513 24.0408 56.3366 25.2653C56.3366 25.2653 49.8286 21.9266 44.1953 27.3996Z" fill="#FAFAFA"/>
<path d="M109.935 38.5107H71.0605V114.377H109.935V38.5107Z" fill="#E6E6E6"/>
<path d="M102.868 38.5107H71.0605V114.377H102.868V38.5107Z" fill="#F0F0F0"/>
<path d="M110.393 38.5107H70.2227V39.7473H110.393V38.5107Z" fill="#E0E0E0"/>
<path d="M110.393 36.0322H70.2227V37.2688H110.393V36.0322Z" fill="#E0E0E0"/>
<path d="M109.55 37.2695H71.0605V38.5061H109.55V37.2695Z" fill="#F0F0F0"/>
<path d="M80.0503 42.9756H74.0781V48.9478H80.0503V42.9756Z" fill="#E6E6E6"/>
<path d="M80.0529 42.9756H74.6074V48.9478H80.0529V42.9756Z" fill="#F5F5F5"/>
<path d="M89.0991 42.9756H83.127V48.9478H89.0991V42.9756Z" fill="#E6E6E6"/>
<path d="M89.0998 42.9756H83.6543V48.9478H89.0998V42.9756Z" fill="#F5F5F5"/>
<path d="M98.144 42.9756H92.1719V48.9478H98.144V42.9756Z" fill="#E6E6E6"/>
<path d="M98.1447 42.9756H92.6992V48.9478H98.1447V42.9756Z" fill="#F5F5F5"/>
<path d="M80.0503 51.7744H74.0781V57.7466H80.0503V51.7744Z" fill="#E6E6E6"/>
<path d="M80.0529 51.7744H74.6074V57.7466H80.0529V51.7744Z" fill="#F5F5F5"/>
<path d="M89.0991 51.7744H83.127V57.7466H89.0991V51.7744Z" fill="#E6E6E6"/>
<path d="M89.0998 51.7744H83.6543V57.7466H89.0998V51.7744Z" fill="#F5F5F5"/>
<path d="M98.144 51.7744H92.1719V57.7466H98.144V51.7744Z" fill="#E6E6E6"/>
<path d="M98.1447 51.7744H92.6992V57.7466H98.1447V51.7744Z" fill="#F5F5F5"/>
<path d="M80.0503 67.8809H74.0781V73.853H80.0503V67.8809Z" fill="#E6E6E6"/>
<path d="M80.0529 67.8809H74.6074V73.853H80.0529V67.8809Z" fill="#F5F5F5"/>
<path d="M89.0991 67.8809H83.127V73.853H89.0991V67.8809Z" fill="#E6E6E6"/>
<path d="M89.0998 67.8809H83.6543V73.853H89.0998V67.8809Z" fill="#F5F5F5"/>
<path d="M98.144 67.8809H92.1719V73.853H98.144V67.8809Z" fill="#E6E6E6"/>
<path d="M98.1447 67.8809H92.6992V73.853H98.1447V67.8809Z" fill="#F5F5F5"/>
<path d="M80.0503 76.6797H74.0781V82.6519H80.0503V76.6797Z" fill="#E6E6E6"/>
<path d="M80.0529 76.6797H74.6074V82.6519H80.0529V76.6797Z" fill="#F5F5F5"/>
<path d="M89.0991 76.6797H83.127V82.6519H89.0991V76.6797Z" fill="#E6E6E6"/>
<path d="M89.0998 76.6797H83.6543V82.6519H89.0998V76.6797Z" fill="#F5F5F5"/>
<path d="M98.144 76.6797H92.1719V82.6519H98.144V76.6797Z" fill="#E6E6E6"/>
<path d="M98.1447 76.6797H92.6992V82.6519H98.1447V76.6797Z" fill="#F5F5F5"/>
<path d="M80.0503 94.582H74.0781V100.554H80.0503V94.582Z" fill="#E6E6E6"/>
<path d="M80.0529 94.582H74.6074V100.554H80.0529V94.582Z" fill="#F5F5F5"/>
<path d="M89.0991 94.582H83.127V100.554H89.0991V94.582Z" fill="#E6E6E6"/>
<path d="M89.0998 94.582H83.6543V100.554H89.0998V94.582Z" fill="#F5F5F5"/>
<path d="M98.144 94.582H92.1719V100.554H98.144V94.582Z" fill="#E6E6E6"/>
<path d="M98.1447 94.582H92.6992V100.554H98.1447V94.582Z" fill="#F5F5F5"/>
<path d="M80.0503 103.38H74.0781V109.352H80.0503V103.38Z" fill="#E6E6E6"/>
<path d="M80.0529 103.38H74.6074V109.352H80.0529V103.38Z" fill="#F5F5F5"/>
<path d="M89.0991 103.38H83.127V109.352H89.0991V103.38Z" fill="#E6E6E6"/>
<path d="M89.0998 103.38H83.6543V109.352H89.0998V103.38Z" fill="#F5F5F5"/>
<path d="M98.144 103.38H92.1719V109.352H98.144V103.38Z" fill="#E6E6E6"/>
<path d="M98.1447 103.38H92.6992V109.352H98.1447V103.38Z" fill="#F5F5F5"/>
<path d="M109.935 61.9463H71.0605V62.5005H109.935V61.9463Z" fill="#E0E0E0"/>
<path d="M109.935 89.4844H71.0605V90.0385H109.935V89.4844Z" fill="#E0E0E0"/>
<path d="M64.496 61.2266H37.6074V126.655H64.496V61.2266Z" fill="#E0E0E0"/>
<path d="M56.8384 61.2266H37.6074V126.655H56.8384V61.2266Z" fill="#F0F0F0"/>
<path d="M46.7424 66.6035H39.584V70.0797H46.7424V66.6035Z" fill="#E6E6E6"/>
<path d="M46.7446 66.6035H40.0625V70.0797H46.7446V66.6035Z" fill="#F5F5F5"/>
<path d="M55.0275 66.6035H47.8691V70.0797H55.0275V66.6035Z" fill="#E6E6E6"/>
<path d="M55.0212 66.6035H48.3438V70.0797H55.0212V66.6035Z" fill="#F5F5F5"/>
<path d="M46.7424 73.1436H39.584V76.6197H46.7424V73.1436Z" fill="#E6E6E6"/>
<path d="M46.7446 73.1436H40.0625V76.6197H46.7446V73.1436Z" fill="#F5F5F5"/>
<path d="M55.0275 73.1436H47.8691V76.6197H55.0275V73.1436Z" fill="#E6E6E6"/>
<path d="M55.0212 73.1436H48.3438V76.6197H55.0212V73.1436Z" fill="#F5F5F5"/>
<path d="M46.7424 81.502H39.584V84.9781H46.7424V81.502Z" fill="#E6E6E6"/>
<path d="M46.7446 81.502H40.0625V84.9781H46.7446V81.502Z" fill="#F5F5F5"/>
<path d="M55.0275 81.502H47.8691V84.9781H55.0275V81.502Z" fill="#E6E6E6"/>
<path d="M55.0212 81.502H48.3438V84.9781H55.0212V81.502Z" fill="#F5F5F5"/>
<path d="M46.7424 86.3018H39.584V89.7779H46.7424V86.3018Z" fill="#E6E6E6"/>
<path d="M46.7446 86.3018H40.0625V89.7779H46.7446V86.3018Z" fill="#F5F5F5"/>
<path d="M55.0275 86.3018H47.8691V89.7779H55.0275V86.3018Z" fill="#E6E6E6"/>
<path d="M55.0212 86.3018H48.3438V89.7779H55.0212V86.3018Z" fill="#F5F5F5"/>
<path d="M46.7424 94.1934H39.584V97.6695H46.7424V94.1934Z" fill="#E6E6E6"/>
<path d="M46.7446 94.1934H40.0625V97.6695H46.7446V94.1934Z" fill="#F5F5F5"/>
<path d="M55.0275 94.1934H47.8691V97.6695H55.0275V94.1934Z" fill="#E6E6E6"/>
<path d="M55.0212 94.1934H48.3438V97.6695H55.0212V94.1934Z" fill="#F5F5F5"/>
<path d="M46.7424 98.9922H39.584V102.468H46.7424V98.9922Z" fill="#E6E6E6"/>
<path d="M46.7446 98.9922H40.0625V102.468H46.7446V98.9922Z" fill="#F5F5F5"/>
<path d="M55.0275 98.9922H47.8691V102.468H55.0275V98.9922Z" fill="#E6E6E6"/>
<path d="M55.0212 98.9922H48.3438V102.468H55.0212V98.9922Z" fill="#F5F5F5"/>
<path d="M46.7424 107.58H39.584V111.056H46.7424V107.58Z" fill="#E6E6E6"/>
<path d="M46.7446 107.58H40.0625V111.056H46.7446V107.58Z" fill="#F5F5F5"/>
<path d="M55.0275 107.58H47.8691V111.056H55.0275V107.58Z" fill="#E6E6E6"/>
<path d="M55.0212 107.58H48.3438V111.056H55.0212V107.58Z" fill="#F5F5F5"/>
<path d="M46.7424 113.918H39.584V117.394H46.7424V113.918Z" fill="#E6E6E6"/>
<path d="M46.7446 113.918H40.0625V117.394H46.7446V113.918Z" fill="#F5F5F5"/>
<path d="M55.0275 113.918H47.8691V117.394H55.0275V113.918Z" fill="#E6E6E6"/>
<path d="M55.0212 113.918H48.3438V117.394H55.0212V113.918Z" fill="#F5F5F5"/>
<path opacity="0.05" d="M64.496 78.7588H37.6074V79.3588H64.496V78.7588Z" fill="black"/>
<path opacity="0.05" d="M64.496 91.6836H37.6074V92.2836H64.496V91.6836Z" fill="black"/>
<path opacity="0.05" d="M64.496 104.723H37.6074V105.318H64.496V104.723Z" fill="black"/>
<path d="M64.4924 59.2891H36.3398V61.3775H64.4924V59.2891Z" fill="#E0E0E0"/>
<path opacity="0.05" d="M64.4972 59.2891H58.0625V61.3775H64.4972V59.2891Z" fill="black"/>
<path d="M157.574 27.1475H126V109.205H157.574V27.1475Z" fill="#E6E6E6"/>
<path d="M145.884 27.1475H114.311V109.205H145.884V27.1475Z" fill="#F0F0F0"/>
<path d="M143.134 32.7168H117.07V36.8982H143.134V32.7168Z" fill="#E6E6E6"/>
<path d="M143.128 32.7168H118.076V36.8982H143.128V32.7168Z" fill="#F5F5F5"/>
<path d="M143.134 39.7559H117.07V43.9373H143.134V39.7559Z" fill="#E6E6E6"/>
<path d="M143.128 39.7559H118.076V43.9373H143.128V39.7559Z" fill="#F5F5F5"/>
<path d="M143.134 47.0654H117.07V51.2469H143.134V47.0654Z" fill="#E6E6E6"/>
<path d="M143.128 47.0654H118.076V51.2469H143.128V47.0654Z" fill="#F5F5F5"/>
<path d="M143.134 54.3799H117.07V58.5613H143.134V54.3799Z" fill="#E6E6E6"/>
<path d="M143.128 54.3799H118.076V58.5613H143.128V54.3799Z" fill="#F5F5F5"/>
<path d="M143.134 61.6895H117.07V65.8709H143.134V61.6895Z" fill="#E6E6E6"/>
<path d="M143.128 61.6895H118.076V65.8709H143.128V61.6895Z" fill="#F5F5F5"/>
<path d="M143.134 69.0039H117.07V73.1853H143.134V69.0039Z" fill="#E6E6E6"/>
<path d="M143.128 69.0039H118.076V73.1853H143.128V69.0039Z" fill="#F5F5F5"/>
<path d="M143.134 77.0596H117.07V81.241H143.134V77.0596Z" fill="#E6E6E6"/>
<path d="M143.128 77.0596H118.076V81.241H143.128V77.0596Z" fill="#F5F5F5"/>
<path d="M143.134 85.1201H117.07V89.3016H143.134V85.1201Z" fill="#E6E6E6"/>
<path d="M143.128 85.1201H118.076V89.3016H143.128V85.1201Z" fill="#F5F5F5"/>
<path d="M143.134 93.1807H117.07V97.3621H143.134V93.1807Z" fill="#E6E6E6"/>
<path d="M143.128 93.1807H118.076V97.3621H143.128V93.1807Z" fill="#F5F5F5"/>
<path d="M143.134 101.236H117.07V105.418H143.134V101.236Z" fill="#E6E6E6"/>
<path d="M143.128 101.236H118.076V105.418H143.128V101.236Z" fill="#F5F5F5"/>
<path d="M158.396 26.3232H113.422V28.3247H158.396V26.3232Z" fill="#E0E0E0"/>
<path d="M158.396 22.71H113.422V24.7114H158.396V22.71Z" fill="#E0E0E0"/>
<path d="M156.899 24.3174H114.311V26.3188H156.899V24.3174Z" fill="#F0F0F0"/>
<path d="M157.573 32.7168H148.775V36.8982H157.573V32.7168Z" fill="#E0E0E0"/>
<path d="M157.573 39.5957H148.775V43.7771H157.573V39.5957Z" fill="#E0E0E0"/>
<path d="M157.573 46.4795H148.775V50.6609H157.573V46.4795Z" fill="#E0E0E0"/>
<path d="M157.573 54.375H148.775V58.5564H157.573V54.375Z" fill="#E0E0E0"/>
<path d="M157.573 61.6895H148.775V65.8709H157.573V61.6895Z" fill="#E0E0E0"/>
<path d="M157.573 69.0039H148.775V73.1853H157.573V69.0039Z" fill="#E0E0E0"/>
<path d="M157.573 77.0596H148.775V81.241H157.573V77.0596Z" fill="#E0E0E0"/>
<path d="M157.573 85.1201H148.775V89.3016H157.573V85.1201Z" fill="#E0E0E0"/>
<path d="M157.573 93.1758H148.775V97.3572H157.573V93.1758Z" fill="#E0E0E0"/>
<path d="M157.573 101.236H148.775V105.418H157.573V101.236Z" fill="#E0E0E0"/>
<path d="M229.039 90.0889H226.506V94.0505H229.039V90.0889Z" fill="#E0E0E0"/>
<path d="M229.039 96.5742H226.506V100.536H229.039V96.5742Z" fill="#E0E0E0"/>
<path d="M229.039 102.872H226.506V106.834H229.039V102.872Z" fill="#E0E0E0"/>
<path d="M229.039 109.535H226.506V113.497H229.039V109.535Z" fill="#E0E0E0"/>
<path d="M229.039 116.016H226.506V119.977H229.039V116.016Z" fill="#E0E0E0"/>
<path d="M229.04 86.1094H202.398V126.628H229.04V86.1094Z" fill="#E6E6E6"/>
<path d="M224.542 86.1094H202.402V126.628H224.542V86.1094Z" fill="#F0F0F0"/>
<path d="M222.396 90.0889H204.393V94.0505H222.396V90.0889Z" fill="#EBEBEB"/>
<path d="M222.396 96.5742H204.393V100.536H222.396V96.5742Z" fill="#EBEBEB"/>
<path d="M222.396 103.055H204.393V107.016H222.396V103.055Z" fill="#EBEBEB"/>
<path d="M222.396 109.535H204.393V113.497H222.396V109.535Z" fill="#EBEBEB"/>
<path d="M222.396 116.016H204.393V119.977H222.396V116.016Z" fill="#EBEBEB"/>
<path d="M222.394 90.0889H205.055V94.0505H222.394V90.0889Z" fill="#F5F5F5"/>
<path d="M222.394 96.5742H205.055V100.536H222.394V96.5742Z" fill="#F5F5F5"/>
<path d="M222.394 103.055H205.055V107.016H222.394V103.055Z" fill="#F5F5F5"/>
<path d="M222.394 109.535H205.055V113.497H222.394V109.535Z" fill="#F5F5F5"/>
<path d="M222.394 116.016H205.055V119.977H222.394V116.016Z" fill="#F5F5F5"/>
<path d="M116.353 51.998H70.998V140.509H116.353V51.998Z" fill="#E6E6E6"/>
<path opacity="0.4" d="M108.109 51.998H70.998V140.509H108.109V51.998Z" fill="white"/>
<path d="M116.891 51.998H70.0254V53.4407H116.891V51.998Z" fill="#E6E6E6"/>
<path d="M116.891 49.1084H70.0254V50.5556H116.891V49.1084Z" fill="#E6E6E6"/>
<path d="M115.904 50.5557H70.998V51.9983H115.904V50.5557Z" fill="#F0F0F0"/>
<path d="M81.4901 57.21H74.5195V64.1806H81.4901V57.21Z" fill="#E6E6E6"/>
<path opacity="0.2" d="M81.4916 57.21H75.1348V64.1806H81.4916V57.21Z" fill="white"/>
<path d="M92.0468 57.21H85.0762V64.1806H92.0468V57.21Z" fill="#E6E6E6"/>
<path opacity="0.2" d="M92.0483 57.21H85.6914V64.1806H92.0483V57.21Z" fill="white"/>
<path d="M102.601 57.21H95.6309V64.1806H102.601V57.21Z" fill="#E6E6E6"/>
<path opacity="0.2" d="M102.599 57.21H96.2422V64.1806H102.599V57.21Z" fill="white"/>
<path d="M81.4901 67.4736H74.5195V74.4442H81.4901V67.4736Z" fill="#E6E6E6"/>
<path opacity="0.2" d="M81.4916 67.4736H75.1348V74.4442H81.4916V67.4736Z" fill="white"/>
<path d="M92.0468 67.4736H85.0762V74.4442H92.0468V67.4736Z" fill="#E6E6E6"/>
<path opacity="0.2" d="M92.0483 67.4736H85.6914V74.4442H92.0483V67.4736Z" fill="white"/>
<path d="M102.601 67.4736H95.6309V74.4442H102.601V67.4736Z" fill="#E6E6E6"/>
<path opacity="0.2" d="M102.599 67.4736H96.2422V74.4442H102.599V67.4736Z" fill="white"/>
<path d="M81.4901 86.2646H74.5195V93.2352H81.4901V86.2646Z" fill="#E6E6E6"/>
<path opacity="0.2" d="M81.4916 86.2646H75.1348V93.2352H81.4916V86.2646Z" fill="white"/>
<path d="M92.0468 86.2646H85.0762V93.2352H92.0468V86.2646Z" fill="#E6E6E6"/>
<path opacity="0.2" d="M92.0483 86.2646H85.6914V93.2352H92.0483V86.2646Z" fill="white"/>
<path d="M102.601 86.2646H95.6309V93.2352H102.601V86.2646Z" fill="#E6E6E6"/>
<path opacity="0.2" d="M102.599 86.2646H96.2422V93.2352H102.599V86.2646Z" fill="white"/>
<path d="M81.4901 96.5283H74.5195V103.499H81.4901V96.5283Z" fill="#E6E6E6"/>
<path opacity="0.2" d="M81.4916 96.5283H75.1348V103.499H81.4916V96.5283Z" fill="white"/>
<path d="M92.0468 96.5283H85.0762V103.499H92.0468V96.5283Z" fill="#E6E6E6"/>
<path opacity="0.2" d="M92.0483 96.5283H85.6914V103.499H92.0483V96.5283Z" fill="white"/>
<path d="M102.601 96.5283H95.6309V103.499H102.601V96.5283Z" fill="#E6E6E6"/>
<path opacity="0.2" d="M102.599 96.5283H96.2422V103.499H102.599V96.5283Z" fill="white"/>
<path d="M81.4901 117.417H74.5195V124.388H81.4901V117.417Z" fill="#E6E6E6"/>
<path opacity="0.2" d="M81.4916 117.417H75.1348V124.388H81.4916V117.417Z" fill="white"/>
<path d="M92.0468 117.417H85.0762V124.388H92.0468V117.417Z" fill="#E6E6E6"/>
<path opacity="0.2" d="M92.0483 117.417H85.6914V124.388H92.0483V117.417Z" fill="white"/>
<path d="M102.601 117.417H95.6309V124.388H102.601V117.417Z" fill="#E6E6E6"/>
<path opacity="0.2" d="M102.599 117.417H96.2422V124.388H102.599V117.417Z" fill="white"/>
<path d="M81.4901 127.681H74.5195V134.651H81.4901V127.681Z" fill="#E6E6E6"/>
<path opacity="0.2" d="M81.4916 127.681H75.1348V134.651H81.4916V127.681Z" fill="white"/>
<path d="M92.0468 127.681H85.0762V134.651H92.0468V127.681Z" fill="#E6E6E6"/>
<path opacity="0.2" d="M92.0483 127.681H85.6914V134.651H92.0483V127.681Z" fill="white"/>
<path d="M102.601 127.681H95.6309V134.651H102.601V127.681Z" fill="#E6E6E6"/>
<path opacity="0.2" d="M102.599 127.681H96.2422V134.651H102.599V127.681Z" fill="white"/>
<path opacity="0.2" d="M116.353 79.3447H70.998V79.9905H116.353V79.3447Z" fill="white"/>
<path opacity="0.2" d="M116.353 111.468H70.998V112.114H116.353V111.468Z" fill="white"/>
<path d="M178.799 64.1807H147.432V140.509H178.799V64.1807Z" fill="#E6E6E6"/>
<path opacity="0.4" d="M171.293 64.1807H147.432V140.509H171.293V64.1807Z" fill="white"/>
<path d="M158.095 70.4502H149.746V74.5034H158.095V70.4502Z" fill="#E6E6E6"/>
<path opacity="0.2" d="M158.096 70.4502H150.301V74.5034H158.096V70.4502Z" fill="white"/>
<path d="M167.751 70.4502H159.402V74.5034H167.751V70.4502Z" fill="#E6E6E6"/>
<path opacity="0.2" d="M167.756 70.4502H159.961V74.5034H167.756V70.4502Z" fill="white"/>
<path d="M158.095 78.0811H149.746V82.1343H158.095V78.0811Z" fill="#E6E6E6"/>
<path opacity="0.2" d="M158.096 78.0811H150.301V82.1343H158.096V78.0811Z" fill="white"/>
<path d="M167.751 78.0811H159.402V82.1343H167.751V78.0811Z" fill="#E6E6E6"/>
<path opacity="0.2" d="M167.756 78.0811H159.961V82.1343H167.756V78.0811Z" fill="white"/>
<path d="M158.095 87.8311H149.746V91.8842H158.095V87.8311Z" fill="#E6E6E6"/>
<path opacity="0.2" d="M158.096 87.8311H150.301V91.8842H158.096V87.8311Z" fill="white"/>
<path d="M167.751 87.8311H159.402V91.8842H167.751V87.8311Z" fill="#E6E6E6"/>
<path opacity="0.2" d="M167.756 87.8311H159.961V91.8842H167.756V87.8311Z" fill="white"/>
<path d="M158.095 93.4316H149.746V97.4848H158.095V93.4316Z" fill="#E6E6E6"/>
<path opacity="0.2" d="M158.096 93.4316H150.301V97.4848H158.096V93.4316Z" fill="white"/>
<path d="M167.751 93.4316H159.402V97.4848H167.751V93.4316Z" fill="#E6E6E6"/>
<path opacity="0.2" d="M167.756 93.4316H159.961V97.4848H167.756V93.4316Z" fill="white"/>
<path d="M158.095 102.638H149.746V106.691H158.095V102.638Z" fill="#E6E6E6"/>
<path opacity="0.2" d="M158.096 102.638H150.301V106.691H158.096V102.638Z" fill="white"/>
<path d="M167.751 102.638H159.402V106.691H167.751V102.638Z" fill="#E6E6E6"/>
<path opacity="0.2" d="M167.756 102.638H159.961V106.691H167.756V102.638Z" fill="white"/>
<path d="M158.095 108.239H149.746V112.292H158.095V108.239Z" fill="#E6E6E6"/>
<path opacity="0.2" d="M158.096 108.239H150.301V112.292H158.096V108.239Z" fill="white"/>
<path d="M167.751 108.239H159.402V112.292H167.751V108.239Z" fill="#E6E6E6"/>
<path opacity="0.2" d="M167.756 108.239H159.961V112.292H167.756V108.239Z" fill="white"/>
<path d="M158.095 118.256H149.746V122.309H158.095V118.256Z" fill="#E6E6E6"/>
<path opacity="0.2" d="M158.096 118.256H150.301V122.309H158.096V118.256Z" fill="white"/>
<path d="M167.751 118.256H159.402V122.309H167.751V118.256Z" fill="#E6E6E6"/>
<path opacity="0.2" d="M167.756 118.256H159.961V122.309H167.756V118.256Z" fill="white"/>
<path d="M158.095 125.656H149.746V129.709H158.095V125.656Z" fill="#E6E6E6"/>
<path opacity="0.2" d="M158.096 125.656H150.301V129.709H158.096V125.656Z" fill="white"/>
<path d="M167.751 125.656H159.402V129.709H167.751V125.656Z" fill="#E6E6E6"/>
<path opacity="0.2" d="M167.756 125.656H159.961V129.709H167.756V125.656Z" fill="white"/>
<path d="M178.808 61.9229H145.961V64.3593H178.808V61.9229Z" fill="#E6E6E6"/>
<path opacity="0.2" d="M178.807 61.9229H171.301V64.3593H178.807V61.9229Z" fill="black"/>
<path d="M147.435 97.8838H144.48V102.505H147.435V97.8838Z" fill="#E0E0E0"/>
<path d="M147.435 105.445H144.48V110.066H147.435V105.445Z" fill="#E0E0E0"/>
<path d="M147.435 112.796H144.48V117.417H147.435V112.796Z" fill="#E0E0E0"/>
<path d="M147.435 120.568H144.48V125.189H147.435V120.568Z" fill="#E0E0E0"/>
<path d="M147.435 128.129H144.48V132.75H147.435V128.129Z" fill="#E0E0E0"/>
<path d="M147.433 93.2402H116.354V140.509H147.433V93.2402Z" fill="#E6E6E6"/>
<path opacity="0.3" d="M142.184 93.2354H116.354V140.509H142.184V93.2354Z" fill="white"/>
<path d="M139.681 97.8838H118.678V102.505H139.681V97.8838Z" fill="#E6E6E6"/>
<path d="M139.681 105.445H118.678V110.066H139.681V105.445Z" fill="#E6E6E6"/>
<path d="M139.681 113.007H118.678V117.628H139.681V113.007Z" fill="#E6E6E6"/>
<path d="M139.681 120.568H118.678V125.189H139.681V120.568Z" fill="#E6E6E6"/>
<path d="M139.681 128.129H118.678V132.75H139.681V128.129Z" fill="#E6E6E6"/>
<g opacity="0.1">
<path opacity="0.1" d="M139.679 97.8838H119.449V102.505H139.679V97.8838Z" fill="white"/>
<path opacity="0.1" d="M139.679 105.445H119.449V110.066H139.679V105.445Z" fill="white"/>
<path opacity="0.1" d="M139.679 113.007H119.449V117.628H139.679V113.007Z" fill="white"/>
<path opacity="0.1" d="M139.679 120.568H119.449V125.189H139.679V120.568Z" fill="white"/>
<path opacity="0.1" d="M139.679 128.13H119.449V132.751H139.679V128.13Z" fill="white"/>
</g>
<path d="M52.364 107.758H31.5117V140.509H64.7892V107.758V93.2354L52.364 107.758Z" fill="#E6E6E6"/>
<path d="M71.0013 93.2354H64.791V140.509H71.0013V93.2354Z" fill="#E6E6E6"/>
<path opacity="0.7" d="M71.0013 93.2354H64.791V140.509H71.0013V93.2354Z" fill="white"/>
<path opacity="0.7" d="M116.356 53.4404H108.107V140.509H116.356V53.4404Z" fill="white"/>
<path opacity="0.6" d="M147.432 93.2354H142.184V140.509H147.432V93.2354Z" fill="white"/>
<path opacity="0.7" d="M178.807 64.3594H171.301V140.509H178.807V64.3594Z" fill="white"/>
<path opacity="0.5" d="M183.199 51.2744H182.018V56.152H183.199V51.2744Z" fill="white"/>
<path opacity="0.5" d="M183.199 59.4814H182.018V64.359H183.199V59.4814Z" fill="white"/>
<path opacity="0.5" d="M183.199 68.0137H182.018V72.8913H183.199V68.0137Z" fill="white"/>
<path opacity="0.5" d="M183.199 76.5459H182.018V81.4235H183.199V76.5459Z" fill="white"/>
<path opacity="0.5" d="M183.199 85.0732H182.018V89.9508H183.199V85.0732Z" fill="white"/>
<path opacity="0.5" d="M183.199 93.6064H182.018V98.484H183.199V93.6064Z" fill="white"/>
<path opacity="0.5" d="M183.199 103.009H182.018V107.886H183.199V103.009Z" fill="white"/>
<path opacity="0.5" d="M183.199 112.411H182.018V117.289H183.199V112.411Z" fill="white"/>
<path opacity="0.5" d="M183.199 121.81H182.018V126.687H183.199V121.81Z" fill="white"/>
<path opacity="0.5" d="M183.199 131.212H182.018V136.089H183.199V131.212Z" fill="white"/>
<path d="M229.276 44.7754H192.439V140.509H229.276V44.7754Z" fill="#E6E6E6"/>
<path d="M215.637 44.7754H178.801V140.509H215.637V44.7754Z" fill="#E6E6E6"/>
<path opacity="0.7" d="M229.275 46.1494H215.641V140.509H229.275V46.1494Z" fill="white"/>
<path d="M229.275 51.2744H219.012V56.152H229.275V51.2744Z" fill="#E6E6E6"/>
<path d="M229.275 59.2979H219.012V64.1754H229.275V59.2979Z" fill="#E6E6E6"/>
<path d="M229.275 67.3271H219.012V72.2047H229.275V67.3271Z" fill="#E6E6E6"/>
<path d="M229.275 76.541H219.012V81.4186H229.275V76.541Z" fill="#E6E6E6"/>
<path d="M229.275 85.0732H219.012V89.9508H229.275V85.0732Z" fill="#E6E6E6"/>
<path d="M229.275 93.6064H219.012V98.484H229.275V93.6064Z" fill="#E6E6E6"/>
<path d="M229.275 103.004H219.012V107.881H229.275V103.004Z" fill="#E6E6E6"/>
<path d="M229.275 112.407H219.012V117.285H229.275V112.407Z" fill="#E6E6E6"/>
<path d="M229.275 121.81H219.012V126.687H229.275V121.81Z" fill="#E6E6E6"/>
<path d="M229.275 131.212H219.012V136.089H229.275V131.212Z" fill="#E6E6E6"/>
<path opacity="0.3" d="M229.275 51.2744H219.012V56.152H229.275V51.2744Z" fill="white"/>
<path opacity="0.3" d="M229.275 59.2979H219.012V64.1754H229.275V59.2979Z" fill="white"/>
<path opacity="0.3" d="M229.275 67.3271H219.012V72.2047H229.275V67.3271Z" fill="white"/>
<path opacity="0.3" d="M229.275 76.541H219.012V81.4186H229.275V76.541Z" fill="white"/>
<path opacity="0.3" d="M229.275 85.0732H219.012V89.9508H229.275V85.0732Z" fill="white"/>
<path opacity="0.3" d="M229.275 93.6064H219.012V98.484H229.275V93.6064Z" fill="white"/>
<path opacity="0.3" d="M229.275 103.004H219.012V107.881H229.275V103.004Z" fill="white"/>
<path opacity="0.3" d="M229.275 112.407H219.012V117.285H229.275V112.407Z" fill="white"/>
<path opacity="0.3" d="M229.275 121.81H219.012V126.687H229.275V121.81Z" fill="white"/>
<path opacity="0.3" d="M229.275 131.212H219.012V136.089H229.275V131.212Z" fill="white"/>
<path opacity="0.4" d="M215.637 44.7754H178.801V140.509H215.637V44.7754Z" fill="white"/>
<path d="M212.428 51.2744H182.018V56.152H212.428V51.2744Z" fill="#E6E6E6"/>
<path opacity="0.2" d="M212.428 51.2744H183.199V56.152H212.428V51.2744Z" fill="white"/>
<path d="M212.428 59.4814H182.018V64.359H212.428V59.4814Z" fill="#E6E6E6"/>
<path opacity="0.2" d="M212.428 59.4814H183.199V64.359H212.428V59.4814Z" fill="white"/>
<path d="M212.428 68.0137H182.018V72.8913H212.428V68.0137Z" fill="#E6E6E6"/>
<path opacity="0.2" d="M212.428 68.0137H183.199V72.8913H212.428V68.0137Z" fill="white"/>
<path d="M212.428 76.5459H182.018V81.4235H212.428V76.5459Z" fill="#E6E6E6"/>
<path opacity="0.2" d="M212.428 76.5459H183.199V81.4235H212.428V76.5459Z" fill="white"/>
<path d="M212.428 85.0732H182.018V89.9508H212.428V85.0732Z" fill="#E6E6E6"/>
<path opacity="0.2" d="M212.428 85.0732H183.199V89.9508H212.428V85.0732Z" fill="white"/>
<path d="M212.428 93.6064H182.018V98.484H212.428V93.6064Z" fill="#E6E6E6"/>
<path opacity="0.2" d="M212.428 93.6064H183.199V98.484H212.428V93.6064Z" fill="white"/>
<path d="M212.428 103.009H182.018V107.886H212.428V103.009Z" fill="#E6E6E6"/>
<path opacity="0.2" d="M212.428 103.009H183.199V107.886H212.428V103.009Z" fill="white"/>
<path d="M212.428 112.411H182.018V117.289H212.428V112.411Z" fill="#E6E6E6"/>
<path opacity="0.2" d="M212.428 112.411H183.199V117.289H212.428V112.411Z" fill="white"/>
<path d="M212.428 121.81H182.018V126.687H212.428V121.81Z" fill="#E6E6E6"/>
<path opacity="0.2" d="M212.428 121.81H183.199V126.687H212.428V121.81Z" fill="white"/>
<path d="M212.428 131.212H182.018V136.089H212.428V131.212Z" fill="#E6E6E6"/>
<path opacity="0.2" d="M212.428 131.212H183.199V136.089H212.428V131.212Z" fill="white"/>
<path d="M228.487 41.9316H215.641V43.8094H228.487V41.9316Z" fill="#E6E6E6"/>
<path d="M228.488 41.4736H178.801V43.8094H228.488V41.4736Z" fill="#F0F0F0"/>
<path d="M230.234 43.8135H177.762V46.1492H230.234V43.8135Z" fill="#E6E6E6"/>
<path d="M230.234 39.5957H177.762V41.9314H230.234V39.5957Z" fill="#E6E6E6"/>
<path opacity="0.05" d="M230.234 43.8135H177.762V46.1492H230.234V43.8135Z" fill="black"/>
<path opacity="0.05" d="M230.234 39.5957H177.762V41.9314H230.234V39.5957Z" fill="black"/>
<path opacity="0.2" d="M178.799 84.5195H147.432V85.2157H178.799V84.5195Z" fill="white"/>
<path opacity="0.2" d="M178.799 99.6016H147.432V100.298H178.799V99.6016Z" fill="white"/>
<path opacity="0.2" d="M178.799 114.812H147.432V115.508H178.799V114.812Z" fill="white"/>
<path opacity="0.2" d="M116.887 51.998H108.107V53.4407H116.887V51.998Z" fill="black"/>
<path opacity="0.2" d="M116.887 49.1084H108.107V50.5511H116.887V49.1084Z" fill="black"/>
<path opacity="0.2" d="M230.232 43.8135H215.641V46.1492H230.232V43.8135Z" fill="black"/>
<path opacity="0.2" d="M230.232 39.5957H215.641V41.9314H230.232V39.5957Z" fill="black"/>
<path opacity="0.4" d="M52.364 107.758H31.5117V140.509H64.7892V107.758V93.2354L52.364 107.758Z" fill="white"/>
<path d="M39.4821 114.399H34.5312V119.35H39.4821V114.399Z" fill="#E6E6E6"/>
<path d="M49.5544 114.399H44.6035V119.35H49.5544V114.399Z" fill="#E6E6E6"/>
<path d="M59.6305 114.399H54.6797V119.35H59.6305V114.399Z" fill="#E6E6E6"/>
<path d="M39.4821 122.729H34.5312V127.68H39.4821V122.729Z" fill="#E6E6E6"/>
<path d="M49.5544 122.729H44.6035V127.68H49.5544V122.729Z" fill="#E6E6E6"/>
<path d="M59.6305 122.729H54.6797V127.68H59.6305V122.729Z" fill="#E6E6E6"/>
<path d="M39.4821 131.061H34.5312V136.011H39.4821V131.061Z" fill="#E6E6E6"/>
<path d="M49.5544 131.061H44.6035V136.011H49.5544V131.061Z" fill="#E6E6E6"/>
<path d="M59.6305 131.061H54.6797V136.011H59.6305V131.061Z" fill="#E6E6E6"/>
<path opacity="0.2" d="M40.029 114.399H35.0781V119.35H40.029V114.399Z" fill="white"/>
<path opacity="0.2" d="M50.1013 114.399H45.1504V119.35H50.1013V114.399Z" fill="white"/>
<path opacity="0.2" d="M60.1774 114.399H55.2266V119.35H60.1774V114.399Z" fill="white"/>
<path opacity="0.2" d="M40.029 122.729H35.0781V127.68H40.029V122.729Z" fill="white"/>
<path opacity="0.2" d="M50.1013 122.729H45.1504V127.68H50.1013V122.729Z" fill="white"/>
<path opacity="0.2" d="M60.1774 122.729H55.2266V127.68H60.1774V122.729Z" fill="white"/>
<path opacity="0.2" d="M40.029 131.061H35.0781V136.011H40.029V131.061Z" fill="white"/>
<path opacity="0.2" d="M50.1013 131.061H45.1504V136.011H50.1013V131.061Z" fill="white"/>
<path opacity="0.2" d="M60.1774 131.061H55.2266V136.011H60.1774V131.061Z" fill="white"/>
<path d="M165.354 51.662C164.088 50.5414 162.438 49.9512 160.748 50.0137C159.666 47.831 157.434 46.5569 155.073 46.989C151.687 47.6082 150.654 51.6753 153.006 53.1587C153.784 53.6516 154.626 54.0339 155.51 54.2947V54.4016C154.126 54.9004 152.916 55.7878 152.025 56.9572C151.134 58.1267 150.599 59.5285 150.485 60.9944C150.137 66.0371 155.554 68.986 158.503 66.1796C158.911 65.7925 159.298 65.3835 159.661 64.9546C160.231 65.7564 160.846 66.5761 161.51 67.4314C168.878 64.0369 170.121 55.7736 165.354 51.662Z" fill="#263238"/>
<path d="M150.546 71.2671C150.501 71.8907 150.448 72.4342 150.367 73.0044C150.287 73.5746 150.211 74.127 150.118 74.6838C149.931 75.8019 149.672 76.9111 149.41 78.0025C148.868 80.2227 148.11 82.3846 147.147 84.4573L147.053 84.6533C147.017 84.729 147.009 84.7557 146.942 84.8894C146.83 85.1097 146.697 85.3186 146.545 85.513C146.258 85.8657 145.913 86.167 145.525 86.4039C144.884 86.7861 144.177 87.0444 143.44 87.1657C142.227 87.3526 140.993 87.3691 139.774 87.2147C137.519 86.9382 135.302 86.4046 133.168 85.6244L133.658 83.8425C134.687 83.9984 135.761 84.141 136.812 84.2345C137.847 84.3472 138.888 84.4008 139.93 84.3949C140.886 84.4123 141.841 84.3106 142.772 84.092C143.109 84.0107 143.428 83.8671 143.712 83.6688C143.783 83.6176 143.842 83.5524 143.886 83.4772C143.898 83.4548 143.907 83.4308 143.913 83.406L144.037 83.0852C144.224 82.6086 144.407 82.1275 144.563 81.633C144.719 81.1386 144.884 80.6486 145.04 80.1541C145.32 79.1518 145.596 78.1495 145.824 77.1249C146.051 76.1004 146.238 75.0758 146.412 74.0423C146.585 73.0088 146.723 71.9397 146.826 70.9775L150.546 71.2671Z" fill="#FFB573"/>
<path d="M148.008 66.8079C146.502 67.1865 145.451 73.374 145.451 73.374L149.594 76.1894C149.594 76.1894 153.568 69.9529 152.409 68.3002C151.198 66.5763 150.2 66.2466 148.008 66.8079Z" fill="#263238"/>
<path opacity="0.2" d="M148.144 68.1885L146.99 74.4205L149.316 76.0019L148.144 68.1885Z" fill="black"/>
<path d="M132.108 83.9221L129.297 85.0001L132.473 86.9156C132.473 86.9156 134.5 85.744 134.446 84.2428L134.135 84.0646C133.829 83.8918 133.488 83.7893 133.137 83.7646C132.787 83.74 132.435 83.7937 132.108 83.9221V83.9221Z" fill="#FFB573"/>
<path opacity="0.1" d="M131.898 84.0605L130.508 84.555C130.237 84.6468 129.97 84.7539 129.711 84.8757C129.711 84.8757 130.629 85.2588 131.087 85.0005C131.783 85.0529 132.483 85.0109 133.168 84.8757L131.898 84.0605Z" fill="black"/>
<path d="M127.545 87.09L129.937 89.0812L132.467 86.9341L129.296 85.0186L127.545 87.09Z" fill="#FFB573"/>
<path d="M156.141 170.922H152.497L152.252 162.476H155.9L156.141 170.922Z" fill="#FFB573"/>
<path d="M152.369 170.498H156.463C156.534 170.496 156.603 170.521 156.657 170.567C156.711 170.613 156.747 170.677 156.757 170.748L157.202 173.991C157.211 174.072 157.202 174.155 157.177 174.233C157.152 174.311 157.11 174.383 157.055 174.444C157 174.505 156.933 174.554 156.857 174.587C156.782 174.62 156.701 174.637 156.619 174.636C155.193 174.614 154.503 174.53 152.698 174.53C151.594 174.53 148.409 174.645 146.876 174.645C145.344 174.645 145.264 173.131 145.901 172.993C148.761 172.378 150.801 171.532 151.741 170.721C151.917 170.575 152.14 170.496 152.369 170.498V170.498Z" fill="#263238"/>
<g opacity="0.2">
<path opacity="0.2" d="M152.252 162.476L152.377 166.832H156.025L155.9 162.476H152.252Z" fill="black"/>
</g>
<path d="M148.01 66.8078C148.01 66.8078 146.273 67.4181 149.752 88.8182H164.563C164.314 82.7911 164.309 79.0715 167.192 66.7009C165.118 66.2717 163.016 65.9948 160.902 65.8724C158.662 65.7118 156.414 65.7118 154.175 65.8724C151.284 66.1352 148.01 66.8078 148.01 66.8078Z" fill="#263238"/>
<path d="M158.208 72.6742C156.985 72.6378 155.795 72.2614 154.774 71.5873C154.762 71.5792 154.752 71.5689 154.744 71.5569C154.736 71.5448 154.731 71.5313 154.728 71.5172C154.726 71.5031 154.726 71.4886 154.729 71.4746C154.733 71.4606 154.739 71.4474 154.747 71.4358C154.755 71.4234 154.766 71.4128 154.778 71.4045C154.79 71.3962 154.804 71.3904 154.818 71.3875C154.833 71.3846 154.848 71.3846 154.862 71.3876C154.877 71.3905 154.891 71.3963 154.903 71.4046C155.995 72.1206 157.282 72.4816 158.587 72.4381C159.072 72.1307 162.431 69.8901 162.685 66.0101C162.686 65.9954 162.69 65.9812 162.697 65.9681C162.704 65.955 162.713 65.9433 162.724 65.9338C162.735 65.9243 162.748 65.9171 162.762 65.9126C162.776 65.9081 162.791 65.9064 162.805 65.9076C162.82 65.9087 162.834 65.9127 162.847 65.9194C162.86 65.9261 162.872 65.9353 162.882 65.9464C162.891 65.9576 162.898 65.9706 162.903 65.9845C162.907 65.9985 162.909 66.0133 162.908 66.0279C162.649 69.997 159.344 72.2332 158.68 72.6386C158.664 72.6429 158.647 72.6429 158.631 72.6386C158.489 72.6697 158.346 72.6742 158.208 72.6742Z" fill="white"/>
<path d="M151.908 71.9884C151.889 71.9948 151.869 71.9948 151.85 71.9884C151.687 71.8622 151.554 71.7018 151.46 71.5186C151.367 71.3354 151.314 71.1339 151.306 70.9282C151.097 69.5695 151.6 67.1952 152.643 65.9657C152.653 65.9549 152.666 65.9464 152.679 65.9405C152.693 65.9347 152.708 65.9316 152.723 65.9316C152.738 65.9316 152.753 65.9347 152.767 65.9405C152.78 65.9464 152.793 65.9549 152.803 65.9657C152.824 65.9865 152.835 66.0145 152.835 66.0437C152.835 66.0728 152.824 66.1008 152.803 66.1216C151.814 67.2754 151.302 69.5962 151.502 70.9059C151.522 71.2447 151.671 71.5632 151.917 71.7968C152.534 71.6896 153.133 71.4993 153.699 71.2311C153.726 71.2204 153.756 71.2204 153.784 71.2311C153.811 71.2418 153.833 71.2625 153.846 71.289C153.852 71.3025 153.855 71.3169 153.855 71.3316C153.855 71.3463 153.853 71.3609 153.847 71.3746C153.842 71.3882 153.834 71.4007 153.824 71.4112C153.813 71.4218 153.801 71.4302 153.788 71.436C153.19 71.7084 152.557 71.8944 151.908 71.9884Z" fill="white"/>
<path d="M160.234 58.2998C159.811 60.4603 159.388 64.4294 160.903 65.8727C160.903 65.8727 160.31 68.0688 156.288 68.0688C151.864 68.0688 154.176 65.8727 154.176 65.8727C156.586 65.2936 156.524 63.5028 156.105 61.8234L160.234 58.2998Z" fill="#FFB573"/>
<path d="M160.896 65.8724C158.656 65.7118 156.408 65.7118 154.169 65.8724L153.724 65.9169C153.185 66.9326 153.051 68.4961 154.338 70.817C154.338 70.817 160.236 68.4382 161.773 65.9525C161.488 65.908 161.194 65.8857 160.896 65.8724Z" fill="#FFB573"/>
<path opacity="0.2" d="M158.55 59.7383L156.1 61.8364C156.206 62.2272 156.276 62.6268 156.309 63.0303C157.231 62.8966 158.496 61.8854 158.594 60.9188C158.653 60.5259 158.638 60.1256 158.55 59.7383V59.7383Z" fill="black"/>
<path d="M162.565 54.5486C161.741 58.0722 161.465 59.5823 159.354 61.1013C156.182 63.391 152.035 61.6092 151.781 57.9074C151.558 54.5797 152.948 49.3723 156.681 48.5526C157.502 48.3675 158.356 48.3952 159.163 48.633C159.971 48.8708 160.704 49.3109 161.293 49.9115C161.883 50.5121 162.309 51.2533 162.531 52.0648C162.754 52.8763 162.766 53.7313 162.565 54.5486V54.5486Z" fill="#FFB573"/>
<path d="M149.753 88.8185C149.753 88.8185 146.875 116.914 147.116 128.019C147.365 139.601 151.602 165.968 151.602 165.968H156.546C156.546 165.968 155.767 140.261 156.203 128.901C156.68 116.513 160.613 88.8096 160.613 88.8096L149.753 88.8185Z" fill="#FFC100"/>
<path opacity="0.3" d="M149.753 88.8185C149.753 88.8185 146.875 116.914 147.116 128.019C147.365 139.601 151.602 165.968 151.602 165.968H156.546C156.546 165.968 155.767 140.261 156.203 128.901C156.68 116.513 160.613 88.8096 160.613 88.8096L149.753 88.8185Z" fill="white"/>
<path d="M156.96 166.164H151.173L150.75 164.32L157.232 164.093L156.96 166.164Z" fill="#263238"/>
<path opacity="0.2" d="M156.139 95.8076C152.504 103.127 155.408 116.477 156.696 121.444C157.355 113.987 158.478 104.864 159.337 98.1685C158.772 94.3821 157.818 92.4354 156.139 95.8076Z" fill="black"/>
<path d="M173.188 170.922H169.54L168.203 162.476H171.847L173.188 170.922Z" fill="#FFB573"/>
<path d="M169.361 170.498H173.472C173.546 170.499 173.616 170.524 173.674 170.569C173.732 170.614 173.774 170.677 173.793 170.748L174.684 173.99C174.706 174.067 174.709 174.148 174.694 174.226C174.678 174.304 174.645 174.378 174.596 174.441C174.547 174.504 174.484 174.554 174.412 174.588C174.339 174.622 174.26 174.639 174.181 174.636C172.751 174.614 172.051 174.53 170.247 174.53C169.138 174.53 165.971 174.645 164.456 174.645C162.942 174.645 162.648 173.131 163.267 172.993C166.046 172.378 167.953 171.532 168.813 170.721C168.963 170.583 169.157 170.504 169.361 170.498V170.498Z" fill="#263238"/>
<g opacity="0.2">
<path opacity="0.2" d="M168.201 162.476L168.892 166.832H172.54L171.85 162.476H168.201Z" fill="black"/>
</g>
<path d="M153.871 88.8185C153.871 88.8185 156.931 116.914 158.615 128.019C160.366 139.601 168.028 165.968 168.028 165.968H172.937C172.937 165.968 168.821 140.261 167.783 128.901C166.651 116.513 164.696 88.8096 164.696 88.8096L153.871 88.8185Z" fill="#FFC100"/>
<path opacity="0.3" d="M153.871 88.8185C153.871 88.8185 156.931 116.914 158.615 128.019C160.366 139.601 168.028 165.968 168.028 165.968H172.937C172.937 165.968 168.821 140.261 167.783 128.901C166.651 116.513 164.696 88.8096 164.696 88.8096L153.871 88.8185Z" fill="white"/>
<path d="M173.39 166.164H167.603L166.939 164.32L173.39 164.093V166.164Z" fill="#263238"/>
<path d="M168.073 171.135C167.753 171.161 167.433 171.083 167.16 170.913C167.095 170.863 167.043 170.799 167.007 170.725C166.97 170.652 166.951 170.571 166.951 170.49C166.946 170.445 166.954 170.399 166.974 170.359C166.995 170.318 167.027 170.285 167.066 170.262C167.481 170.017 169.031 170.757 169.205 170.846C169.222 170.853 169.237 170.866 169.248 170.881C169.258 170.897 169.263 170.916 169.263 170.935C169.263 170.952 169.257 170.968 169.247 170.981C169.236 170.994 169.221 171.003 169.205 171.006C168.833 171.086 168.454 171.129 168.073 171.135V171.135ZM167.325 170.383C167.271 170.379 167.217 170.39 167.169 170.414C167.153 170.423 167.14 170.437 167.132 170.453C167.124 170.47 167.121 170.489 167.124 170.507C167.125 170.56 167.137 170.613 167.16 170.66C167.183 170.708 167.217 170.75 167.258 170.784C167.507 170.984 168.109 171.015 168.902 170.882C168.406 170.632 167.874 170.464 167.325 170.383V170.383Z" fill="#FFC100"/>
<path d="M169.186 171.007H169.15C168.705 170.806 167.729 170.022 167.742 169.608C167.742 169.51 167.8 169.39 168.036 169.363C168.214 169.348 168.392 169.402 168.531 169.514C168.904 169.902 169.157 170.389 169.261 170.917C169.264 170.932 169.263 170.947 169.259 170.961C169.254 170.975 169.246 170.988 169.235 170.998C169.219 171.005 169.202 171.008 169.186 171.007ZM168.125 169.528H168.076C167.921 169.528 167.916 169.608 167.916 169.626C167.916 169.875 168.571 170.494 169.048 170.762C168.956 170.337 168.744 169.947 168.437 169.639C168.349 169.568 168.239 169.529 168.125 169.528Z" fill="#FFC100"/>
<path d="M156.725 54.5269C156.676 54.8164 156.48 55.0258 156.279 54.9723C156.079 54.9189 155.972 54.6783 156.025 54.3888C156.079 54.0992 156.266 53.8899 156.471 53.921C156.676 53.9522 156.774 54.2373 156.725 54.5269Z" fill="#263238"/>
<path d="M153.45 53.97C153.401 54.2595 153.205 54.4689 153.004 54.4154C152.804 54.362 152.701 54.1259 152.75 53.8319C152.799 53.5379 152.991 53.333 153.196 53.3864C153.401 53.4399 153.499 53.6804 153.45 53.97Z" fill="#263238"/>
<path d="M153.277 53.4164L152.613 53.0957C152.613 53.0957 152.881 53.7015 153.277 53.4164Z" fill="#263238"/>
<path d="M154.37 54.665C154.003 55.2817 153.553 55.8452 153.033 56.34C153.164 56.47 153.321 56.5703 153.494 56.6341C153.667 56.6979 153.852 56.7237 154.035 56.7097L154.37 54.665Z" fill="#ED893E"/>
<path d="M155.409 58.1118C155.259 58.1119 155.11 58.0985 154.963 58.0717C154.952 58.0701 154.941 58.0662 154.932 58.0604C154.922 58.0546 154.913 58.0468 154.907 58.0377C154.9 58.0286 154.895 58.0182 154.893 58.0072C154.89 57.9962 154.89 57.9848 154.892 57.9737C154.896 57.9508 154.909 57.9304 154.928 57.9171C154.948 57.9038 154.971 57.8985 154.994 57.9024C155.353 57.9713 155.723 57.9547 156.075 57.8541C156.426 57.7535 156.749 57.5717 157.017 57.3233C157.025 57.3147 157.034 57.3078 157.045 57.3031C157.056 57.2983 157.067 57.2959 157.079 57.2959C157.091 57.2959 157.102 57.2983 157.113 57.3031C157.124 57.3078 157.133 57.3147 157.141 57.3233C157.149 57.3312 157.156 57.3406 157.16 57.3509C157.164 57.3612 157.166 57.3723 157.166 57.3835C157.166 57.3946 157.164 57.4057 157.16 57.416C157.156 57.4264 157.149 57.4357 157.141 57.4436C156.675 57.8868 156.052 58.127 155.409 58.1118V58.1118Z" fill="#263238"/>
<path d="M164.287 49.0604C163.869 48.767 163.394 48.5637 162.893 48.4635C162.488 44.9889 159.703 42.7794 156.599 43.4787C153.079 44.2717 151.854 48.6372 154.22 50.1251C155.611 50.9752 157.183 51.4864 158.808 51.6174C158.87 54.4995 160.666 56.9629 161.926 57.0966C165.526 55.6622 166.457 50.5883 164.287 49.0604Z" fill="#263238"/>
<path d="M162.974 57.9787C162.619 58.5819 162.042 59.0217 161.366 59.2038C160.475 59.431 160.03 58.6247 160.306 57.7872C160.542 57.0344 161.299 56.0053 162.195 56.1434C162.389 56.179 162.572 56.2622 162.726 56.3857C162.88 56.5093 163.002 56.6692 163.079 56.8511C163.156 57.033 163.187 57.2313 163.169 57.4281C163.151 57.6249 163.084 57.8141 162.974 57.9787Z" fill="#FFB573"/>
<path d="M158.155 54.0811C158.119 54.081 158.083 54.0693 158.054 54.0477C158.024 54.0261 158.002 53.9957 157.991 53.9609C157.755 53.1991 156.779 52.8695 156.77 52.8695C156.726 52.8552 156.69 52.8242 156.669 52.7833C156.649 52.7424 156.645 52.6949 156.659 52.6512C156.665 52.6292 156.676 52.6088 156.691 52.5912C156.706 52.5736 156.724 52.5592 156.744 52.5488C156.764 52.5384 156.787 52.5322 156.81 52.5307C156.832 52.5291 156.855 52.5322 156.877 52.5398C156.922 52.5398 158.035 52.9274 158.32 53.8762C158.334 53.9199 158.331 53.9674 158.31 54.0083C158.289 54.0492 158.253 54.0802 158.209 54.0945L158.155 54.0811Z" fill="#263238"/>
<path d="M152.724 52.2857C152.694 52.2857 152.664 52.2779 152.637 52.2631C152.611 52.2483 152.589 52.2269 152.573 52.2011C152.55 52.1609 152.545 52.1135 152.557 52.0692C152.57 52.025 152.599 51.9875 152.64 51.965C152.874 51.8231 153.139 51.7394 153.413 51.7208C153.686 51.7022 153.96 51.7492 154.212 51.8581C154.247 51.8818 154.272 51.9175 154.283 51.9584C154.293 51.9993 154.288 52.0427 154.269 52.0804C154.25 52.1181 154.218 52.1475 154.179 52.1632C154.14 52.1788 154.096 52.1796 154.056 52.1654V52.1654C153.855 52.0831 153.637 52.0491 153.421 52.0662C153.204 52.0832 152.995 52.1508 152.809 52.2634C152.783 52.279 152.754 52.2868 152.724 52.2857Z" fill="#263238"/>
<path d="M168.893 70.9463C169.338 73.0444 169.632 75.1069 169.882 77.214C170.145 79.3292 170.294 81.4572 170.327 83.5886C170.327 83.6955 170.327 83.9182 170.327 84.1142C170.327 84.3102 170.296 84.4706 170.274 84.6354C170.22 84.9606 170.162 85.2635 170.087 85.5263C169.944 86.0965 169.775 86.6266 169.597 87.1478C169.24 88.1857 168.817 89.1702 168.389 90.1413C167.518 92.0673 166.55 93.9481 165.489 95.7764L163.814 94.9969L164.808 92.0657C165.142 91.0946 165.463 90.1146 165.761 89.139C166.06 88.1635 166.349 87.1968 166.599 86.2435C166.719 85.7669 166.821 85.2947 166.893 84.8492C166.928 84.6265 166.955 84.4037 166.973 84.2256C166.973 84.132 166.973 84.0474 166.973 83.9717L166.951 83.7177C166.87 82.7199 166.755 81.7176 166.634 80.7109L166.215 77.6817C165.908 75.6682 165.565 73.628 165.222 71.6368L168.893 70.9463Z" fill="#FFB573"/>
<path d="M167.19 66.7003C168.674 67.1457 170.456 72.2596 170.456 72.2596L164.696 76.3757C164.696 76.3757 162.598 72.1126 163.221 70.1927C163.872 68.197 165.493 66.1835 167.19 66.7003Z" fill="#263238"/>
<path d="M150.999 171.135C150.685 171.167 150.37 171.088 150.108 170.913C150.049 170.861 150.004 170.795 149.976 170.721C149.949 170.647 149.941 170.568 149.952 170.49C149.954 170.443 149.969 170.397 149.994 170.357C150.018 170.317 150.053 170.285 150.095 170.262C150.54 170.017 151.997 170.757 152.162 170.846C152.178 170.854 152.19 170.867 152.198 170.883C152.206 170.899 152.209 170.917 152.206 170.935C152.204 170.952 152.196 170.969 152.184 170.981C152.172 170.994 152.157 171.003 152.139 171.006C151.764 171.085 151.382 171.128 150.999 171.135V171.135ZM150.349 170.383C150.293 170.379 150.238 170.39 150.188 170.414C150.171 170.423 150.157 170.436 150.146 170.453C150.136 170.469 150.131 170.488 150.13 170.507C150.124 170.558 150.129 170.609 150.146 170.657C150.163 170.705 150.191 170.749 150.228 170.784C150.451 170.984 151.053 171.015 151.859 170.882C151.388 170.63 150.877 170.461 150.349 170.383V170.383Z" fill="#FFC100"/>
<path d="M152.129 171.006H152.089C151.643 170.806 150.792 170.022 150.864 169.608C150.864 169.51 150.948 169.389 151.184 169.363C151.271 169.354 151.358 169.363 151.44 169.389C151.523 169.415 151.6 169.458 151.665 169.514C152.111 169.897 152.209 170.877 152.209 170.917C152.211 170.933 152.209 170.948 152.203 170.963C152.197 170.977 152.186 170.989 152.173 170.997C152.159 171.004 152.144 171.007 152.129 171.006V171.006ZM151.26 169.527H151.198C151.042 169.527 151.033 169.608 151.028 169.625C150.988 169.875 151.572 170.494 152.013 170.761C151.984 170.35 151.829 169.958 151.567 169.639C151.483 169.564 151.373 169.524 151.26 169.527V169.527Z" fill="#FFC100"/>
<path d="M156.543 53.9741L155.879 53.6533C155.879 53.6533 156.155 54.2636 156.543 53.9741Z" fill="#263238"/>
<path d="M164.786 87.9488L165.165 89.2852C165.218 89.3921 165.094 89.4945 164.924 89.4945H149.676C149.542 89.4945 149.436 89.4277 149.427 89.3475L149.293 88.0111C149.293 87.9176 149.4 87.8419 149.542 87.8419H164.563C164.606 87.8408 164.649 87.85 164.688 87.8686C164.726 87.8871 164.76 87.9146 164.786 87.9488V87.9488Z" fill="#FFC100"/>
<path d="M162.781 89.6244H163.182C163.262 89.6244 163.32 89.5843 163.316 89.5353L163.129 87.8113C163.129 87.7623 163.053 87.7178 162.973 87.7178H162.572C162.492 87.7178 162.429 87.7623 162.434 87.8113L162.625 89.5353C162.621 89.5843 162.692 89.6244 162.781 89.6244Z" fill="#FFC100"/>
<g opacity="0.3">
<path opacity="0.3" d="M162.781 89.6244H163.182C163.262 89.6244 163.32 89.5843 163.316 89.5353L163.129 87.8113C163.129 87.7623 163.053 87.7178 162.973 87.7178H162.572C162.492 87.7178 162.429 87.7623 162.434 87.8113L162.625 89.5353C162.621 89.5843 162.692 89.6244 162.781 89.6244Z" fill="white"/>
</g>
<path d="M150.807 89.6244H151.208C151.288 89.6244 151.35 89.5843 151.346 89.5353L151.154 87.8113C151.154 87.7623 151.078 87.7178 150.998 87.7178H150.597C150.517 87.7178 150.455 87.7623 150.464 87.8113L150.651 89.5353C150.655 89.5843 150.727 89.6244 150.807 89.6244Z" fill="#FFC100"/>
<path opacity="0.3" d="M150.807 89.6244H151.208C151.288 89.6244 151.35 89.5843 151.346 89.5353L151.154 87.8113C151.154 87.7623 151.078 87.7178 150.998 87.7178H150.597C150.517 87.7178 150.455 87.7623 150.464 87.8113L150.651 89.5353C150.655 89.5843 150.727 89.6244 150.807 89.6244Z" fill="white"/>
<path d="M156.789 89.6244H157.19C157.27 89.6244 157.333 89.5843 157.324 89.5353L157.137 87.8113C157.137 87.7623 157.061 87.7178 156.981 87.7178H156.58C156.5 87.7178 156.437 87.7623 156.446 87.8113L156.633 89.5353C156.638 89.5843 156.709 89.6244 156.789 89.6244Z" fill="#FFC100"/>
<path opacity="0.3" d="M156.789 89.6244H157.19C157.27 89.6244 157.333 89.5843 157.324 89.5353L157.137 87.8113C157.137 87.7623 157.061 87.7178 156.981 87.7178H156.58C156.5 87.7178 156.437 87.7623 156.446 87.8113L156.633 89.5353C156.638 89.5843 156.709 89.6244 156.789 89.6244Z" fill="white"/>
<path d="M163.881 94.6672L161.053 97.4113L164.741 97.781C164.741 97.781 166.078 95.8521 165.378 94.5068L163.881 94.6672Z" fill="#FFB573"/>
<path d="M160.635 100.449L163.744 100.592L164.742 97.7809L161.054 97.4111L160.635 100.449Z" fill="#FFB573"/>
<path d="M88.5268 171.47C88.8781 171.511 89.2323 171.424 89.5247 171.225C89.5653 171.18 89.5912 171.123 89.5992 171.063C89.6071 171.003 89.5967 170.941 89.5692 170.887C89.5491 170.842 89.5189 170.802 89.4811 170.77C89.4433 170.739 89.3988 170.716 89.3509 170.704C88.8253 170.557 87.5691 171.208 87.5334 171.239C87.5183 171.246 87.5055 171.257 87.4968 171.271C87.4881 171.286 87.4838 171.302 87.4844 171.319C87.4851 171.334 87.4908 171.348 87.5005 171.359C87.5101 171.371 87.5233 171.378 87.5379 171.381C87.8643 171.44 88.1952 171.47 88.5268 171.47V171.47ZM89.1416 170.838C89.1903 170.831 89.2398 170.831 89.2886 170.838C89.3177 170.844 89.3451 170.857 89.3683 170.875C89.3916 170.894 89.41 170.918 89.4222 170.945C89.4623 171.043 89.4222 171.092 89.4222 171.118C89.2396 171.328 88.411 171.332 87.8141 171.248C88.2291 171.034 88.6785 170.896 89.1416 170.838V170.838Z" fill="#FFC100"/>
<path d="M87.5478 171.38H87.5834C88.0022 171.202 88.8886 170.489 88.8842 170.124C88.8842 170.035 88.8352 169.928 88.6258 169.906C88.466 169.895 88.3077 169.942 88.1803 170.04C87.8371 170.387 87.598 170.824 87.4899 171.3C87.4854 171.313 87.4852 171.327 87.4892 171.34C87.4932 171.352 87.5012 171.364 87.5121 171.371C87.5229 171.378 87.5353 171.381 87.5478 171.38V171.38ZM88.5412 170.044H88.5902C88.7238 170.044 88.7283 170.111 88.7283 170.129C88.7283 170.351 88.118 170.908 87.677 171.149C87.7758 170.767 87.9758 170.419 88.2561 170.142C88.3394 170.083 88.4391 170.052 88.5412 170.053V170.044Z" fill="#FFC100"/>
<path d="M83.9629 171.305H87.2371L88.6759 163.724H85.4017L83.9629 171.305Z" fill="#B55B52"/>
<path d="M87.2677 170.927H83.704C83.6359 170.929 83.57 170.952 83.5146 170.991C83.4591 171.031 83.4166 171.086 83.3921 171.149L82.3186 174.058C82.2886 174.121 82.2754 174.191 82.2803 174.261C82.2852 174.331 82.308 174.398 82.3466 174.456C82.3851 174.514 82.4381 174.562 82.5003 174.593C82.5625 174.625 82.6319 174.64 82.7017 174.637C83.998 174.637 85.8689 174.544 87.4904 174.544C89.3836 174.544 89.2099 174.646 91.4328 174.646C92.7692 174.646 93.3483 173.288 92.8048 173.163C90.328 172.606 90.0385 172.544 88.0294 171.181C87.8075 171.02 87.5416 170.931 87.2677 170.927Z" fill="#263238"/>
<path opacity="0.2" d="M88.6763 163.728L87.9324 167.634H84.6582L85.4021 163.728H88.6763Z" fill="black"/>
<path d="M88.9224 89.6562L91.065 91.9058L87.6082 93.1131C87.6082 93.1131 86.352 91.2777 87.3187 90.0215L88.9224 89.6562Z" fill="#B55B52"/>
<path d="M91.7057 95.0512L88.2845 95.5501L87.6074 93.1135L91.0642 91.9062L91.7057 95.0512Z" fill="#B55B52"/>
<path d="M76.0779 108.325L92.7739 109.056C93.1662 109.062 93.5486 108.932 93.8563 108.689C94.1639 108.445 94.378 108.103 94.4622 107.72L96.4578 97.5185C96.4993 97.3457 96.5013 97.1658 96.4638 96.9921C96.4263 96.8183 96.3501 96.6553 96.2411 96.515C96.132 96.3746 95.9927 96.2607 95.8336 96.1815C95.6745 96.1023 95.4996 96.0599 95.3219 96.0574L78.6259 95.3224C78.2343 95.3174 77.853 95.4476 77.5462 95.691C77.2395 95.9345 77.0261 96.2763 76.9421 96.6588L74.9419 106.86C74.8997 107.033 74.8971 107.213 74.9343 107.388C74.9714 107.562 75.0474 107.726 75.1566 107.867C75.2658 108.007 75.4053 108.122 75.5648 108.201C75.7243 108.281 75.8997 108.323 76.0779 108.325V108.325Z" fill="#263238"/>
<path d="M77.2247 111.462L97.8497 112.353C98.3175 112.371 98.7743 112.208 99.1257 111.899C99.4772 111.59 99.6965 111.158 99.7384 110.691L100.83 98.0312C100.852 97.8062 100.828 97.5791 100.758 97.3639C100.689 97.1488 100.577 96.9501 100.427 96.7801C100.278 96.6102 100.096 96.4726 99.8918 96.376C99.6874 96.2793 99.4655 96.2256 99.2395 96.2181L78.619 95.3272C78.1513 95.3114 77.6952 95.4745 77.3434 95.7832C76.9917 96.0919 76.7708 96.523 76.7258 96.9888L75.6344 109.649C75.613 109.874 75.6378 110.101 75.7073 110.315C75.7767 110.53 75.8894 110.729 76.0383 110.899C76.1872 111.068 76.3693 111.206 76.5733 111.303C76.7773 111.4 76.999 111.454 77.2247 111.462V111.462Z" fill="#FFC100"/>
<path opacity="0.2" d="M77.2247 111.462L97.8497 112.353C98.3175 112.371 98.7743 112.208 99.1257 111.899C99.4772 111.59 99.6965 111.158 99.7384 110.691L100.83 98.0312C100.852 97.8062 100.828 97.5791 100.758 97.3639C100.689 97.1488 100.577 96.9501 100.427 96.7801C100.278 96.6102 100.096 96.4726 99.8918 96.376C99.6874 96.2793 99.4655 96.2256 99.2395 96.2181L78.619 95.3272C78.1513 95.3114 77.6952 95.4745 77.3434 95.7832C76.9917 96.0919 76.7708 96.523 76.7258 96.9888L75.6344 109.649C75.613 109.874 75.6378 110.101 75.7073 110.315C75.7767 110.53 75.8894 110.729 76.0383 110.899C76.1872 111.068 76.3693 111.206 76.5733 111.303C76.7773 111.4 76.999 111.454 77.2247 111.462V111.462Z" fill="black"/>
<path d="M92.3548 99.5719H92.3014L86.3143 99.309C86.1584 99.3037 86.0051 99.2664 85.864 99.1996C85.7229 99.1329 85.597 99.0379 85.494 98.9207C85.3909 98.8035 85.3129 98.6664 85.2648 98.5179C85.2166 98.3694 85.1994 98.2127 85.2141 98.0573L85.4501 95.3266C85.5083 94.7683 85.7751 94.2526 86.1972 93.8826C86.6192 93.5126 87.1654 93.3155 87.7265 93.3309L91.7356 93.5046C92.0254 93.5161 92.3097 93.5864 92.5714 93.7113C92.8331 93.8361 93.0667 94.0128 93.2579 94.2308C93.4492 94.4487 93.5941 94.7032 93.6839 94.9789C93.7737 95.2546 93.8065 95.5457 93.7803 95.8344L93.5531 98.4805C93.5234 98.7783 93.3846 99.0545 93.1633 99.256C92.9421 99.4575 92.6541 99.57 92.3548 99.5719V99.5719ZM86.5638 97.9771L92.2257 98.2266L92.4439 95.7141C92.4563 95.6042 92.4457 95.4929 92.413 95.3872C92.3802 95.2815 92.3259 95.1837 92.2535 95.1001C92.1812 95.0164 92.0922 94.9486 91.9924 94.9009C91.8925 94.8533 91.7839 94.8268 91.6733 94.8232L87.6641 94.645C87.4459 94.6433 87.2347 94.7218 87.0704 94.8654C86.9062 95.0091 86.8004 95.2081 86.7732 95.4246L86.5638 97.9771Z" fill="#FFC100"/>
<path d="M100.053 112.464L79.4324 111.573C78.9612 111.546 78.5172 111.343 78.1876 111.005C77.8579 110.667 77.6664 110.219 77.6506 109.747L77.3744 97.0288C77.3653 96.8043 77.4033 96.5804 77.486 96.3715C77.5687 96.1626 77.6943 95.9734 77.8546 95.816C78.0149 95.6586 78.2065 95.5366 78.4168 95.4577C78.6272 95.3789 78.8518 95.345 79.076 95.3583L99.701 96.2492C100.173 96.2757 100.617 96.4779 100.947 96.816C101.277 97.1541 101.468 97.6035 101.483 98.0756L101.755 110.794C101.763 111.018 101.725 111.241 101.642 111.45C101.559 111.659 101.433 111.848 101.273 112.005C101.113 112.162 100.921 112.284 100.711 112.363C100.501 112.442 100.277 112.477 100.053 112.464Z" fill="#FFC100"/>
<path d="M93.9451 64.7416C93.7268 65.1871 93.4685 65.6949 93.2368 66.1804C93.0052 66.666 92.7914 67.1827 92.5463 67.6861C92.1009 68.6973 91.6554 69.713 91.2723 70.7331C90.8892 71.7532 90.5329 72.7822 90.2166 73.8023C90.0696 74.3146 89.9181 74.8224 89.8067 75.3258C89.7399 75.5797 89.682 75.8336 89.6375 76.0786L89.5662 76.4528C89.5395 76.582 89.5127 76.7112 89.5038 76.8003C89.5038 76.9963 89.4504 77.1745 89.4415 77.4373C89.4326 77.7001 89.4103 77.914 89.4103 78.1857C89.4103 78.7069 89.4103 79.2548 89.4103 79.8027C89.4326 80.9119 89.4994 82.03 89.5662 83.1793C89.6954 85.4557 89.8869 87.7676 90.0651 90.0484L85.9847 90.7077C85.4323 88.3868 84.9957 86.0882 84.6037 83.7317C84.4166 82.5557 84.2563 81.3708 84.1226 80.168C84.0603 79.5533 83.9979 78.943 83.9667 78.2971C83.94 77.9897 83.9355 77.6422 83.9311 77.3037C83.9266 76.9651 83.9311 76.582 83.9712 76.1989C83.9801 76.0244 83.9979 75.8504 84.0246 75.6777L84.087 75.1877C84.1226 74.8581 84.1716 74.5373 84.2295 74.2255C84.3365 73.5841 84.4701 72.9649 84.6037 72.3457C84.8933 71.1206 85.2229 69.9134 85.6149 68.7463C86.0069 67.5792 86.4212 66.421 86.8845 65.2895C87.1161 64.7238 87.33 64.1625 87.6062 63.6012C87.8823 63.0399 88.1006 62.5054 88.408 61.8906L93.9451 64.7416Z" fill="#FFC100"/>
<path d="M102.872 88.0615C102.872 88.0615 99.7223 112.531 97.9004 122.509C96.0027 132.889 89.2806 166.877 89.2806 166.877H83.7168C83.7168 166.877 86.541 133.494 87.7928 123.302C89.1604 112.166 91.3565 88.0615 91.3565 88.0615H102.872Z" fill="#263238"/>
<path d="M90.6545 164.668C90.6812 164.668 90.0041 166.971 90.0041 166.971H83.2598L83.38 164.917L90.6545 164.668Z" fill="#FFC100"/>
<path d="M105.555 47.4257C105.555 47.7019 105.702 47.9291 105.884 47.9291C106.067 47.9291 106.21 47.7019 106.21 47.4257C106.21 47.1495 106.063 46.9268 105.884 46.9268C105.706 46.9268 105.555 47.1361 105.555 47.4257Z" fill="#263238"/>
<path d="M105.674 47.9287C106.008 48.7763 106.458 49.5737 107.01 50.2986C106.819 50.4355 106.601 50.5288 106.37 50.5719C106.139 50.615 105.901 50.6069 105.674 50.548V47.9287Z" fill="#A02724"/>
<path d="M104.576 45.8886C104.609 45.8888 104.642 45.8795 104.67 45.8619C104.832 45.7364 105.021 45.6514 105.223 45.6142C105.424 45.577 105.632 45.5886 105.828 45.6481C105.868 45.6627 105.912 45.6612 105.951 45.6437C105.991 45.6262 106.021 45.5943 106.037 45.5545C106.045 45.5347 106.049 45.5134 106.048 45.4921C106.048 45.4707 106.043 45.4497 106.034 45.4302C106.026 45.4107 106.013 45.3931 105.998 45.3785C105.982 45.3639 105.964 45.3526 105.944 45.3452C105.697 45.2657 105.435 45.2469 105.18 45.2904C104.925 45.3338 104.684 45.4382 104.478 45.5946C104.444 45.6204 104.421 45.6585 104.414 45.701C104.407 45.7434 104.418 45.7868 104.442 45.8218C104.458 45.843 104.478 45.8601 104.501 45.8717C104.524 45.8834 104.55 45.8892 104.576 45.8886V45.8886Z" fill="#263238"/>
<path d="M96.7863 50.4863C97.2318 52.8829 97.7218 57.2707 96.0469 58.8655C96.0469 58.8655 96.7017 61.2933 101.152 61.2933C106.052 61.2933 103.486 58.8655 103.486 58.8655C100.813 58.2285 100.889 56.2506 101.352 54.3886L96.7863 50.4863Z" fill="#B55B52"/>
<path d="M95.4025 59.6991C95.055 58.9329 94.6675 58.0509 95.4649 57.7747C96.3558 57.4718 101.153 57.1644 102.811 57.7346C103.029 57.7952 103.234 57.8986 103.412 58.0387C103.59 58.1788 103.739 58.3529 103.85 58.551C103.96 58.749 104.031 58.967 104.056 59.1924C104.082 59.4178 104.063 59.646 104 59.8639L95.4025 59.6991Z" fill="#263238"/>
<path d="M89.5974 59.8056C86.733 61.1063 84.9512 70.9689 84.9512 70.9689L90.5685 72.7508C91.6721 70.1464 92.5891 67.4669 93.3125 64.7324C94.3326 60.6163 92.5285 58.4781 89.5974 59.8056Z" fill="#FFC100"/>
<path d="M124.472 84.2256H127.928L127.323 88.3595C127.323 88.3595 124.614 88.2615 123.385 86.2213L124.472 84.2256Z" fill="#B55B52"/>
<path d="M131.18 85.6643L129.443 88.8583L127.305 88.3683L127.911 84.2344L131.18 85.6643Z" fill="#B55B52"/>
<path d="M96.3091 46.8376C96.5185 50.241 96.4695 52.2456 98.189 53.9918C100.773 56.62 104.973 55.0609 105.784 51.662C106.519 48.6061 106.051 43.5546 102.719 42.2004C101.986 41.8984 101.189 41.7887 100.401 41.8818C99.6142 41.9749 98.8639 42.2676 98.2216 42.7322C97.5794 43.1968 97.0666 43.8179 96.7319 44.5364C96.3971 45.2549 96.2516 46.0471 96.3091 46.8376V46.8376Z" fill="#B55B52"/>
<path d="M95.9194 51.4665C95.9194 51.4665 92.8368 46.8426 93.505 43.8268C94.1153 41.0694 100.338 40.0849 102.922 40.3611C105.666 40.6596 106.735 41.8401 105.23 44.2188C104.341 44.64 103.407 44.9569 102.445 45.1632C102.445 45.1632 103.973 47.0386 103.987 48.2815C103.541 48.5131 102.165 49.0655 102.165 49.0655C102.165 49.0655 100.214 53.881 100.156 53.872C99.4029 53.783 97.6611 53.7562 97.0375 53.9923C96.5956 53.1827 96.2216 52.3379 95.9194 51.4665V51.4665Z" fill="#263238"/>
<path d="M100.814 48.5663C101.038 49.3803 101.523 50.0985 102.195 50.6109C103.086 51.2791 103.749 50.6466 103.683 49.6443C103.625 48.7534 103.09 47.3145 102.11 47.0339C101.13 46.7532 100.555 47.5818 100.814 48.5663Z" fill="#B55B52"/>
<path opacity="0.3" d="M100.512 97.2071C96.1327 98.2227 96.9479 114.063 97.7898 123.093C97.8299 122.888 97.8611 122.697 97.8967 122.509C98.9837 116.567 100.538 105.493 101.621 97.5011C101.284 97.3063 100.901 97.2048 100.512 97.2071V97.2071Z" fill="black"/>
<path d="M104.747 171.47C105.165 171.47 105.571 171.412 105.709 171.225C105.744 171.176 105.764 171.117 105.764 171.056C105.764 170.995 105.744 170.936 105.709 170.887C105.683 170.841 105.647 170.802 105.605 170.77C105.563 170.739 105.515 170.716 105.464 170.704C104.92 170.557 103.776 171.208 103.727 171.239C103.713 171.247 103.702 171.259 103.696 171.273C103.69 171.288 103.688 171.304 103.691 171.319C103.694 171.334 103.702 171.348 103.713 171.359C103.724 171.371 103.738 171.378 103.753 171.381C104.081 171.439 104.414 171.469 104.747 171.47ZM105.268 170.838C105.317 170.831 105.366 170.831 105.415 170.838C105.446 170.844 105.476 170.857 105.502 170.875C105.528 170.894 105.55 170.917 105.566 170.945C105.624 171.043 105.602 171.092 105.566 171.118C105.415 171.328 104.586 171.332 103.976 171.248C104.376 171.028 104.815 170.889 105.268 170.838V170.838Z" fill="#FFC100"/>
<path d="M103.758 171.381H103.789C104.186 171.203 104.97 170.49 104.908 170.125C104.908 170.036 104.832 169.929 104.618 169.907C104.539 169.897 104.458 169.904 104.381 169.927C104.305 169.95 104.233 169.988 104.173 170.04C103.754 170.383 103.669 171.265 103.665 171.301C103.663 171.315 103.665 171.328 103.67 171.341C103.676 171.353 103.685 171.364 103.696 171.372C103.715 171.383 103.737 171.386 103.758 171.381V171.381ZM104.556 170.045H104.605C104.743 170.045 104.752 170.112 104.756 170.129C104.792 170.352 104.257 170.909 103.865 171.149C103.906 170.776 104.062 170.424 104.311 170.143C104.38 170.087 104.466 170.056 104.556 170.054V170.045Z" fill="#FFC100"/>
<path d="M100.16 171.305H103.434L103.76 163.724H100.49L100.16 171.305Z" fill="#B55B52"/>
<path d="M103.414 170.927H99.8498C99.7848 170.927 99.7218 170.949 99.6709 170.989C99.62 171.03 99.5842 171.086 99.5692 171.149L98.9233 174.058C98.9078 174.129 98.9084 174.201 98.9251 174.271C98.9417 174.341 98.9739 174.406 99.0193 174.462C99.0648 174.518 99.1222 174.562 99.1873 174.593C99.2524 174.623 99.3236 174.638 99.3955 174.637C100.683 174.637 102.545 174.544 104.166 174.544C106.064 174.544 107.699 174.646 109.922 174.646C111.258 174.646 111.637 173.288 111.076 173.163C108.514 172.606 106.425 172.544 104.211 171.181C103.974 171.023 103.698 170.935 103.414 170.927V170.927Z" fill="#263238"/>
<path opacity="0.2" d="M103.758 163.728L103.589 167.634H100.314L100.484 163.728H103.758Z" fill="black"/>
<path d="M108.711 88.0615C108.711 88.0615 109.156 112.531 108.804 122.509C108.435 132.889 104.795 166.877 104.795 166.877H99.267C99.267 166.877 99.0621 133.494 98.8216 123.302C98.5498 112.166 97.209 88.0615 97.209 88.0615H108.711Z" fill="#263238"/>
<path d="M105.88 164.668C105.902 164.668 105.564 166.971 105.564 166.971H98.8238L98.6367 164.917L105.88 164.668Z" fill="#FFC100"/>
<path d="M108.516 59.7745C108.516 59.7745 112.445 65.7616 109.153 90.1151H90.6666C90.5464 87.4423 92.7781 72.2653 90.1855 59.6052C92.1202 59.2327 94.0769 58.9857 96.0434 58.8658C98.5211 58.7231 101.005 58.7231 103.483 58.8658C105.182 59.037 106.865 59.3408 108.516 59.7745V59.7745Z" fill="#FFC100"/>
<path opacity="0.2" d="M110.469 72.2341L106.594 65.8105C106.594 65.8105 108.05 74.9158 110.282 79.023C110.434 76.4527 110.487 74.1986 110.469 72.2341Z" fill="black"/>
<path d="M112.122 64.4609C112.759 66.4967 113.458 68.5815 114.176 70.6217C114.893 72.6619 115.641 74.6888 116.461 76.6355L116.773 77.3571C116.799 77.4107 116.823 77.4657 116.844 77.5219C116.862 77.5633 116.883 77.6035 116.906 77.6422C117.104 77.9372 117.334 78.2091 117.592 78.453C118.295 79.1075 119.051 79.7035 119.851 80.2348C120.688 80.8139 121.575 81.3752 122.488 81.9053C123.401 82.4354 124.345 82.9789 125.245 83.4466L123.512 87.4914C121.32 86.6867 119.192 85.7158 117.147 84.587C116.052 83.9762 115.01 83.2775 114.029 82.4978C113.444 82.0266 112.913 81.4917 112.447 80.903C112.313 80.7115 112.184 80.5422 112.055 80.3284C111.926 80.1145 111.783 79.8473 111.743 79.7582L111.351 78.9786C110.331 76.9027 109.418 74.8269 108.576 72.7421C107.734 70.6573 106.95 68.5592 106.197 66.3898L112.122 64.4609Z" fill="#FFC100"/>
<path d="M104.151 61.2533C103.006 64.1667 109.968 75.8957 109.968 75.8957L114.499 71.5614C114.499 71.5614 113.51 67.8774 112.191 63.4406C110.89 59.0795 105.242 58.4692 104.151 61.2533Z" fill="#FFC100"/>
</svg>
