<svg width="242" height="181" viewBox="0 0 242 181" fill="none" xmlns="http://www.w3.org/2000/svg">
<path d="M0 158.461H242V158.582H0V158.461Z" fill="#EBEBEB"/>
<path d="M24.2493 166.249H31.4609V166.37H24.2493V166.249Z" fill="#EBEBEB"/>
<path d="M81.6886 167.565H85.8945V167.686H81.6886V167.565Z" fill="#EBEBEB"/>
<path d="M33.5028 161.758H50.0508V161.879H33.5028V161.758Z" fill="#EBEBEB"/>
<path d="M188.938 164.255H209.842V164.376H188.938V164.255Z" fill="#EBEBEB"/>
<path d="M177.09 164.255H184.631V164.376H177.09V164.255Z" fill="#EBEBEB"/>
<path d="M118.696 162.629H164.037V162.75H118.696V162.629Z" fill="#EBEBEB"/>
<path d="M127.293 136.875H220.749C221.481 136.874 222.183 136.582 222.7 136.064C223.217 135.546 223.508 134.844 223.508 134.112V2.73944C223.501 2.01152 223.208 1.3155 222.692 0.802578C222.175 0.289654 221.477 0.00124697 220.749 0H127.293C126.56 0 125.858 0.291168 125.339 0.809452C124.821 1.32773 124.53 2.03068 124.53 2.76364V134.112C124.53 134.845 124.821 135.547 125.339 136.066C125.858 136.584 126.56 136.875 127.293 136.875V136.875ZM220.749 0.0968004C221.449 0.0980825 222.12 0.377068 222.615 0.87252C223.109 1.36797 223.387 2.03941 223.387 2.73944V134.112C223.387 134.812 223.109 135.483 222.615 135.978C222.12 136.474 221.449 136.753 220.749 136.754H127.293C126.593 136.753 125.922 136.474 125.426 135.979C124.931 135.483 124.652 134.812 124.651 134.112V2.73944C124.652 2.03896 124.931 1.36754 125.426 0.872224C125.922 0.37691 126.593 0.0980798 127.293 0.0968004H220.749Z" fill="#EBEBEB"/>
<path d="M22.5982 136.875H116.059C116.791 136.874 117.493 136.582 118.011 136.064C118.529 135.546 118.821 134.844 118.822 134.112V2.73944C118.815 2.01107 118.52 1.31507 118.003 0.802275C117.486 0.289485 116.787 0.00123337 116.059 0H22.5982C21.8711 0.00251898 21.1743 0.291489 20.6588 0.804276C20.1433 1.31706 19.8506 2.01235 19.8443 2.73944V134.112C19.8443 134.843 20.1341 135.544 20.6503 136.062C21.1665 136.58 21.8669 136.873 22.5982 136.875V136.875ZM116.059 0.0968004C116.759 0.0980798 117.431 0.37691 117.926 0.872224C118.421 1.36754 118.7 2.03896 118.701 2.73944V134.112C118.7 134.812 118.421 135.483 117.926 135.979C117.431 136.474 116.759 136.753 116.059 136.754H22.5982C21.8977 136.753 21.2263 136.474 20.731 135.979C20.2357 135.483 19.9569 134.812 19.9556 134.112V2.73944C19.9569 2.03896 20.2357 1.36754 20.731 0.872224C21.2263 0.37691 21.8977 0.0980798 22.5982 0.0968004H116.059Z" fill="#EBEBEB"/>
<path d="M134.796 154.929H130.973V128.744H134.796V154.929Z" fill="#F0F0F0"/>
<path d="M212.131 158.461H133.49V154.928H212.131V158.461Z" fill="#F0F0F0"/>
<path d="M134.795 128.744H214.66V154.929H134.795V128.744Z" fill="#F5F5F5"/>
<path d="M139.963 133.303H209.494V148.258H139.963V133.303Z" fill="#F0F0F0"/>
<path d="M191.639 135.302H157.807C157.174 135.302 156.66 134.788 156.66 134.155V133.942C156.66 133.308 157.174 132.795 157.807 132.795H191.639C192.272 132.795 192.786 133.308 192.786 133.942V134.155C192.786 134.788 192.272 135.302 191.639 135.302Z" fill="#F5F5F5"/>
<path d="M216.412 128.744H134.795V126.406L216.412 126.406V128.744Z" fill="#F0F0F0"/>
<path d="M129.137 126.406H134.795V128.744H129.137V126.406Z" fill="#E6E6E6"/>
<path d="M137.713 91.8682L35.3809 91.8682L35.3809 13.3876L137.713 13.3876V91.8682Z" fill="#E6E6E6"/>
<path d="M147.289 10.333H29.59C29.3551 10.333 29.1298 10.4263 28.9637 10.5924C28.7976 10.7585 28.7043 10.9838 28.7043 11.2187V11.2187C28.7056 11.4528 28.7995 11.6769 28.9654 11.8419C29.1314 12.007 29.3559 12.0996 29.59 12.0996H147.289C147.406 12.1003 147.522 12.0778 147.63 12.0336C147.738 11.9894 147.836 11.9242 147.919 11.8419C148.001 11.7596 148.067 11.6618 148.112 11.554C148.157 11.4462 148.18 11.3306 148.18 11.2139V11.2139C148.179 11.0976 148.156 10.9825 148.11 10.8753C148.065 10.7681 148 10.6708 147.917 10.589C147.834 10.5072 147.736 10.4425 147.628 10.3986C147.521 10.3547 147.405 10.3324 147.289 10.333Z" fill="#E6E6E6"/>
<path d="M141.508 91.8682L37.1523 91.8682L37.1523 13.3876L141.508 13.3876V91.8682Z" fill="#F0F0F0"/>
<path d="M137.711 91.8682H35.3785V94.3801H140.324L137.711 91.8682Z" fill="#E6E6E6"/>
<path d="M147.827 91.8682H43.4715L46.0851 94.3801H150.436L147.827 91.8682Z" fill="#F0F0F0"/>
<path d="M42.4648 86.5589L42.4648 18.6973L136.196 18.6973V86.5589H42.4648Z" fill="#FAFAFA"/>
<path d="M73.7398 86.5541L104.905 18.6973H119.623L88.4534 86.5541H73.7398Z" fill="white"/>
<path d="M91.6165 86.5541L122.786 18.6973H128.521L97.3519 86.5541H91.6165Z" fill="white"/>
<path d="M135.521 86.5589V18.6973H136.194V86.5589H135.521Z" fill="#E6E6E6"/>
<g opacity="0.4">
<path opacity="0.4" d="M42.5207 73.5039H33.3828L33.3828 8.73988H42.5207L42.5207 73.5039Z" fill="#F0F0F0"/>
<path opacity="0.4" d="M46.0845 73.5039H38.9648L38.9648 8.73988H46.0845L46.0845 73.5039Z" fill="#E6E6E6"/>
<path opacity="0.4" d="M51.6614 73.5039H42.5234L42.5234 8.73988H51.6614L51.6614 73.5039Z" fill="#F0F0F0"/>
<path opacity="0.4" d="M55.2251 73.5039H48.1055L48.1055 8.73988H55.2251L55.2251 73.5039Z" fill="#E6E6E6"/>
<path opacity="0.4" d="M60.8039 73.5039H51.666L51.666 8.73988H60.8039L60.8039 73.5039Z" fill="#F0F0F0"/>
</g>
<g opacity="0.4">
<path opacity="0.4" d="M132.789 73.5039H127.523L127.523 8.73988H132.789V73.5039Z" fill="#F0F0F0"/>
<path opacity="0.4" d="M134.845 73.5039H130.74V8.73988H134.845V73.5039Z" fill="#E6E6E6"/>
<path opacity="0.4" d="M138.061 73.5039H132.795V8.73988H138.061V73.5039Z" fill="#F0F0F0"/>
<path opacity="0.4" d="M140.114 73.5039H136.01V8.73988H140.114V73.5039Z" fill="#E6E6E6"/>
<path opacity="0.4" d="M143.328 73.5039H138.062V8.73988H143.328V73.5039Z" fill="#F0F0F0"/>
</g>
<path d="M165.916 8.78418H207.961V116.213H165.916V8.78418Z" fill="#F5F5F5"/>
<path d="M165.91 116.208H164.758V8.77937H165.91V116.208Z" fill="#E0E0E0"/>
<path d="M169.812 112.317V12.6758L204.07 12.6758V112.317H169.812Z" fill="white"/>
<path d="M192.006 112.317L180.637 12.6758H174.078L185.443 112.317H192.006Z" fill="#FAFAFA"/>
<path d="M197.691 112.317L186.327 12.6758H183.046L194.41 112.317H197.691Z" fill="#FAFAFA"/>
<path d="M120.999 180.319C69.1711 180.319 27.1563 177.866 27.1563 174.84C27.1563 171.814 69.1711 169.361 120.999 169.361C172.827 169.361 214.842 171.814 214.842 174.84C214.842 177.866 172.827 180.319 120.999 180.319Z" fill="#F5F5F5"/>
<path d="M160.049 40.2015C158.243 35.7632 158.892 30.357 164.013 29.147C165.141 28.8563 166.322 28.834 167.46 29.0819C168.599 29.3299 169.664 29.8411 170.569 30.5747C171.474 31.3083 172.195 32.2438 172.674 33.3062C173.152 34.3686 173.375 35.5284 173.325 36.6925C173.122 41.5325 169.937 45.5642 175.517 49.0732C181.098 52.5822 180.503 63.1576 169.709 61.1152C158.916 59.0727 164.748 53.5212 164.748 53.5212C164.748 53.5212 167.396 55.6798 168.248 53.4825C169.327 50.6366 162.14 45.3948 160.049 40.2015Z" fill="#263238"/>
<path d="M179.038 54.7605L179.275 54.7073C178.554 51.479 177.422 50.6465 176.226 49.7656C175.031 48.8848 173.898 48.0474 172.983 44.8724C172.553 43.3768 172.824 41.7215 173.09 40.1243C173.429 38.0867 173.777 35.9765 172.727 34.0889L172.519 34.2099C173.525 36.02 173.182 38.0819 172.853 40.0856C172.582 41.7119 172.301 43.3914 172.751 44.9256C173.685 48.1781 174.905 49.0735 176.081 49.9447C177.257 50.8159 178.336 51.6242 179.038 54.7605Z" fill="#263238"/>
<path d="M146.302 64.5811C146.268 64.7456 146.21 64.9925 146.156 65.2151L145.987 65.8975C145.871 66.3573 145.74 66.8171 145.605 67.2769C145.329 68.1917 145.033 69.1161 144.714 70.0261C144.075 71.8571 143.345 73.655 142.526 75.413L141.916 76.6859C141.813 76.9135 141.667 77.1189 141.486 77.2909C140.942 77.7284 140.293 78.0154 139.603 78.1234C137.793 78.416 135.948 78.416 134.139 78.1234L133.485 80.1804C133.986 80.4011 134.498 80.595 135.019 80.7612C135.538 80.9335 136.064 81.0789 136.597 81.1968C137.708 81.4525 138.847 81.5583 139.985 81.5114C141.325 81.4737 142.627 81.063 143.746 80.3256C144.376 79.8889 144.906 79.325 145.304 78.6703L145.382 78.5493L145.43 78.467L145.527 78.2928L145.726 77.954L146.118 77.2667C147.13 75.4207 148.02 73.5095 148.78 71.5458C149.147 70.5778 149.51 69.5663 149.806 68.545C149.951 68.061 150.096 67.5238 150.227 67.0011C150.357 66.4783 150.474 65.9847 150.58 65.3651L146.302 64.5811Z" fill="#FFC3BD"/>
<path d="M150.039 57.8142C145.156 59.9922 145.199 67.3103 145.199 67.3103L150.344 70.4031C150.344 70.4031 154.216 64.6725 153.926 62.0686C153.64 59.3534 152.808 56.5897 150.039 57.8142Z" fill="#FFC100"/>
<path opacity="0.2" d="M149.269 64.0586C150.605 62.7082 151.781 64.2667 152.855 65.9946C152.119 67.5224 151.279 68.9987 150.344 70.4135L148.233 69.1454C147.817 67.5337 147.938 65.4138 149.269 64.0586Z" fill="black"/>
<path d="M134.647 78.3071L131.21 76.5938L131.172 81.0901C131.172 81.0901 133.737 81.5354 135.445 79.7349L134.647 78.3071Z" fill="#FFC3BD"/>
<path d="M127.516 77.3923L128.107 80.732L131.17 81.0901L131.209 76.5938L127.516 77.3923Z" fill="#FFC3BD"/>
<path d="M166.102 171.269L161.852 171.676L159.872 161.787L164.122 161.381L166.102 171.269Z" fill="#FFC3BD"/>
<path d="M193.963 159.677L190.507 162.193L184.743 154.014L188.203 151.497L193.963 159.677Z" fill="#FFC3BD"/>
<path d="M189.242 160.621L192.088 156.724C192.135 156.655 192.206 156.606 192.288 156.587C192.369 156.567 192.455 156.578 192.528 156.618L195.94 158.428C196.025 158.477 196.098 158.543 196.155 158.622C196.212 158.701 196.251 158.792 196.271 158.887C196.291 158.983 196.29 159.081 196.269 159.176C196.248 159.272 196.207 159.361 196.148 159.44C195.132 160.78 194.575 161.376 193.322 163.094C192.548 164.149 190.999 166.593 189.934 168.05C188.869 169.507 187.374 168.534 187.683 167.832C189.087 164.681 189.135 162.837 189.029 161.361C189.009 161.097 189.084 160.834 189.242 160.621Z" fill="#263238"/>
<path d="M161.29 170.392H166.391C166.483 170.392 166.572 170.423 166.645 170.479C166.717 170.535 166.77 170.613 166.793 170.702L167.901 174.724C167.929 174.819 167.933 174.919 167.915 175.017C167.896 175.114 167.855 175.205 167.795 175.284C167.735 175.363 167.657 175.426 167.568 175.469C167.479 175.512 167.381 175.534 167.282 175.532C165.481 175.532 164.63 175.532 162.389 175.532H155.53C153.667 175.532 153.28 173.65 154.049 173.475C157.505 172.711 159.499 171.655 160.569 170.649C160.768 170.475 161.026 170.383 161.29 170.392Z" fill="#263238"/>
<path opacity="0.2" d="M159.875 161.792L160.897 166.889H165.229L164.125 161.386L159.875 161.792Z" fill="black"/>
<path opacity="0.2" d="M188.206 151.497L184.745 154.019L187.717 158.234L191.178 155.713L188.206 151.497Z" fill="black"/>
<path d="M148.023 61.6716C148.323 64.9386 149.407 71.3516 152.578 83.8823L169.973 82.3771C169.135 75.8479 168.743 71.6178 170.379 59.2564C170.432 58.8478 170.401 58.4326 170.287 58.0367C170.173 57.6407 169.979 57.2725 169.716 56.9547C169.454 56.637 169.129 56.3766 168.762 56.1897C168.395 56.0029 167.993 55.8935 167.582 55.8684C166.328 55.8006 164.837 55.7571 163.342 55.8152C160.696 55.8548 158.056 56.0828 155.443 56.4976C153.909 56.7735 152.273 57.1704 150.942 57.5188C150.043 57.7543 149.256 58.3006 148.722 59.0609C148.188 59.8211 147.94 60.7461 148.023 61.6716Z" fill="#FFC100"/>
<path opacity="0.2" d="M169.938 62.8767C169.715 64.8127 169.55 66.5405 169.453 68.0893C167.851 67.949 166.67 66.1921 166.549 62.5185C167.15 60.7422 168.577 61.386 169.938 62.8767Z" fill="black"/>
<path d="M152.58 83.882C152.58 83.882 146.694 109.921 150.644 128.279C153.272 140.573 159.123 165.407 159.123 165.407L166.543 165.218C166.543 165.218 163 139.155 161.514 128.918C158.973 111.388 165.338 82.7979 165.338 82.7979L152.58 83.882Z" fill="#263238"/>
<path opacity="0.2" d="M159.364 89.1436L163.076 94.9951C161.958 101.933 161.249 108.931 160.951 115.952C155.734 106.611 158.207 94.0852 159.364 89.1436Z" fill="black"/>
<path d="M158.058 165.794L167.225 165.562L166.692 162.745L157.341 163.186L158.058 165.794Z" fill="#FFC100"/>
<path d="M156.382 83.6063C156.382 83.6063 159.833 111.219 167.32 126.295C173.366 138.473 186.013 157.828 186.013 157.828L190.635 154.125C190.635 154.125 182.726 132.718 178.235 124.63C167.214 104.786 176.221 89.6612 169.973 82.377L156.382 83.6063Z" fill="#263238"/>
<path d="M83.9965 59.034L166.265 93.5997C168.848 94.6848 170.062 97.6581 168.977 100.241L149.409 146.812C148.324 149.395 145.351 150.609 142.768 149.524L60.4997 114.958C57.917 113.873 56.703 110.9 57.7881 108.317L77.3554 61.7456C78.4405 59.1629 81.4138 57.9489 83.9965 59.034Z" fill="#FFC100"/>
<path opacity="0.1" d="M83.9965 59.034L166.265 93.5997C168.848 94.6848 170.062 97.6581 168.977 100.241L149.409 146.812C148.324 149.395 145.351 150.609 142.768 149.524L60.4997 114.958C57.917 113.873 56.703 110.9 57.7881 108.317L77.3554 61.7456C78.4405 59.1629 81.4138 57.9489 83.9965 59.034Z" fill="black"/>
<path opacity="0.2" d="M143.572 91.5263L159.681 98.2944C160.923 98.8162 161.507 100.246 160.985 101.488L157.59 109.569C157.068 110.811 155.638 111.395 154.396 110.873L138.287 104.105C137.045 103.583 136.462 102.153 136.983 100.911L140.379 92.8304C140.9 91.5883 142.33 91.0045 143.572 91.5263Z" fill="white"/>
<path opacity="0.4" d="M132.269 123.47L148.051 130.101C148.517 130.296 148.736 130.833 148.54 131.298L147.342 134.15C147.147 134.616 146.61 134.834 146.145 134.639L130.362 128.008C129.896 127.812 129.677 127.276 129.873 126.81L131.071 123.959C131.267 123.493 131.803 123.274 132.269 123.47Z" fill="white"/>
<path opacity="0.4" d="M111.737 114.845L127.52 121.476C127.986 121.671 128.205 122.208 128.009 122.673L126.811 125.525C126.615 125.991 126.079 126.209 125.613 126.014L109.831 119.383C109.365 119.187 109.146 118.651 109.342 118.185L110.54 115.334C110.735 114.868 111.272 114.649 111.737 114.845Z" fill="white"/>
<path opacity="0.4" d="M91.2061 106.22L106.989 112.851C107.454 113.046 107.673 113.583 107.478 114.048L106.28 116.9C106.084 117.366 105.548 117.584 105.082 117.389L89.2994 110.758C88.8337 110.562 88.6147 110.026 88.8104 109.56L90.0084 106.709C90.2041 106.243 90.7403 106.024 91.2061 106.22Z" fill="white"/>
<path opacity="0.4" d="M70.6729 97.5946L86.4555 104.226C86.9212 104.421 87.1402 104.958 86.9445 105.423L85.7465 108.275C85.5508 108.741 85.0146 108.959 84.5488 108.764L68.7662 102.133C68.3004 101.937 68.0815 101.401 68.2772 100.935L69.4752 98.0836C69.6709 97.6178 70.2071 97.3989 70.6729 97.5946Z" fill="white"/>
<g opacity="0.6">
<path opacity="0.6" d="M84.9534 81.6095C81.285 80.7444 79.0125 77.0692 79.8777 73.4008C80.7428 69.7325 84.418 67.46 88.0863 68.3251C91.7547 69.1903 94.0272 72.8654 93.162 76.5338C92.2969 80.2022 88.6218 82.4746 84.9534 81.6095Z" fill="#263238"/>
<path opacity="0.6" d="M89.3296 82.5192C87.0687 79.5036 87.6805 75.2261 90.6961 72.9652C93.7117 70.7043 97.9892 71.3162 100.25 74.3318C102.511 77.3474 101.899 81.6248 98.8835 83.8857C95.8679 86.1466 91.5905 85.5348 89.3296 82.5192Z" fill="white"/>
</g>
<path d="M185.532 158.341L191.461 153.854L190.004 151.25L183.702 156.138L185.532 158.341Z" fill="#FFC100"/>
<path d="M170.146 81.3371L171.066 82.8279C171.139 82.9392 171.003 83.0795 170.805 83.094L152.558 84.6719C152.403 84.6719 152.268 84.6187 152.248 84.5219L151.958 82.9779C151.934 82.8714 152.064 82.7698 152.234 82.7553L169.851 81.2307C169.905 81.222 169.961 81.2272 170.013 81.2458C170.064 81.2644 170.11 81.2958 170.146 81.3371V81.3371Z" fill="#FFC100"/>
<path opacity="0.5" d="M170.146 81.3371L171.066 82.8279C171.139 82.9392 171.003 83.0795 170.805 83.094L152.558 84.6719C152.403 84.6719 152.268 84.6187 152.248 84.5219L151.958 82.9779C151.934 82.8714 152.064 82.7698 152.234 82.7553L169.851 81.2307C169.905 81.222 169.961 81.2272 170.013 81.2458C170.064 81.2644 170.11 81.2958 170.146 81.3371V81.3371Z" fill="black"/>
<path d="M167.945 83.5098L168.429 83.4711C168.521 83.4711 168.589 83.4082 168.579 83.3501L168.182 81.3464C168.182 81.2834 168.085 81.2447 167.989 81.2544L167.505 81.2931C167.408 81.2931 167.34 81.356 167.355 81.4141L167.752 83.4179C167.771 83.476 167.858 83.5195 167.945 83.5098Z" fill="#FFC100"/>
<path d="M153.912 84.7244L154.396 84.6857C154.488 84.6857 154.556 84.6228 154.546 84.5647L154.149 82.561C154.132 82.5263 154.103 82.4984 154.068 82.4817C154.033 82.465 153.993 82.4606 153.955 82.469L153.471 82.5077C153.375 82.5077 153.307 82.5706 153.321 82.6287L153.718 84.6325C153.723 84.7002 153.81 84.7341 153.912 84.7244Z" fill="#FFC100"/>
<path d="M160.928 84.1191L161.412 84.0755C161.509 84.0755 161.577 84.0126 161.562 83.9545L161.166 81.9507C161.166 81.8927 161.069 81.8491 160.977 81.8588L160.493 81.9023C160.401 81.9023 160.333 81.9653 160.343 82.0233L160.74 84.0271C160.749 84.0852 160.832 84.1239 160.928 84.1191Z" fill="#FFC100"/>
<path d="M188.158 162.775C188.213 162.784 188.268 162.784 188.323 162.775C188.85 162.668 189.291 161.773 189.523 161.25C189.532 161.236 189.537 161.22 189.537 161.204C189.537 161.188 189.532 161.172 189.523 161.158C189.51 161.149 189.495 161.144 189.48 161.144C189.464 161.144 189.449 161.149 189.436 161.158C189.271 161.216 187.829 161.773 187.718 162.3C187.704 162.357 187.707 162.417 187.726 162.473C187.745 162.528 187.779 162.578 187.824 162.615C187.916 162.702 188.033 162.758 188.158 162.775V162.775ZM189.286 161.361C188.957 162.083 188.589 162.542 188.289 162.6C188.221 162.611 188.152 162.604 188.088 162.58C188.023 162.556 187.966 162.517 187.921 162.465C187.897 162.447 187.878 162.422 187.868 162.394C187.858 162.365 187.856 162.335 187.863 162.305C187.931 161.981 188.787 161.565 189.286 161.361Z" fill="#FFC100"/>
<path d="M188.113 161.43C188.573 161.487 189.04 161.437 189.478 161.284C189.492 161.279 189.503 161.269 189.512 161.257C189.52 161.245 189.525 161.231 189.527 161.217C189.529 161.202 189.526 161.187 189.52 161.173C189.514 161.16 189.505 161.148 189.493 161.139C189.449 161.11 188.452 160.384 187.852 160.52C187.778 160.534 187.708 160.564 187.647 160.609C187.586 160.653 187.535 160.71 187.499 160.776C187.451 160.837 187.425 160.912 187.425 160.989C187.425 161.067 187.451 161.142 187.499 161.202C187.671 161.347 187.888 161.428 188.113 161.43ZM189.241 161.173C188.757 161.314 187.852 161.323 187.629 161.076C187.591 161.038 187.557 160.975 187.629 160.849C187.653 160.804 187.687 160.765 187.728 160.735C187.769 160.705 187.816 160.684 187.867 160.675C188.273 160.592 188.97 160.994 189.241 161.173Z" fill="#FFC100"/>
<path d="M159.024 171.216C159.494 171.204 159.961 171.146 160.418 171.042C160.434 171.035 160.447 171.024 160.456 171.01C160.466 170.995 160.471 170.979 160.471 170.962C160.471 170.945 160.466 170.928 160.456 170.914C160.447 170.9 160.434 170.889 160.418 170.882C160.205 170.78 158.357 169.914 157.892 170.243C157.849 170.271 157.814 170.31 157.793 170.356C157.772 170.402 157.764 170.454 157.771 170.505C157.772 170.599 157.795 170.692 157.839 170.776C157.883 170.861 157.946 170.933 158.023 170.989C158.324 171.169 158.675 171.249 159.024 171.216V171.216ZM160.128 170.926C159.576 171.027 158.56 171.163 158.144 170.848C158.09 170.806 158.045 170.752 158.014 170.691C157.982 170.63 157.964 170.563 157.96 170.495C157.96 170.427 157.96 170.398 158.003 170.384C158.265 170.204 159.358 170.587 160.128 170.926Z" fill="#FFC100"/>
<path d="M160.401 171.041C160.419 171.048 160.438 171.048 160.455 171.041C160.467 171.032 160.477 171.019 160.482 171.005C160.487 170.99 160.488 170.974 160.484 170.959C160.484 170.877 160.048 169.052 159.032 169.168C158.78 169.202 158.712 169.323 158.698 169.425C158.635 169.909 159.801 170.829 160.363 171.056L160.401 171.041ZM159.133 169.314C159.777 169.314 160.15 170.378 160.276 170.804C159.671 170.485 158.824 169.725 158.877 169.43C158.877 169.406 158.877 169.338 159.066 169.318L159.133 169.314Z" fill="#FFC100"/>
<path d="M168.048 62.9635L168.304 63.3265L168.585 63.7379C168.774 64.0186 168.962 64.3042 169.141 64.5994C169.509 65.1802 169.843 65.7852 170.182 66.3902C170.851 67.6072 171.44 68.8667 171.944 70.1606C172.452 71.4468 172.877 72.7644 173.217 74.1052L173.444 75.0732C173.444 75.0441 173.473 75.1458 173.42 75.3297C173.253 75.847 173.01 76.3364 172.699 76.7817C171.917 77.9057 171.039 78.96 170.076 79.9325C169.108 80.9586 168.033 81.9508 166.963 82.9382C165.894 83.9255 164.771 84.8742 163.648 85.8083C162.525 86.7424 161.378 87.6862 160.26 88.5961L161.47 90.3821C164.063 88.8444 166.566 87.1606 168.967 85.3388C170.177 84.4289 171.363 83.4706 172.51 82.4348C173.713 81.3806 174.81 80.2119 175.787 78.9452C176.372 78.2013 176.83 77.3656 177.142 76.4719C177.354 75.85 177.425 75.1887 177.35 74.5359V74.4004V74.3278L177.326 74.1826L177.277 73.8874L177.176 73.3017C176.891 71.7428 176.49 70.2075 175.976 68.7086C175.444 67.2171 174.815 65.762 174.093 64.3526C173.73 63.6459 173.333 62.9635 172.907 62.2907C172.699 61.9519 172.481 61.618 172.254 61.284L171.895 60.8C171.77 60.6306 171.663 60.4806 171.494 60.2725L168.048 62.9635Z" fill="#FFC3BD"/>
<path d="M168.476 56.1442C171.796 57.0154 175 65.0644 175 65.0644L170.702 68.9944C170.702 68.9944 163.95 62.838 164.178 60.0598C164.367 57.6979 165.809 55.4376 168.476 56.1442Z" fill="#FFC100"/>
<path opacity="0.2" d="M163.345 55.6611C163.953 55.7853 164.573 55.8421 165.194 55.8305C165.324 58.2215 163.79 60.5302 160.02 63.6278C159.114 60.8061 157.116 60.1962 157.116 60.1962L163.345 55.6611Z" fill="black"/>
<path opacity="0.2" d="M155.445 56.4209C155.445 56.4209 155.004 56.4838 153.954 56.7258C153.252 57.8051 152.342 61.1302 154.409 63.5018C155.212 60.5978 157.129 60.23 157.129 60.23L155.445 56.4209Z" fill="black"/>
<path d="M163.343 55.6611C163.343 55.6611 164.311 55.6611 165.492 55.6611C166.194 56.7405 163.779 59.7316 160.013 62.8292C159.108 60.0075 157.109 60.1769 157.109 60.1769L163.343 55.6611Z" fill="white"/>
<path d="M155.445 56.4209C155.445 56.4209 155.004 56.4838 153.954 56.7258C153.252 57.8051 151.737 60.7285 153.804 63.0807C154.607 60.1767 157.129 60.2155 157.129 60.2155L155.445 56.4209Z" fill="white"/>
<path d="M161.788 46.9727C161.507 49.5572 161.415 54.2327 163.342 55.8008C163.342 55.8008 162.34 58.7048 157.127 60.2149C153.991 58.4047 155.443 56.4833 155.443 56.4833C158.216 55.5637 157.96 53.4679 157.297 51.5319L161.788 46.9727Z" fill="#FFC3BD"/>
<path opacity="0.2" d="M159.958 48.8359L157.296 51.5318C157.459 51.9799 157.582 52.4415 157.664 52.9112C158.734 52.6644 160.282 51.5512 160.297 50.4089C160.277 49.8688 160.162 49.3363 159.958 48.8359V48.8359Z" fill="black"/>
<path d="M155.904 36.6441C155.057 35.71 153.378 36.9006 152.758 39.1899C151.829 42.5779 154.307 42.8199 155.604 41.1259C156.902 39.4319 156.611 37.4233 155.904 36.6441Z" fill="#263238"/>
<path d="M153.279 42.592C152.429 42.8861 151.626 43.3 150.893 43.8214C151.314 42.7953 151.692 42.1709 153.279 42.592Z" fill="#263238"/>
<path d="M152.793 42.752C152.105 42.615 151.401 42.5759 150.702 42.6358C151.389 42.1082 151.888 41.8469 152.793 42.752Z" fill="#263238"/>
<path d="M164.074 42.9358C162.994 47.0643 162.622 48.8357 160.095 50.5636C156.286 53.1675 151.451 50.9411 151.272 46.5706C151.112 42.6405 152.903 36.5518 157.322 35.6903C158.296 35.4926 159.304 35.5481 160.25 35.8514C161.196 36.1547 162.049 36.6957 162.726 37.4227C163.404 38.1496 163.883 39.0382 164.119 40.0035C164.355 40.9687 164.339 41.9783 164.074 42.9358V42.9358Z" fill="#FFC3BD"/>
<path d="M162.078 37.4911L163.274 38.8802C163.632 39.2906 164.138 39.5431 164.682 39.5829C165.225 39.6228 165.763 39.4468 166.178 39.0931C166.589 38.7351 166.842 38.2295 166.883 37.6858C166.924 37.1422 166.748 36.6044 166.395 36.1891L165.2 34.8049C164.841 34.3949 164.336 34.1423 163.792 34.1015C163.249 34.0608 162.712 34.2352 162.296 34.5871V34.5871C161.886 34.9458 161.633 35.4513 161.593 35.9945C161.552 36.5377 161.726 37.0752 162.078 37.4911V37.4911Z" fill="white"/>
<path d="M160.975 39.0398L162.427 39.7658C163.023 40.0577 163.71 40.102 164.338 39.8888C164.967 39.6757 165.485 39.2226 165.781 38.6284C166.073 38.0318 166.117 37.3438 165.904 36.7146C165.691 36.0854 165.238 35.5659 164.643 35.2695L163.191 34.5435C162.594 34.2517 161.906 34.2081 161.276 34.4221C160.647 34.6361 160.128 35.0904 159.832 35.6857V35.6857C159.541 36.2823 159.497 36.97 159.711 37.5985C159.925 38.227 160.38 38.7452 160.975 39.0398V39.0398Z" fill="#FFC100"/>
<path d="M162.833 46.0236C162.833 46.0236 159.852 45.3412 161.12 40.9804C161.167 40.8125 161.175 40.6361 161.144 40.4646C161.113 40.2931 161.042 40.131 160.939 39.9909C160.835 39.8507 160.7 39.7362 160.546 39.656C160.391 39.5758 160.22 39.5322 160.045 39.5284C156.686 39.4364 153.545 38.7346 153.99 36.7889C154.547 34.3302 162.915 32.4329 164.435 37.3552C167.402 38.0473 167.513 43.894 162.833 46.0236Z" fill="#263238"/>
<path d="M162.82 45.1623C161.97 45.4564 161.167 45.8704 160.434 46.3917C160.855 45.3753 161.233 44.7509 162.82 45.1623Z" fill="#263238"/>
<path d="M162.33 45.3316C161.642 45.1946 160.938 45.1555 160.239 45.2154C160.922 44.6975 161.42 44.4313 162.33 45.3316Z" fill="#263238"/>
<path d="M164.753 46.1789C164.366 46.908 163.706 47.4544 162.918 47.6987C161.868 48.0133 161.326 47.084 161.597 46.0821C161.844 45.1819 162.686 43.938 163.746 44.059C163.976 44.0909 164.195 44.1796 164.383 44.3172C164.571 44.4548 164.721 44.637 164.821 44.8472C164.921 45.0575 164.967 45.2893 164.955 45.5218C164.943 45.7542 164.874 45.98 164.753 46.1789Z" fill="#FFC3BD"/>
<path d="M157.075 42.7958C157.008 43.1346 156.77 43.3766 156.553 43.333C156.335 43.2895 156.204 42.9749 156.267 42.6361C156.33 42.2973 156.572 42.0553 156.795 42.0988C157.017 42.1424 157.143 42.4521 157.075 42.7958Z" fill="#263238"/>
<path d="M153.226 42.0361C153.158 42.3797 152.926 42.6169 152.703 42.5733C152.48 42.5297 152.355 42.22 152.422 41.8812C152.49 41.5424 152.722 41.3004 152.945 41.3439C153.168 41.3875 153.294 41.6973 153.226 42.0361Z" fill="#263238"/>
<path d="M153.037 41.3822L152.268 40.9854C152.268 40.9854 152.563 41.7065 153.037 41.3822Z" fill="#263238"/>
<path d="M154.549 42.8877C154.093 43.6052 153.541 44.2567 152.908 44.8237C153.056 44.9855 153.237 45.1127 153.44 45.1964C153.642 45.28 153.861 45.318 154.079 45.3077L154.549 42.8877Z" fill="#ED847E"/>
<path d="M155.653 46.9104C156.369 46.9195 157.062 46.6546 157.589 46.1698C157.605 46.1536 157.613 46.1319 157.613 46.1093C157.613 46.0868 157.605 46.0651 157.589 46.0488C157.573 46.0332 157.551 46.0244 157.528 46.0244C157.506 46.0244 157.484 46.0332 157.468 46.0488C157.142 46.336 156.753 46.5423 156.333 46.6508C155.912 46.7593 155.472 46.767 155.048 46.6732C155.026 46.6694 155.004 46.6743 154.985 46.687C154.967 46.6997 154.955 46.7191 154.951 46.741C154.947 46.7628 154.952 46.7852 154.965 46.8034C154.978 46.8215 154.997 46.8339 155.019 46.8378C155.227 46.8846 155.44 46.9089 155.653 46.9104V46.9104Z" fill="#263238"/>
<path d="M159.381 41.4745C159.412 41.4733 159.442 41.465 159.469 41.4503C159.507 41.4272 159.535 41.3897 159.546 41.3462C159.557 41.3026 159.55 41.2565 159.527 41.218C159.367 40.946 159.144 40.7163 158.877 40.5479C158.61 40.3795 158.307 40.2774 157.992 40.25C157.948 40.2499 157.905 40.267 157.872 40.2976C157.84 40.3282 157.821 40.37 157.818 40.4146C157.818 40.4368 157.821 40.459 157.829 40.4798C157.837 40.5006 157.849 40.5196 157.864 40.5358C157.88 40.552 157.898 40.565 157.918 40.5741C157.939 40.5832 157.96 40.5882 157.983 40.5888C158.242 40.6174 158.491 40.7073 158.709 40.8512C158.927 40.9952 159.108 41.1889 159.236 41.4164C159.254 41.4371 159.276 41.4531 159.302 41.4632C159.327 41.4733 159.354 41.4772 159.381 41.4745Z" fill="#263238"/>
<path d="M152.16 40.1098C152.187 40.117 152.215 40.117 152.242 40.1098C152.468 39.9767 152.722 39.8986 152.983 39.8818C153.245 39.8649 153.507 39.9099 153.748 40.013C153.791 40.0348 153.841 40.0387 153.886 40.0237C153.932 40.0087 153.97 39.9761 153.992 39.9331C154.014 39.8901 154.018 39.8402 154.003 39.7944C153.988 39.7485 153.955 39.7105 153.912 39.6887C153.622 39.5574 153.305 39.4981 152.987 39.5158C152.67 39.5334 152.361 39.6277 152.087 39.7904C152.068 39.8009 152.051 39.8153 152.038 39.8325C152.024 39.8498 152.014 39.8696 152.008 39.8908C152.002 39.912 152.001 39.9342 152.003 39.956C152.006 39.9778 152.013 39.9988 152.025 40.0178C152.037 40.044 152.056 40.0663 152.08 40.0825C152.104 40.0987 152.131 40.1081 152.16 40.1098Z" fill="#263238"/>
<path d="M161.845 87.875L157.973 88.146L159.72 92.2842C159.72 92.2842 162.953 91.263 163.084 88.8962L161.845 87.875Z" fill="#FFC3BD"/>
<path d="M156.485 90.489L158.358 93.3156L159.713 92.2847L157.956 88.1465L156.485 90.489Z" fill="#FFC3BD"/>
<path d="M156.887 42.1371L156.117 41.7402C156.117 41.7402 156.412 42.4614 156.887 42.1371Z" fill="#263238"/>
</svg>
